#N canvas 569 131 587 405 10;
#X obj 27 138 PhaseNoiseGen;
#X obj 120 138 PhaseNoiseGen;
#X obj 210 139 PhaseNoiseGen;
#X obj 300 139 PhaseNoiseGen;
#X obj 58 176 hip~ 30;
#X obj 58 197 lop~ 1000;
#X obj 260 179 hip~ 30;
#X obj 260 200 lop~ 1000;
#X obj 163 262 dac~;
#X obj 102 54 r Seed @hv_param 0 1000 500;
#X msg 102 79 seed \$1;
#X connect 0 0 4 0;
#X connect 1 0 4 0;
#X connect 2 0 6 0;
#X connect 3 0 6 0;
#X connect 4 0 5 0;
#X connect 5 0 8 0;
#X connect 6 0 7 0;
#X connect 7 0 8 1;
#X connect 9 0 10 0;
#X connect 10 0 0 0;
#X connect 10 0 1 0;
#X connect 10 0 2 0;
#X connect 10 0 3 0;
