#N canvas 1186 143 620 530 10;
#X obj 112 352 snapshot~;
#X obj 151 101 tgl 15 0 empty empty empty 17 7 0 10 -262144 -1 -1 1
1;
#X obj 37 419 *~ 1;
#X obj 256 352 snapshot~;
#X obj 257 331 +~ 402;
#X obj 183 372 +~ 202;
#X obj 256 311 phasor~ 30;
#X obj 182 398 osc~ 400;
#X obj 113 331 +~ 398;
#X obj 38 398 osc~ 398;
#X obj 38 372 +~ 198;
#X obj 112 311 phasor~ 33;
#X obj 390 352 snapshot~;
#X obj 390 311 phasor~ 27;
#X obj 391 331 +~ 440;
#X obj 316 398 osc~ 440;
#X obj 317 372 +~ 300;
#X obj 182 419 *~ 0.3;
#X obj 316 419 *~ 0.2;
#X obj 52 213 hsl 128 15 0 100 0 0 empty empty empty -2 -8 0 10 -262144
-1 -1 11254 1;
#X obj 221 261 * 0.5;
#X obj 193 261 * 2;
#X obj 117 238 + 400;
#X obj 144 260 * 0.5;
#X obj 117 259 * 2;
#X obj 49 240 + 200;
#X obj 77 262 * 0.5;
#X obj 49 261 * 2;
#X obj 49 152 random 100;
#X obj 49 90 random 1000;
#X obj 49 111 + 1000;
#X obj 90 130 delay;
#X obj 49 130 t b f;
#X obj 49 71 bng 15 250 50 0 empty empty empty 17 7 0 10 -262144 -1
-1;
#X obj 49 173 pack 0 0;
#X obj 49 193 line;
#X obj 151 129 metro 0.1;
#X msg 151 78 1;
#X obj 71 35 loadbang;
#X obj 153 483 outlet~;
#X obj 247 11 inlet;
#X connect 0 0 9 1;
#X connect 1 0 36 0;
#X connect 2 0 39 0;
#X connect 3 0 7 1;
#X connect 4 0 3 0;
#X connect 5 0 7 0;
#X connect 6 0 4 0;
#X connect 6 0 5 0;
#X connect 7 0 17 0;
#X connect 8 0 0 0;
#X connect 9 0 2 0;
#X connect 10 0 9 0;
#X connect 11 0 8 0;
#X connect 11 0 10 0;
#X connect 12 0 15 1;
#X connect 13 0 14 0;
#X connect 13 0 16 0;
#X connect 14 0 12 0;
#X connect 15 0 18 0;
#X connect 16 0 15 0;
#X connect 17 0 39 0;
#X connect 18 0 39 0;
#X connect 19 0 6 1;
#X connect 19 0 20 0;
#X connect 19 0 21 0;
#X connect 19 0 22 0;
#X connect 19 0 25 0;
#X connect 20 0 13 1;
#X connect 21 0 11 1;
#X connect 22 0 4 1;
#X connect 22 0 23 0;
#X connect 22 0 24 0;
#X connect 23 0 8 1;
#X connect 24 0 14 1;
#X connect 25 0 26 0;
#X connect 25 0 5 1;
#X connect 25 0 27 0;
#X connect 26 0 10 1;
#X connect 27 0 16 1;
#X connect 28 0 34 0;
#X connect 29 0 30 0;
#X connect 30 0 32 0;
#X connect 31 0 33 0;
#X connect 32 0 31 0;
#X connect 32 0 28 0;
#X connect 32 1 31 1;
#X connect 32 1 34 1;
#X connect 33 0 29 0;
#X connect 34 0 35 0;
#X connect 35 0 19 0;
#X connect 36 0 0 0;
#X connect 36 0 3 0;
#X connect 36 0 12 0;
#X connect 37 0 1 0;
#X connect 38 0 33 0;
#X connect 38 0 37 0;
#X connect 40 0 29 0;
#X connect 40 0 28 0;
