#N canvas 53 603 595 635 10;
#X obj 169 325 noise~;
#X obj 202 350 random 1000;
#X obj 154 246 delay;
#X obj 202 289 t b f;
#X obj 202 224 bng 15 250 50 0 empty empty empty 17 7 0 10 -262144
-1 -1;
#X obj 169 493 *~;
#X obj 254 291 bng 15 250 50 0 empty empty empty 17 7 0 10 -262144
-1 -1;
#X obj 169 403 bp~ 300 10;
#X obj 202 201 loadbang;
#X obj 202 372 + 1000;
#X obj 202 246 random 5000;
#X obj 98 325 / 2;
#X obj 202 267 + 2000;
#X obj 169 521 dac~;
#X obj 105 72 r RandDelayMin @hv_param 100 10000 2000;
#X obj 140 97 r RandDelayRange @hv_param 100 10000 5000;
#X obj 241 123 r RandToneMin @hv_param 30 20000 1000;
#X obj 276 150 r RandToneRange @hv_param 100 5000 1000;
#X obj 70 438 line~;
#X msg 110 370 0;
#X obj 71 347 t f f b;
#X msg 110 391 1 \$1;
#X obj 71 392 pipe;
#X msg 71 414 0 \$1;
#X obj 35 47 r Seed @hv_param 0 1000 500;
#X msg 35 72 seed \$1;
#X connect 0 0 7 0;
#X connect 1 0 9 0;
#X connect 2 0 10 0;
#X connect 3 0 2 0;
#X connect 3 0 1 0;
#X connect 3 0 6 0;
#X connect 3 1 2 1;
#X connect 3 1 11 0;
#X connect 4 0 10 0;
#X connect 5 0 13 0;
#X connect 5 0 13 1;
#X connect 7 0 5 0;
#X connect 8 0 4 0;
#X connect 9 0 7 1;
#X connect 10 0 12 0;
#X connect 11 0 20 0;
#X connect 12 0 3 0;
#X connect 14 0 12 1;
#X connect 15 0 10 1;
#X connect 16 0 9 1;
#X connect 17 0 1 1;
#X connect 18 0 5 1;
#X connect 19 0 18 0;
#X connect 20 0 22 0;
#X connect 20 1 22 1;
#X connect 20 1 21 0;
#X connect 20 2 19 0;
#X connect 21 0 18 0;
#X connect 22 0 23 0;
#X connect 23 0 18 0;
#X connect 24 0 25 0;
#X connect 25 0 10 0;
#X connect 25 0 1 0;
