#N canvas 409 599 1141 788 10;
#X msg 180 82 read -resize Loop_Drum-Luke_Vibert_&_Jean_Jacques_Perrey-Dream_106.wav
loop;
#N canvas 0 22 450 278 (subpatch) 0;
#X array loop 399080 float 2;
#X coords 0 1 399080 -1 200 140 1;
#X restore 366 180 graph;
#X obj 180 131 soundfiler;
#X obj 180 153 f;
#X obj 180 175 t f b b f;
#X obj 180 262 pack f f;
#X obj 180 284 vline~;
#X obj 180 306 tabread4~ loop;
#X obj 180 328 dac~;
#X floatatom 220 223 5 0 0 0 - - -, f 5;
#X obj 265 199 / 44.1;
#X floatatom 265 222 5 0 0 0 - - -, f 5;
#X obj 233 241 *;
#X obj 119 38 loadbang;
#X obj 119 62 bng 15 250 50 0 empty empty empty 17 7 0 10 -262144 -1
-1;
#X obj 65 228 bng 15 250 50 0 empty empty empty 17 7 0 10 -262144 -1
-1;
#X obj 34 251 delay 0;
#X obj 34 204 spigot;
#X obj 60 175 tgl 15 0 empty empty empty 17 7 0 10 -262144 -1 -1 0
1;
#X obj 24 23 bng 30 250 50 0 empty empty empty 17 7 0 10 -4034 -1 -1
;
#X obj 60 91 bng 30 250 50 0 empty empty empty 17 7 0 10 -258113 -1
-1;
#X msg 60 137 0;
#X msg 24 137 1;
#X msg 144 261 0;
#X obj 40 57 bng 30 250 50 0 empty empty empty 17 7 0 10 -257985 -1
-1;
#X msg 119 172 1;
#X connect 0 0 2 0;
#X connect 2 0 3 0;
#X connect 3 0 4 0;
#X connect 4 0 5 0;
#X connect 4 1 23 0;
#X connect 4 2 9 0;
#X connect 4 3 10 0;
#X connect 5 0 6 0;
#X connect 6 0 7 0;
#X connect 7 0 8 0;
#X connect 7 0 8 1;
#X connect 9 0 12 0;
#X connect 10 0 11 0;
#X connect 11 0 12 1;
#X connect 12 0 5 1;
#X connect 12 0 16 1;
#X connect 13 0 14 0;
#X connect 14 0 0 0;
#X connect 14 0 25 0;
#X connect 15 0 3 0;
#X connect 15 0 16 0;
#X connect 16 0 17 0;
#X connect 17 0 15 0;
#X connect 18 0 17 1;
#X connect 19 0 22 0;
#X connect 20 0 21 0;
#X connect 20 0 23 0;
#X connect 21 0 18 0;
#X connect 22 0 18 0;
#X connect 22 0 15 0;
#X connect 23 0 6 0;
#X connect 24 0 21 0;
#X connect 25 0 9 0;
