#N canvas 342 23 2087 1278 10;
#N canvas 39 569 470 657 wonkyMetro 0;
#X obj 46 31 inlet;
#X obj 110 56 random 600;
#X obj 110 112 delay;
#X obj 46 83 tgl 15 0 empty empty empty 17 7 0 10 -262144 -1 -1 0 1
;
#X obj 110 139 spigot;
#X obj 68 112 bng 15 250 50 0 empty empty empty 17 7 0 10 -262144 -1
-1;
#X obj 110 84 + 350;
#X obj 50 291 outlet;
#X connect 0 0 3 0;
#X connect 0 0 4 0;
#X connect 1 0 6 0;
#X connect 2 0 4 0;
#X connect 3 0 4 1;
#X connect 4 0 5 0;
#X connect 5 0 1 0;
#X connect 5 0 7 0;
#X connect 6 0 2 0;
#X connect 6 0 2 1;
#X coords 0 0 1 1 85 60 0;
#X restore 44 399 pd wonkyMetro;
#X obj 311 385 tgl 15 0 empty empty empty 17 7 0 10 -262144 -1 -1 0
1;
#X obj 79 502 ead~ 0 500;
#X obj 48 536 *~;
#X obj 203 62 ezoutput~;
#X obj 47 434 bng 15 250 50 0 empty empty empty 17 7 0 10 -262144 -1
-1;
#X obj 36 122 loadbang;
#X obj 35 185 table shitscale;
#X msg 36 150 \; shitscale 0 0 1 3 5 7 8 10;
#X obj 226 501 ead~ 0 500;
#X obj 195 535 *~;
#X obj 186 437 bng 15 250 50 0 empty empty empty 17 7 0 10 -262144
-1 -1;
#X obj 487 506 ead~ 0 500;
#X obj 456 540 *~;
#X obj 452 436 bng 15 250 50 0 empty empty empty 17 7 0 10 -262144
-1 -1;
#X obj 621 505 ead~ 0 500;
#X obj 590 539 *~;
#X obj 586 438 bng 15 250 50 0 empty empty empty 17 7 0 10 -262144
-1 -1;
#X obj 37 573 throw~ left;
#X obj 168 567 throw~ right;
#X obj 107 125 catch~ left;
#X obj 101 101 catch~ right;
#X obj 443 575 throw~ left;
#N canvas 39 569 470 657 wonkyMetro 0;
#X obj 46 31 inlet;
#X obj 312 32 inlet;
#X obj 110 56 random 600;
#X obj 110 112 delay;
#X obj 46 83 tgl 15 0 empty empty empty 17 7 0 10 -262144 -1 -1 0 1
;
#X obj 110 139 spigot;
#X obj 68 112 bng 15 250 50 0 empty empty empty 17 7 0 10 -262144 -1
-1;
#X obj 110 84 + 350;
#X obj 50 291 outlet;
#X connect 0 0 4 0;
#X connect 0 0 5 0;
#X connect 2 0 7 0;
#X connect 3 0 5 0;
#X connect 4 0 5 1;
#X connect 5 0 6 0;
#X connect 6 0 2 0;
#X connect 6 0 8 0;
#X connect 7 0 3 0;
#X connect 7 0 3 1;
#X coords 0 0 1 1 85 60 0;
#X restore 455 406 pd wonkyMetro;
#X obj 563 571 throw~ right;
#N canvas 39 569 251 374 wonkyMetro 0;
#X obj 46 31 inlet;
#X obj 110 56 random 600;
#X obj 110 112 delay;
#X obj 46 83 tgl 15 0 empty empty empty 17 7 0 10 -262144 -1 -1 0 1
;
#X obj 110 139 spigot;
#X obj 68 112 bng 15 250 50 0 empty empty empty 17 7 0 10 -262144 -1
-1;
#X obj 50 291 outlet;
#X obj 110 84 + 1300;
#X connect 0 0 3 0;
#X connect 0 0 4 0;
#X connect 1 0 7 0;
#X connect 2 0 4 0;
#X connect 3 0 4 1;
#X connect 4 0 5 0;
#X connect 5 0 1 0;
#X connect 5 0 6 0;
#X connect 7 0 2 0;
#X connect 7 0 2 1;
#X coords 0 0 1 1 85 60 0;
#X restore 922 338 pd wonkyMetro;
#X obj 833 452 phasor~;
#X obj 865 486 *~;
#X obj 866 378 bng 15 250 50 0 empty empty empty 17 7 0 10 -262144
-1 -1;
#X obj 979 451 phasor~;
#X obj 1011 485 *~;
#X obj 996 385 bng 15 250 50 0 empty empty empty 17 7 0 10 -262144
-1 -1;
#X obj 1146 445 phasor~;
#X obj 1178 479 *~;
#X obj 1164 384 bng 15 250 50 0 empty empty empty 17 7 0 10 -262144
-1 -1;
#X obj 1294 446 phasor~;
#X obj 1326 480 *~;
#X obj 1324 383 bng 15 250 50 0 empty empty empty 17 7 0 10 -262144
-1 -1;
#X obj 854 523 throw~ left;
#X obj 984 517 throw~ right;
#X obj 1165 514 throw~ left;
#X obj 1299 512 throw~ right;
#X obj 16 502 osc~;
#X obj 163 501 osc~;
#X obj 424 507 osc~;
#X obj 558 505 osc~;
#N canvas 39 569 470 657 wonkyMetro 0;
#X obj 46 31 inlet;
#X obj 312 32 inlet;
#X obj 110 112 delay;
#X obj 46 83 tgl 15 0 empty empty empty 17 7 0 10 -262144 -1 -1 0 1
;
#X obj 110 139 spigot;
#X obj 68 112 bng 15 250 50 0 empty empty empty 17 7 0 10 -262144 -1
-1;
#X obj 50 291 outlet;
#X obj 110 56 random 3000;
#X obj 110 84 + 1000;
#X connect 0 0 3 0;
#X connect 0 0 4 0;
#X connect 2 0 4 0;
#X connect 3 0 4 1;
#X connect 4 0 5 0;
#X connect 5 0 6 0;
#X connect 5 0 7 0;
#X connect 7 0 8 0;
#X connect 8 0 2 0;
#X connect 8 0 2 1;
#X coords 0 0 1 1 85 60 0;
#X restore 1504 211 pd wonkyMetro;
#X obj 1476 362 *~;
#X obj 1450 249 bng 15 250 50 0 empty empty empty 17 7 0 10 -262144
-1 -1;
#X obj 1618 361 *~;
#X obj 1613 254 bng 15 250 50 0 empty empty empty 17 7 0 10 -262144
-1 -1;
#X obj 1761 361 *~;
#X obj 1753 258 bng 15 250 50 0 empty empty empty 17 7 0 10 -262144
-1 -1;
#X obj 1899 360 *~;
#X obj 1888 258 bng 15 250 50 0 empty empty empty 17 7 0 10 -262144
-1 -1;
#X obj 1465 412 throw~ left;
#X obj 1592 413 throw~ right;
#X obj 1749 413 throw~ left;
#N canvas 39 569 470 657 wonkyMetro 0;
#X obj 46 31 inlet;
#X obj 312 32 inlet;
#X obj 110 112 delay;
#X obj 46 83 tgl 15 0 empty empty empty 17 7 0 10 -262144 -1 -1 0 1
;
#X obj 110 139 spigot;
#X obj 68 112 bng 15 250 50 0 empty empty empty 17 7 0 10 -262144 -1
-1;
#X obj 50 291 outlet;
#X obj 110 56 random 3000;
#X obj 110 84 + 1000;
#X connect 0 0 3 0;
#X connect 0 0 4 0;
#X connect 2 0 4 0;
#X connect 3 0 4 1;
#X connect 4 0 5 0;
#X connect 5 0 6 0;
#X connect 5 0 7 0;
#X connect 7 0 8 0;
#X connect 8 0 2 0;
#X connect 8 0 2 1;
#X coords 0 0 1 1 85 60 0;
#X restore 1788 221 pd wonkyMetro;
#X obj 1890 415 throw~ right;
#X obj 1586 327 square~;
#X obj 1444 328 square~;
#X obj 1729 327 square~;
#X obj 1867 326 square~;
#X obj 814 312 tgl 15 0 empty empty empty 17 7 0 10 -262144 -1 -1 0
1;
#X obj 1668 177 tgl 15 0 empty empty empty 17 7 0 10 -262144 -1 -1
0 1;
#N canvas 137 318 469 494 drunkNote 0;
#X obj 19 19 inlet;
#X obj 248 13 inlet;
#X obj 99 67 drunk 24 4;
#X floatatom 99 103 5 0 0 0 - - -;
#X floatatom 123 173 5 0 0 0 - - -;
#X floatatom 54 206 5 0 0 0 - - -;
#X floatatom 57 259 5 0 0 0 - - -;
#X floatatom 128 256 5 0 0 0 - - -;
#X obj 58 139 / 7;
#X obj 124 139 % 7;
#X obj 56 172 int;
#X obj 58 234 * 12;
#X floatatom 91 325 5 0 0 0 - - -;
#X obj 91 296 +;
#X obj 91 381 mtof;
#X obj 128 214 tabread shitscale;
#X obj 91 353 + 36;
#X obj 85 425 outlet;
#X connect 0 0 2 0;
#X connect 1 0 16 1;
#X connect 2 0 3 0;
#X connect 3 0 8 0;
#X connect 3 0 9 0;
#X connect 4 0 15 0;
#X connect 5 0 11 0;
#X connect 6 0 13 0;
#X connect 7 0 13 1;
#X connect 8 0 10 0;
#X connect 9 0 4 0;
#X connect 10 0 5 0;
#X connect 11 0 6 0;
#X connect 12 0 16 0;
#X connect 13 0 12 0;
#X connect 14 0 17 0;
#X connect 15 0 7 0;
#X connect 16 0 14 0;
#X restore 16 474 pd drunkNote;
#N canvas 95 663 469 494 drunkNote 0;
#X obj 19 19 inlet;
#X obj 248 13 inlet;
#X obj 99 67 drunk 24 4;
#X floatatom 99 103 5 0 0 0 - - -;
#X floatatom 123 173 5 0 0 0 - - -;
#X floatatom 54 206 5 0 0 0 - - -;
#X floatatom 57 259 5 0 0 0 - - -;
#X floatatom 128 256 5 0 0 0 - - -;
#X obj 58 139 / 7;
#X obj 124 139 % 7;
#X obj 56 172 int;
#X obj 58 234 * 12;
#X floatatom 91 325 5 0 0 0 - - -;
#X obj 91 296 +;
#X obj 91 381 mtof;
#X obj 128 214 tabread shitscale;
#X obj 91 353 + 36;
#X obj 85 425 outlet;
#X connect 0 0 2 0;
#X connect 1 0 16 1;
#X connect 2 0 3 0;
#X connect 3 0 8 0;
#X connect 3 0 9 0;
#X connect 4 0 15 0;
#X connect 5 0 11 0;
#X connect 6 0 13 0;
#X connect 7 0 13 1;
#X connect 8 0 10 0;
#X connect 9 0 4 0;
#X connect 10 0 5 0;
#X connect 11 0 6 0;
#X connect 12 0 16 0;
#X connect 13 0 12 0;
#X connect 14 0 17 0;
#X connect 15 0 7 0;
#X connect 16 0 14 0;
#X restore 163 474 pd drunkNote;
#N canvas 95 663 469 494 drunkNote 0;
#X obj 19 19 inlet;
#X obj 248 13 inlet;
#X obj 99 67 drunk 24 4;
#X floatatom 99 103 5 0 0 0 - - -;
#X floatatom 123 173 5 0 0 0 - - -;
#X floatatom 54 206 5 0 0 0 - - -;
#X floatatom 57 259 5 0 0 0 - - -;
#X floatatom 128 256 5 0 0 0 - - -;
#X obj 58 139 / 7;
#X obj 124 139 % 7;
#X obj 56 172 int;
#X obj 58 234 * 12;
#X floatatom 91 325 5 0 0 0 - - -;
#X obj 91 296 +;
#X obj 91 381 mtof;
#X obj 128 214 tabread shitscale;
#X obj 91 353 + 36;
#X obj 85 425 outlet;
#X connect 0 0 2 0;
#X connect 1 0 16 1;
#X connect 2 0 3 0;
#X connect 3 0 8 0;
#X connect 3 0 9 0;
#X connect 4 0 15 0;
#X connect 5 0 11 0;
#X connect 6 0 13 0;
#X connect 7 0 13 1;
#X connect 8 0 10 0;
#X connect 9 0 4 0;
#X connect 10 0 5 0;
#X connect 11 0 6 0;
#X connect 12 0 16 0;
#X connect 13 0 12 0;
#X connect 14 0 17 0;
#X connect 15 0 7 0;
#X connect 16 0 14 0;
#X restore 424 473 pd drunkNote;
#N canvas 95 663 469 494 drunkNote 0;
#X obj 19 19 inlet;
#X obj 248 13 inlet;
#X obj 99 67 drunk 24 4;
#X floatatom 99 103 5 0 0 0 - - -;
#X floatatom 123 173 5 0 0 0 - - -;
#X floatatom 54 206 5 0 0 0 - - -;
#X floatatom 57 259 5 0 0 0 - - -;
#X floatatom 128 256 5 0 0 0 - - -;
#X obj 58 139 / 7;
#X obj 124 139 % 7;
#X obj 56 172 int;
#X obj 58 234 * 12;
#X floatatom 91 325 5 0 0 0 - - -;
#X obj 91 296 +;
#X obj 91 381 mtof;
#X obj 128 214 tabread shitscale;
#X obj 91 353 + 36;
#X obj 85 425 outlet;
#X connect 0 0 2 0;
#X connect 1 0 16 1;
#X connect 2 0 3 0;
#X connect 3 0 8 0;
#X connect 3 0 9 0;
#X connect 4 0 15 0;
#X connect 5 0 11 0;
#X connect 6 0 13 0;
#X connect 7 0 13 1;
#X connect 8 0 10 0;
#X connect 9 0 4 0;
#X connect 10 0 5 0;
#X connect 11 0 6 0;
#X connect 12 0 16 0;
#X connect 13 0 12 0;
#X connect 14 0 17 0;
#X connect 15 0 7 0;
#X connect 16 0 14 0;
#X restore 558 466 pd drunkNote;
#N canvas 294 665 469 494 drunkNote 0;
#X obj 19 19 inlet;
#X obj 248 13 inlet;
#X obj 99 67 drunk 24 4;
#X floatatom 99 103 5 0 0 0 - - -;
#X floatatom 123 173 5 0 0 0 - - -;
#X floatatom 54 206 5 0 0 0 - - -;
#X floatatom 57 259 5 0 0 0 - - -;
#X floatatom 128 256 5 0 0 0 - - -;
#X obj 58 139 / 7;
#X obj 124 139 % 7;
#X obj 56 172 int;
#X obj 58 234 * 12;
#X floatatom 91 325 5 0 0 0 - - -;
#X obj 91 296 +;
#X obj 91 381 mtof;
#X obj 128 214 tabread shitscale;
#X obj 85 425 outlet;
#X obj 91 353 + 24;
#X connect 0 0 2 0;
#X connect 1 0 17 1;
#X connect 2 0 3 0;
#X connect 3 0 8 0;
#X connect 3 0 9 0;
#X connect 4 0 15 0;
#X connect 5 0 11 0;
#X connect 6 0 13 0;
#X connect 7 0 13 1;
#X connect 8 0 10 0;
#X connect 9 0 4 0;
#X connect 10 0 5 0;
#X connect 11 0 6 0;
#X connect 12 0 17 0;
#X connect 13 0 12 0;
#X connect 14 0 16 0;
#X connect 15 0 7 0;
#X connect 17 0 14 0;
#X restore 979 415 pd drunkNote;
#N canvas 95 663 469 494 drunkNote 0;
#X obj 19 19 inlet;
#X obj 248 13 inlet;
#X obj 99 67 drunk 24 4;
#X floatatom 99 103 5 0 0 0 - - -;
#X floatatom 123 173 5 0 0 0 - - -;
#X floatatom 54 206 5 0 0 0 - - -;
#X floatatom 57 259 5 0 0 0 - - -;
#X floatatom 128 256 5 0 0 0 - - -;
#X obj 58 139 / 7;
#X obj 124 139 % 7;
#X obj 56 172 int;
#X obj 58 234 * 12;
#X floatatom 91 325 5 0 0 0 - - -;
#X obj 91 296 +;
#X obj 91 381 mtof;
#X obj 128 214 tabread shitscale;
#X obj 85 425 outlet;
#X obj 91 353 + 24;
#X connect 0 0 2 0;
#X connect 1 0 17 1;
#X connect 2 0 3 0;
#X connect 3 0 8 0;
#X connect 3 0 9 0;
#X connect 4 0 15 0;
#X connect 5 0 11 0;
#X connect 6 0 13 0;
#X connect 7 0 13 1;
#X connect 8 0 10 0;
#X connect 9 0 4 0;
#X connect 10 0 5 0;
#X connect 11 0 6 0;
#X connect 12 0 17 0;
#X connect 13 0 12 0;
#X connect 14 0 16 0;
#X connect 15 0 7 0;
#X connect 17 0 14 0;
#X restore 833 412 pd drunkNote;
#N canvas 95 663 469 494 drunkNote 0;
#X obj 19 19 inlet;
#X obj 248 13 inlet;
#X obj 99 67 drunk 24 4;
#X floatatom 99 103 5 0 0 0 - - -;
#X floatatom 123 173 5 0 0 0 - - -;
#X floatatom 54 206 5 0 0 0 - - -;
#X floatatom 57 259 5 0 0 0 - - -;
#X floatatom 128 256 5 0 0 0 - - -;
#X obj 58 139 / 7;
#X obj 124 139 % 7;
#X obj 56 172 int;
#X obj 58 234 * 12;
#X floatatom 91 325 5 0 0 0 - - -;
#X obj 91 296 +;
#X obj 91 381 mtof;
#X obj 128 214 tabread shitscale;
#X obj 91 353 + 36;
#X obj 85 425 outlet;
#X connect 0 0 2 0;
#X connect 1 0 16 1;
#X connect 2 0 3 0;
#X connect 3 0 8 0;
#X connect 3 0 9 0;
#X connect 4 0 15 0;
#X connect 5 0 11 0;
#X connect 6 0 13 0;
#X connect 7 0 13 1;
#X connect 8 0 10 0;
#X connect 9 0 4 0;
#X connect 10 0 5 0;
#X connect 11 0 6 0;
#X connect 12 0 16 0;
#X connect 13 0 12 0;
#X connect 14 0 17 0;
#X connect 15 0 7 0;
#X connect 16 0 14 0;
#X restore 1146 410 pd drunkNote;
#N canvas 95 663 469 494 drunkNote 0;
#X obj 19 19 inlet;
#X obj 248 13 inlet;
#X obj 99 67 drunk 24 4;
#X floatatom 99 103 5 0 0 0 - - -;
#X floatatom 123 173 5 0 0 0 - - -;
#X floatatom 54 206 5 0 0 0 - - -;
#X floatatom 57 259 5 0 0 0 - - -;
#X floatatom 128 256 5 0 0 0 - - -;
#X obj 58 139 / 7;
#X obj 124 139 % 7;
#X obj 56 172 int;
#X obj 58 234 * 12;
#X floatatom 91 325 5 0 0 0 - - -;
#X obj 91 296 +;
#X obj 91 381 mtof;
#X obj 128 214 tabread shitscale;
#X obj 91 353 + 36;
#X obj 85 425 outlet;
#X connect 0 0 2 0;
#X connect 1 0 16 1;
#X connect 2 0 3 0;
#X connect 3 0 8 0;
#X connect 3 0 9 0;
#X connect 4 0 15 0;
#X connect 5 0 11 0;
#X connect 6 0 13 0;
#X connect 7 0 13 1;
#X connect 8 0 10 0;
#X connect 9 0 4 0;
#X connect 10 0 5 0;
#X connect 11 0 6 0;
#X connect 12 0 16 0;
#X connect 13 0 12 0;
#X connect 14 0 17 0;
#X connect 15 0 7 0;
#X connect 16 0 14 0;
#X restore 1294 407 pd drunkNote;
#N canvas 247 780 469 494 drunkNote 0;
#X obj 19 19 inlet;
#X obj 248 13 inlet;
#X floatatom 99 103 5 0 0 0 - - -;
#X floatatom 123 173 5 0 0 0 - - -;
#X floatatom 54 206 5 0 0 0 - - -;
#X floatatom 57 259 5 0 0 0 - - -;
#X floatatom 128 256 5 0 0 0 - - -;
#X obj 58 139 / 7;
#X obj 124 139 % 7;
#X obj 56 172 int;
#X obj 58 234 * 12;
#X floatatom 91 325 5 0 0 0 - - -;
#X obj 91 296 +;
#X obj 91 381 mtof;
#X obj 128 214 tabread shitscale;
#X obj 91 353 + 36;
#X obj 85 425 outlet;
#X obj 99 67 drunk 12 4;
#X connect 0 0 17 0;
#X connect 1 0 15 1;
#X connect 2 0 7 0;
#X connect 2 0 8 0;
#X connect 3 0 14 0;
#X connect 4 0 10 0;
#X connect 5 0 12 0;
#X connect 6 0 12 1;
#X connect 7 0 9 0;
#X connect 8 0 3 0;
#X connect 9 0 4 0;
#X connect 10 0 5 0;
#X connect 11 0 15 0;
#X connect 12 0 11 0;
#X connect 13 0 16 0;
#X connect 14 0 6 0;
#X connect 15 0 13 0;
#X connect 17 0 2 0;
#X restore 1444 291 pd drunkNote;
#N canvas 11 754 469 494 drunkNote 0;
#X obj 19 19 inlet;
#X obj 248 13 inlet;
#X floatatom 99 103 5 0 0 0 - - -;
#X floatatom 123 173 5 0 0 0 - - -;
#X floatatom 54 206 5 0 0 0 - - -;
#X floatatom 57 259 5 0 0 0 - - -;
#X floatatom 128 256 5 0 0 0 - - -;
#X obj 58 139 / 7;
#X obj 124 139 % 7;
#X obj 56 172 int;
#X obj 58 234 * 12;
#X floatatom 91 325 5 0 0 0 - - -;
#X obj 91 296 +;
#X obj 91 381 mtof;
#X obj 128 214 tabread shitscale;
#X obj 91 353 + 36;
#X obj 85 425 outlet;
#X obj 99 67 drunk 12 4;
#X connect 0 0 17 0;
#X connect 1 0 15 1;
#X connect 2 0 7 0;
#X connect 2 0 8 0;
#X connect 3 0 14 0;
#X connect 4 0 10 0;
#X connect 5 0 12 0;
#X connect 6 0 12 1;
#X connect 7 0 9 0;
#X connect 8 0 3 0;
#X connect 9 0 4 0;
#X connect 10 0 5 0;
#X connect 11 0 15 0;
#X connect 12 0 11 0;
#X connect 13 0 16 0;
#X connect 14 0 6 0;
#X connect 15 0 13 0;
#X connect 17 0 2 0;
#X restore 1586 291 pd drunkNote;
#N canvas 148 850 469 494 drunkNote 0;
#X obj 19 19 inlet;
#X obj 248 13 inlet;
#X floatatom 99 103 5 0 0 0 - - -;
#X floatatom 123 173 5 0 0 0 - - -;
#X floatatom 54 206 5 0 0 0 - - -;
#X floatatom 57 259 5 0 0 0 - - -;
#X floatatom 128 256 5 0 0 0 - - -;
#X obj 58 139 / 7;
#X obj 124 139 % 7;
#X obj 56 172 int;
#X obj 58 234 * 12;
#X floatatom 91 325 5 0 0 0 - - -;
#X obj 91 296 +;
#X obj 91 381 mtof;
#X obj 128 214 tabread shitscale;
#X obj 91 353 + 36;
#X obj 85 425 outlet;
#X obj 99 67 drunk 12 4;
#X connect 0 0 17 0;
#X connect 1 0 15 1;
#X connect 2 0 7 0;
#X connect 2 0 8 0;
#X connect 3 0 14 0;
#X connect 4 0 10 0;
#X connect 5 0 12 0;
#X connect 6 0 12 1;
#X connect 7 0 9 0;
#X connect 8 0 3 0;
#X connect 9 0 4 0;
#X connect 10 0 5 0;
#X connect 11 0 15 0;
#X connect 12 0 11 0;
#X connect 13 0 16 0;
#X connect 14 0 6 0;
#X connect 15 0 13 0;
#X connect 17 0 2 0;
#X restore 1729 285 pd drunkNote;
#N canvas 575 789 469 494 drunkNote 0;
#X obj 19 19 inlet;
#X obj 248 13 inlet;
#X floatatom 99 103 5 0 0 0 - - -;
#X floatatom 123 173 5 0 0 0 - - -;
#X floatatom 54 206 5 0 0 0 - - -;
#X floatatom 57 259 5 0 0 0 - - -;
#X floatatom 128 256 5 0 0 0 - - -;
#X obj 58 139 / 7;
#X obj 124 139 % 7;
#X obj 56 172 int;
#X obj 58 234 * 12;
#X floatatom 91 325 5 0 0 0 - - -;
#X obj 91 296 +;
#X obj 91 381 mtof;
#X obj 128 214 tabread shitscale;
#X obj 91 353 + 36;
#X obj 85 425 outlet;
#X obj 99 68 drunk 12 4;
#X connect 0 0 17 0;
#X connect 1 0 15 1;
#X connect 2 0 7 0;
#X connect 2 0 8 0;
#X connect 3 0 14 0;
#X connect 4 0 10 0;
#X connect 5 0 12 0;
#X connect 6 0 12 1;
#X connect 7 0 9 0;
#X connect 8 0 3 0;
#X connect 9 0 4 0;
#X connect 10 0 5 0;
#X connect 11 0 15 0;
#X connect 12 0 11 0;
#X connect 13 0 16 0;
#X connect 14 0 6 0;
#X connect 15 0 13 0;
#X connect 17 0 2 0;
#X restore 1867 283 pd drunkNote;
#X obj 346 383 tgl 15 0 empty empty empty 17 7 0 10 -262144 -1 -1 0
1;
#X obj 150 399 metro 500;
#X obj 200 354 random 700;
#X obj 200 336 bng 15 250 50 0 empty empty empty 17 7 0 10 -262144
-1 -1;
#X obj 550 406 metro 500;
#X obj 601 357 random 700;
#X obj 601 339 bng 15 250 50 0 empty empty empty 17 7 0 10 -262144
-1 -1;
#X obj 367 130 metro 10000;
#X obj 367 155 counter;
#N canvas 177 378 470 657 wonkyMetro 0;
#X obj 46 31 inlet;
#X obj 312 32 inlet;
#X obj 110 56 random 600;
#X obj 110 112 delay;
#X obj 46 83 tgl 15 0 empty empty empty 17 7 0 10 -262144 -1 -1 0 1
;
#X obj 110 139 spigot;
#X obj 68 112 bng 15 250 50 0 empty empty empty 17 7 0 10 -262144 -1
-1;
#X obj 110 84 + 350;
#X obj 50 291 outlet;
#X connect 0 0 4 0;
#X connect 0 0 5 0;
#X connect 2 0 7 0;
#X connect 3 0 5 0;
#X connect 4 0 5 1;
#X connect 5 0 6 0;
#X connect 6 0 2 0;
#X connect 6 0 8 0;
#X connect 7 0 3 0;
#X connect 7 0 3 1;
#X coords 0 0 1 1 85 60 0;
#X restore 53 733 pd wonkyMetro;
#X obj 310 701 tgl 15 0 empty empty empty 17 7 0 10 -262144 -1 -1 0
1;
#X obj 96 835 ead~ 0 500;
#X obj 65 869 *~;
#X obj 64 767 bng 15 250 50 0 empty empty empty 17 7 0 10 -262144 -1
-1;
#X obj 235 835 ead~ 0 500;
#X obj 204 869 *~;
#X obj 195 771 bng 15 250 50 0 empty empty empty 17 7 0 10 -262144
-1 -1;
#X obj 494 841 ead~ 0 500;
#X obj 463 875 *~;
#X obj 459 771 bng 15 250 50 0 empty empty empty 17 7 0 10 -262144
-1 -1;
#X obj 630 839 ead~ 0 500;
#X obj 599 873 *~;
#X obj 595 772 bng 15 250 50 0 empty empty empty 17 7 0 10 -262144
-1 -1;
#X obj 54 906 throw~ left;
#X obj 177 901 throw~ right;
#X obj 450 910 throw~ left;
#N canvas 39 569 470 657 wonkyMetro 0;
#X obj 46 31 inlet;
#X obj 312 32 inlet;
#X obj 110 56 random 600;
#X obj 110 112 delay;
#X obj 46 83 tgl 15 0 empty empty empty 17 7 0 10 -262144 -1 -1 0 1
;
#X obj 110 139 spigot;
#X obj 68 112 bng 15 250 50 0 empty empty empty 17 7 0 10 -262144 -1
-1;
#X obj 110 84 + 350;
#X obj 50 291 outlet;
#X connect 0 0 4 0;
#X connect 0 0 5 0;
#X connect 2 0 7 0;
#X connect 3 0 5 0;
#X connect 4 0 5 1;
#X connect 5 0 6 0;
#X connect 6 0 2 0;
#X connect 6 0 8 0;
#X connect 7 0 3 0;
#X connect 7 0 3 1;
#X coords 0 0 1 1 85 60 0;
#X restore 464 740 pd wonkyMetro;
#X obj 572 905 throw~ right;
#X obj 33 835 osc~;
#X obj 172 835 osc~;
#X obj 431 842 osc~;
#X obj 567 839 osc~;
#N canvas 95 663 469 494 drunkNote 0;
#X obj 19 19 inlet;
#X obj 248 13 inlet;
#X obj 99 67 drunk 24 4;
#X floatatom 99 103 5 0 0 0 - - -;
#X floatatom 123 173 5 0 0 0 - - -;
#X floatatom 54 206 5 0 0 0 - - -;
#X floatatom 57 259 5 0 0 0 - - -;
#X floatatom 128 256 5 0 0 0 - - -;
#X obj 58 139 / 7;
#X obj 124 139 % 7;
#X obj 56 172 int;
#X obj 58 234 * 12;
#X floatatom 91 325 5 0 0 0 - - -;
#X obj 91 296 +;
#X obj 91 381 mtof;
#X obj 128 214 tabread shitscale;
#X obj 91 353 + 36;
#X obj 85 425 outlet;
#X connect 0 0 2 0;
#X connect 1 0 16 1;
#X connect 2 0 3 0;
#X connect 3 0 8 0;
#X connect 3 0 9 0;
#X connect 4 0 15 0;
#X connect 5 0 11 0;
#X connect 6 0 13 0;
#X connect 7 0 13 1;
#X connect 8 0 10 0;
#X connect 9 0 4 0;
#X connect 10 0 5 0;
#X connect 11 0 6 0;
#X connect 12 0 16 0;
#X connect 13 0 12 0;
#X connect 14 0 17 0;
#X connect 15 0 7 0;
#X connect 16 0 14 0;
#X restore 33 807 pd drunkNote;
#N canvas 95 663 469 494 drunkNote 0;
#X obj 19 19 inlet;
#X obj 248 13 inlet;
#X obj 99 67 drunk 24 4;
#X floatatom 99 103 5 0 0 0 - - -;
#X floatatom 123 173 5 0 0 0 - - -;
#X floatatom 54 206 5 0 0 0 - - -;
#X floatatom 57 259 5 0 0 0 - - -;
#X floatatom 128 256 5 0 0 0 - - -;
#X obj 58 139 / 7;
#X obj 124 139 % 7;
#X obj 56 172 int;
#X obj 58 234 * 12;
#X floatatom 91 325 5 0 0 0 - - -;
#X obj 91 296 +;
#X obj 91 381 mtof;
#X obj 128 214 tabread shitscale;
#X obj 91 353 + 36;
#X obj 85 425 outlet;
#X connect 0 0 2 0;
#X connect 1 0 16 1;
#X connect 2 0 3 0;
#X connect 3 0 8 0;
#X connect 3 0 9 0;
#X connect 4 0 15 0;
#X connect 5 0 11 0;
#X connect 6 0 13 0;
#X connect 7 0 13 1;
#X connect 8 0 10 0;
#X connect 9 0 4 0;
#X connect 10 0 5 0;
#X connect 11 0 6 0;
#X connect 12 0 16 0;
#X connect 13 0 12 0;
#X connect 14 0 17 0;
#X connect 15 0 7 0;
#X connect 16 0 14 0;
#X restore 172 808 pd drunkNote;
#N canvas 95 663 469 494 drunkNote 0;
#X obj 19 19 inlet;
#X obj 248 13 inlet;
#X obj 99 67 drunk 24 4;
#X floatatom 99 103 5 0 0 0 - - -;
#X floatatom 123 173 5 0 0 0 - - -;
#X floatatom 54 206 5 0 0 0 - - -;
#X floatatom 57 259 5 0 0 0 - - -;
#X floatatom 128 256 5 0 0 0 - - -;
#X obj 58 139 / 7;
#X obj 124 139 % 7;
#X obj 56 172 int;
#X obj 58 234 * 12;
#X floatatom 91 325 5 0 0 0 - - -;
#X obj 91 296 +;
#X obj 91 381 mtof;
#X obj 128 214 tabread shitscale;
#X obj 91 353 + 36;
#X obj 85 425 outlet;
#X connect 0 0 2 0;
#X connect 1 0 16 1;
#X connect 2 0 3 0;
#X connect 3 0 8 0;
#X connect 3 0 9 0;
#X connect 4 0 15 0;
#X connect 5 0 11 0;
#X connect 6 0 13 0;
#X connect 7 0 13 1;
#X connect 8 0 10 0;
#X connect 9 0 4 0;
#X connect 10 0 5 0;
#X connect 11 0 6 0;
#X connect 12 0 16 0;
#X connect 13 0 12 0;
#X connect 14 0 17 0;
#X connect 15 0 7 0;
#X connect 16 0 14 0;
#X restore 431 808 pd drunkNote;
#N canvas 95 663 469 494 drunkNote 0;
#X obj 19 19 inlet;
#X obj 248 13 inlet;
#X obj 99 67 drunk 24 4;
#X floatatom 99 103 5 0 0 0 - - -;
#X floatatom 123 173 5 0 0 0 - - -;
#X floatatom 54 206 5 0 0 0 - - -;
#X floatatom 57 259 5 0 0 0 - - -;
#X floatatom 128 256 5 0 0 0 - - -;
#X obj 58 139 / 7;
#X obj 124 139 % 7;
#X obj 56 172 int;
#X obj 58 234 * 12;
#X floatatom 91 325 5 0 0 0 - - -;
#X obj 91 296 +;
#X obj 91 381 mtof;
#X obj 128 214 tabread shitscale;
#X obj 91 353 + 36;
#X obj 85 425 outlet;
#X connect 0 0 2 0;
#X connect 1 0 16 1;
#X connect 2 0 3 0;
#X connect 3 0 8 0;
#X connect 3 0 9 0;
#X connect 4 0 15 0;
#X connect 5 0 11 0;
#X connect 6 0 13 0;
#X connect 7 0 13 1;
#X connect 8 0 10 0;
#X connect 9 0 4 0;
#X connect 10 0 5 0;
#X connect 11 0 6 0;
#X connect 12 0 16 0;
#X connect 13 0 12 0;
#X connect 14 0 17 0;
#X connect 15 0 7 0;
#X connect 16 0 14 0;
#X restore 567 800 pd drunkNote;
#X obj 345 699 tgl 15 0 empty empty empty 17 7 0 10 -262144 -1 -1 0
1;
#X obj 159 733 metro 500;
#X obj 210 693 random 700;
#X obj 209 676 bng 15 250 50 0 empty empty empty 17 7 0 10 -262144
-1 -1;
#X obj 559 740 metro 500;
#X obj 611 693 random 700;
#X obj 611 675 bng 15 250 50 0 empty empty empty 17 7 0 10 -262144
-1 -1;
#X obj 322 306 bng 15 250 50 0 empty empty empty 17 7 0 10 -262144
-1 -1;
#X msg 318 341 0;
#X msg 333 343 1;
#X obj 375 309 bng 15 250 50 0 empty empty empty 17 7 0 10 -262144
-1 -1;
#X msg 371 344 1;
#X msg 386 346 0;
#X obj 372 86 tgl 15 0 empty empty empty 17 7 0 10 -262144 -1 -1 0
1;
#X obj 307 618 bng 15 250 50 0 empty empty empty 17 7 0 10 -262144
-1 -1;
#X msg 303 653 0;
#X msg 318 655 1;
#X obj 360 621 bng 15 250 50 0 empty empty empty 17 7 0 10 -262144
-1 -1;
#X msg 356 656 1;
#X msg 371 658 0;
#X obj 309 208 bng 15 250 50 0 empty empty empty 17 7 0 10 -262144
-1 -1;
#X obj 409 621 bng 15 250 50 0 empty empty empty 17 7 0 10 -262144
-1 -1;
#X msg 420 658 0;
#X msg 405 656 0;
#X obj 425 305 bng 15 250 50 0 empty empty empty 17 7 0 10 -262144
-1 -1;
#X msg 446 337 0;
#X msg 421 340 0;
#X obj 601 379 + 200;
#X obj 201 377 + 200;
#X obj 210 714 + 200;
#X obj 611 716 + 200;
#N canvas 39 569 470 657 wonkyMetro 0;
#X obj 46 31 inlet;
#X obj 312 32 inlet;
#X obj 110 56 random 600;
#X obj 110 112 delay;
#X obj 46 83 tgl 15 0 empty empty empty 17 7 0 10 -262144 -1 -1 0 1
;
#X obj 110 139 spigot;
#X obj 68 112 bng 15 250 50 0 empty empty empty 17 7 0 10 -262144 -1
-1;
#X obj 110 84 + 350;
#X obj 50 291 outlet;
#X connect 0 0 4 0;
#X connect 0 0 5 0;
#X connect 2 0 7 0;
#X connect 3 0 5 0;
#X connect 4 0 5 1;
#X connect 5 0 6 0;
#X connect 6 0 2 0;
#X connect 6 0 8 0;
#X connect 7 0 3 0;
#X connect 7 0 3 1;
#X coords 0 0 1 1 85 60 0;
#X restore 56 1056 pd wonkyMetro;
#X obj 313 1024 tgl 15 0 empty empty empty 17 7 0 10 -262144 -1 -1
0 1;
#X obj 99 1158 ead~ 0 500;
#X obj 68 1192 *~;
#X obj 67 1090 bng 15 250 50 0 empty empty empty 17 7 0 10 -262144
-1 -1;
#X obj 238 1158 ead~ 0 500;
#X obj 207 1192 *~;
#X obj 198 1094 bng 15 250 50 0 empty empty empty 17 7 0 10 -262144
-1 -1;
#X obj 497 1164 ead~ 0 500;
#X obj 466 1198 *~;
#X obj 462 1094 bng 15 250 50 0 empty empty empty 17 7 0 10 -262144
-1 -1;
#X obj 633 1162 ead~ 0 500;
#X obj 602 1196 *~;
#X obj 598 1095 bng 15 250 50 0 empty empty empty 17 7 0 10 -262144
-1 -1;
#X obj 57 1229 throw~ left;
#X obj 180 1224 throw~ right;
#X obj 453 1233 throw~ left;
#N canvas 39 569 470 657 wonkyMetro 0;
#X obj 46 31 inlet;
#X obj 312 32 inlet;
#X obj 110 56 random 600;
#X obj 110 112 delay;
#X obj 46 83 tgl 15 0 empty empty empty 17 7 0 10 -262144 -1 -1 0 1
;
#X obj 110 139 spigot;
#X obj 68 112 bng 15 250 50 0 empty empty empty 17 7 0 10 -262144 -1
-1;
#X obj 110 84 + 350;
#X obj 50 291 outlet;
#X connect 0 0 4 0;
#X connect 0 0 5 0;
#X connect 2 0 7 0;
#X connect 3 0 5 0;
#X connect 4 0 5 1;
#X connect 5 0 6 0;
#X connect 6 0 2 0;
#X connect 6 0 8 0;
#X connect 7 0 3 0;
#X connect 7 0 3 1;
#X coords 0 0 1 1 85 60 0;
#X restore 467 1063 pd wonkyMetro;
#X obj 575 1228 throw~ right;
#X obj 36 1158 osc~;
#X obj 175 1158 osc~;
#X obj 434 1165 osc~;
#X obj 570 1162 osc~;
#N canvas 95 663 469 494 drunkNote 0;
#X obj 19 19 inlet;
#X obj 248 13 inlet;
#X obj 99 67 drunk 24 4;
#X floatatom 99 103 5 0 0 0 - - -;
#X floatatom 123 173 5 0 0 0 - - -;
#X floatatom 54 206 5 0 0 0 - - -;
#X floatatom 57 259 5 0 0 0 - - -;
#X floatatom 128 256 5 0 0 0 - - -;
#X obj 58 139 / 7;
#X obj 124 139 % 7;
#X obj 56 172 int;
#X obj 58 234 * 12;
#X floatatom 91 325 5 0 0 0 - - -;
#X obj 91 296 +;
#X obj 91 381 mtof;
#X obj 128 214 tabread shitscale;
#X obj 91 353 + 36;
#X obj 85 425 outlet;
#X connect 0 0 2 0;
#X connect 1 0 16 1;
#X connect 2 0 3 0;
#X connect 3 0 8 0;
#X connect 3 0 9 0;
#X connect 4 0 15 0;
#X connect 5 0 11 0;
#X connect 6 0 13 0;
#X connect 7 0 13 1;
#X connect 8 0 10 0;
#X connect 9 0 4 0;
#X connect 10 0 5 0;
#X connect 11 0 6 0;
#X connect 12 0 16 0;
#X connect 13 0 12 0;
#X connect 14 0 17 0;
#X connect 15 0 7 0;
#X connect 16 0 14 0;
#X restore 36 1130 pd drunkNote;
#N canvas 95 663 469 494 drunkNote 0;
#X obj 19 19 inlet;
#X obj 248 13 inlet;
#X obj 99 67 drunk 24 4;
#X floatatom 99 103 5 0 0 0 - - -;
#X floatatom 123 173 5 0 0 0 - - -;
#X floatatom 54 206 5 0 0 0 - - -;
#X floatatom 57 259 5 0 0 0 - - -;
#X floatatom 128 256 5 0 0 0 - - -;
#X obj 58 139 / 7;
#X obj 124 139 % 7;
#X obj 56 172 int;
#X obj 58 234 * 12;
#X floatatom 91 325 5 0 0 0 - - -;
#X obj 91 296 +;
#X obj 91 381 mtof;
#X obj 128 214 tabread shitscale;
#X obj 91 353 + 36;
#X obj 85 425 outlet;
#X connect 0 0 2 0;
#X connect 1 0 16 1;
#X connect 2 0 3 0;
#X connect 3 0 8 0;
#X connect 3 0 9 0;
#X connect 4 0 15 0;
#X connect 5 0 11 0;
#X connect 6 0 13 0;
#X connect 7 0 13 1;
#X connect 8 0 10 0;
#X connect 9 0 4 0;
#X connect 10 0 5 0;
#X connect 11 0 6 0;
#X connect 12 0 16 0;
#X connect 13 0 12 0;
#X connect 14 0 17 0;
#X connect 15 0 7 0;
#X connect 16 0 14 0;
#X restore 175 1131 pd drunkNote;
#N canvas 95 663 469 494 drunkNote 0;
#X obj 19 19 inlet;
#X obj 248 13 inlet;
#X obj 99 67 drunk 24 4;
#X floatatom 99 103 5 0 0 0 - - -;
#X floatatom 123 173 5 0 0 0 - - -;
#X floatatom 54 206 5 0 0 0 - - -;
#X floatatom 57 259 5 0 0 0 - - -;
#X floatatom 128 256 5 0 0 0 - - -;
#X obj 58 139 / 7;
#X obj 124 139 % 7;
#X obj 56 172 int;
#X obj 58 234 * 12;
#X floatatom 91 325 5 0 0 0 - - -;
#X obj 91 296 +;
#X obj 91 381 mtof;
#X obj 128 214 tabread shitscale;
#X obj 91 353 + 36;
#X obj 85 425 outlet;
#X connect 0 0 2 0;
#X connect 1 0 16 1;
#X connect 2 0 3 0;
#X connect 3 0 8 0;
#X connect 3 0 9 0;
#X connect 4 0 15 0;
#X connect 5 0 11 0;
#X connect 6 0 13 0;
#X connect 7 0 13 1;
#X connect 8 0 10 0;
#X connect 9 0 4 0;
#X connect 10 0 5 0;
#X connect 11 0 6 0;
#X connect 12 0 16 0;
#X connect 13 0 12 0;
#X connect 14 0 17 0;
#X connect 15 0 7 0;
#X connect 16 0 14 0;
#X restore 434 1131 pd drunkNote;
#N canvas 95 663 469 494 drunkNote 0;
#X obj 19 19 inlet;
#X obj 248 13 inlet;
#X obj 99 67 drunk 24 4;
#X floatatom 99 103 5 0 0 0 - - -;
#X floatatom 123 173 5 0 0 0 - - -;
#X floatatom 54 206 5 0 0 0 - - -;
#X floatatom 57 259 5 0 0 0 - - -;
#X floatatom 128 256 5 0 0 0 - - -;
#X obj 58 139 / 7;
#X obj 124 139 % 7;
#X obj 56 172 int;
#X obj 58 234 * 12;
#X floatatom 91 325 5 0 0 0 - - -;
#X obj 91 296 +;
#X obj 91 381 mtof;
#X obj 128 214 tabread shitscale;
#X obj 91 353 + 36;
#X obj 85 425 outlet;
#X connect 0 0 2 0;
#X connect 1 0 16 1;
#X connect 2 0 3 0;
#X connect 3 0 8 0;
#X connect 3 0 9 0;
#X connect 4 0 15 0;
#X connect 5 0 11 0;
#X connect 6 0 13 0;
#X connect 7 0 13 1;
#X connect 8 0 10 0;
#X connect 9 0 4 0;
#X connect 10 0 5 0;
#X connect 11 0 6 0;
#X connect 12 0 16 0;
#X connect 13 0 12 0;
#X connect 14 0 17 0;
#X connect 15 0 7 0;
#X connect 16 0 14 0;
#X restore 570 1123 pd drunkNote;
#X obj 348 1022 tgl 15 0 empty empty empty 17 7 0 10 -262144 -1 -1
0 1;
#X obj 162 1056 metro 500;
#X obj 213 1016 random 700;
#X obj 212 999 bng 15 250 50 0 empty empty empty 17 7 0 10 -262144
-1 -1;
#X obj 562 1063 metro 500;
#X obj 614 1016 random 700;
#X obj 614 998 bng 15 250 50 0 empty empty empty 17 7 0 10 -262144
-1 -1;
#X obj 310 941 bng 15 250 50 0 empty empty empty 17 7 0 10 -262144
-1 -1;
#X msg 306 976 0;
#X msg 321 978 1;
#X obj 363 944 bng 15 250 50 0 empty empty empty 17 7 0 10 -262144
-1 -1;
#X msg 359 979 1;
#X msg 374 981 0;
#X obj 412 944 bng 15 250 50 0 empty empty empty 17 7 0 10 -262144
-1 -1;
#X msg 437 980 0;
#X msg 408 979 0;
#X obj 213 1037 + 200;
#X obj 614 1039 + 200;
#X obj 309 243 select 0 1 2 3 4 5 6 7;
#X obj 309 226 random 7;
#N canvas 39 569 254 381 wonkyMetro 0;
#X obj 46 31 inlet;
#X obj 110 112 delay;
#X obj 46 83 tgl 15 0 empty empty empty 17 7 0 10 -262144 -1 -1 0 1
;
#X obj 110 139 spigot;
#X obj 68 112 bng 15 250 50 0 empty empty empty 17 7 0 10 -262144 -1
-1;
#X obj 50 291 outlet;
#X obj 110 56 random 600;
#X obj 110 84 + 1300;
#X connect 0 0 2 0;
#X connect 0 0 3 0;
#X connect 1 0 3 0;
#X connect 2 0 3 1;
#X connect 3 0 4 0;
#X connect 4 0 5 0;
#X connect 4 0 6 0;
#X connect 6 0 7 0;
#X connect 7 0 1 0;
#X connect 7 0 1 1;
#X coords 0 0 1 1 85 60 0;
#X restore 1206 333 pd wonkyMetro;
#X obj 896 452 ead~ 50 1000;
#X obj 1042 451 ead~ 50 1000;
#X obj 1209 445 ead~ 50 1000;
#X obj 1357 446 ead~ 50 1000;
#X obj 865 181 bng 15 250 50 0 empty empty empty 17 7 0 10 -262144
-1 -1;
#X obj 413 32 bng 15 250 50 0 empty empty empty 17 7 0 10 -262144 -1
-1;
#N canvas 39 569 251 374 wonkyMetro 0;
#X obj 46 31 inlet;
#X obj 110 56 random 600;
#X obj 110 112 delay;
#X obj 46 83 tgl 15 0 empty empty empty 17 7 0 10 -262144 -1 -1 0 1
;
#X obj 110 139 spigot;
#X obj 68 112 bng 15 250 50 0 empty empty empty 17 7 0 10 -262144 -1
-1;
#X obj 50 291 outlet;
#X obj 110 84 + 1300;
#X connect 0 0 3 0;
#X connect 0 0 4 0;
#X connect 1 0 7 0;
#X connect 2 0 4 0;
#X connect 3 0 4 1;
#X connect 4 0 5 0;
#X connect 5 0 1 0;
#X connect 5 0 6 0;
#X connect 7 0 2 0;
#X connect 7 0 2 1;
#X coords 0 0 1 1 85 60 0;
#X restore 924 659 pd wonkyMetro;
#X obj 835 773 phasor~;
#X obj 867 807 *~;
#X obj 868 699 bng 15 250 50 0 empty empty empty 17 7 0 10 -262144
-1 -1;
#X obj 981 772 phasor~;
#X obj 1013 806 *~;
#X obj 998 706 bng 15 250 50 0 empty empty empty 17 7 0 10 -262144
-1 -1;
#X obj 1148 766 phasor~;
#X obj 1180 800 *~;
#X obj 1166 705 bng 15 250 50 0 empty empty empty 17 7 0 10 -262144
-1 -1;
#X obj 1296 767 phasor~;
#X obj 1328 801 *~;
#X obj 1326 704 bng 15 250 50 0 empty empty empty 17 7 0 10 -262144
-1 -1;
#X obj 856 844 throw~ left;
#X obj 986 838 throw~ right;
#X obj 1167 835 throw~ left;
#X obj 1301 833 throw~ right;
#N canvas 294 665 469 494 drunkNote 0;
#X obj 19 19 inlet;
#X obj 248 13 inlet;
#X obj 99 67 drunk 24 4;
#X floatatom 99 103 5 0 0 0 - - -;
#X floatatom 123 173 5 0 0 0 - - -;
#X floatatom 54 206 5 0 0 0 - - -;
#X floatatom 57 259 5 0 0 0 - - -;
#X floatatom 128 256 5 0 0 0 - - -;
#X obj 58 139 / 7;
#X obj 124 139 % 7;
#X obj 56 172 int;
#X obj 58 234 * 12;
#X floatatom 91 325 5 0 0 0 - - -;
#X obj 91 296 +;
#X obj 91 381 mtof;
#X obj 128 214 tabread shitscale;
#X obj 85 425 outlet;
#X obj 91 353 + 24;
#X connect 0 0 2 0;
#X connect 1 0 17 1;
#X connect 2 0 3 0;
#X connect 3 0 8 0;
#X connect 3 0 9 0;
#X connect 4 0 15 0;
#X connect 5 0 11 0;
#X connect 6 0 13 0;
#X connect 7 0 13 1;
#X connect 8 0 10 0;
#X connect 9 0 4 0;
#X connect 10 0 5 0;
#X connect 11 0 6 0;
#X connect 12 0 17 0;
#X connect 13 0 12 0;
#X connect 14 0 16 0;
#X connect 15 0 7 0;
#X connect 17 0 14 0;
#X restore 981 736 pd drunkNote;
#N canvas 95 663 469 494 drunkNote 0;
#X obj 19 19 inlet;
#X obj 248 13 inlet;
#X obj 99 67 drunk 24 4;
#X floatatom 99 103 5 0 0 0 - - -;
#X floatatom 123 173 5 0 0 0 - - -;
#X floatatom 54 206 5 0 0 0 - - -;
#X floatatom 57 259 5 0 0 0 - - -;
#X floatatom 128 256 5 0 0 0 - - -;
#X obj 58 139 / 7;
#X obj 124 139 % 7;
#X obj 56 172 int;
#X obj 58 234 * 12;
#X floatatom 91 325 5 0 0 0 - - -;
#X obj 91 296 +;
#X obj 91 381 mtof;
#X obj 128 214 tabread shitscale;
#X obj 85 425 outlet;
#X obj 91 353 + 24;
#X connect 0 0 2 0;
#X connect 1 0 17 1;
#X connect 2 0 3 0;
#X connect 3 0 8 0;
#X connect 3 0 9 0;
#X connect 4 0 15 0;
#X connect 5 0 11 0;
#X connect 6 0 13 0;
#X connect 7 0 13 1;
#X connect 8 0 10 0;
#X connect 9 0 4 0;
#X connect 10 0 5 0;
#X connect 11 0 6 0;
#X connect 12 0 17 0;
#X connect 13 0 12 0;
#X connect 14 0 16 0;
#X connect 15 0 7 0;
#X connect 17 0 14 0;
#X restore 835 733 pd drunkNote;
#N canvas 95 663 469 494 drunkNote 0;
#X obj 19 19 inlet;
#X obj 248 13 inlet;
#X obj 99 67 drunk 24 4;
#X floatatom 99 103 5 0 0 0 - - -;
#X floatatom 123 173 5 0 0 0 - - -;
#X floatatom 54 206 5 0 0 0 - - -;
#X floatatom 57 259 5 0 0 0 - - -;
#X floatatom 128 256 5 0 0 0 - - -;
#X obj 58 139 / 7;
#X obj 124 139 % 7;
#X obj 56 172 int;
#X obj 58 234 * 12;
#X floatatom 91 325 5 0 0 0 - - -;
#X obj 91 296 +;
#X obj 91 381 mtof;
#X obj 128 214 tabread shitscale;
#X obj 91 353 + 36;
#X obj 85 425 outlet;
#X connect 0 0 2 0;
#X connect 1 0 16 1;
#X connect 2 0 3 0;
#X connect 3 0 8 0;
#X connect 3 0 9 0;
#X connect 4 0 15 0;
#X connect 5 0 11 0;
#X connect 6 0 13 0;
#X connect 7 0 13 1;
#X connect 8 0 10 0;
#X connect 9 0 4 0;
#X connect 10 0 5 0;
#X connect 11 0 6 0;
#X connect 12 0 16 0;
#X connect 13 0 12 0;
#X connect 14 0 17 0;
#X connect 15 0 7 0;
#X connect 16 0 14 0;
#X restore 1148 731 pd drunkNote;
#N canvas 95 663 469 494 drunkNote 0;
#X obj 19 19 inlet;
#X obj 248 13 inlet;
#X obj 99 67 drunk 24 4;
#X floatatom 99 103 5 0 0 0 - - -;
#X floatatom 123 173 5 0 0 0 - - -;
#X floatatom 54 206 5 0 0 0 - - -;
#X floatatom 57 259 5 0 0 0 - - -;
#X floatatom 128 256 5 0 0 0 - - -;
#X obj 58 139 / 7;
#X obj 124 139 % 7;
#X obj 56 172 int;
#X obj 58 234 * 12;
#X floatatom 91 325 5 0 0 0 - - -;
#X obj 91 296 +;
#X obj 91 381 mtof;
#X obj 128 214 tabread shitscale;
#X obj 91 353 + 36;
#X obj 85 425 outlet;
#X connect 0 0 2 0;
#X connect 1 0 16 1;
#X connect 2 0 3 0;
#X connect 3 0 8 0;
#X connect 3 0 9 0;
#X connect 4 0 15 0;
#X connect 5 0 11 0;
#X connect 6 0 13 0;
#X connect 7 0 13 1;
#X connect 8 0 10 0;
#X connect 9 0 4 0;
#X connect 10 0 5 0;
#X connect 11 0 6 0;
#X connect 12 0 16 0;
#X connect 13 0 12 0;
#X connect 14 0 17 0;
#X connect 15 0 7 0;
#X connect 16 0 14 0;
#X restore 1296 728 pd drunkNote;
#N canvas 39 569 254 381 wonkyMetro 0;
#X obj 46 31 inlet;
#X obj 110 112 delay;
#X obj 46 83 tgl 15 0 empty empty empty 17 7 0 10 -262144 -1 -1 0 1
;
#X obj 110 139 spigot;
#X obj 68 112 bng 15 250 50 0 empty empty empty 17 7 0 10 -262144 -1
-1;
#X obj 50 291 outlet;
#X obj 110 56 random 600;
#X obj 110 84 + 1300;
#X connect 0 0 2 0;
#X connect 0 0 3 0;
#X connect 1 0 3 0;
#X connect 2 0 3 1;
#X connect 3 0 4 0;
#X connect 4 0 5 0;
#X connect 4 0 6 0;
#X connect 6 0 7 0;
#X connect 7 0 1 0;
#X connect 7 0 1 1;
#X coords 0 0 1 1 85 60 0;
#X restore 1208 654 pd wonkyMetro;
#X obj 898 773 ead~ 50 1000;
#X obj 1044 772 ead~ 50 1000;
#X obj 1211 766 ead~ 50 1000;
#X obj 1359 767 ead~ 50 1000;
#X obj 845 1101 phasor~;
#X obj 877 1135 *~;
#X obj 878 1027 bng 15 250 50 0 empty empty empty 17 7 0 10 -262144
-1 -1;
#X obj 991 1100 phasor~;
#X obj 1023 1134 *~;
#X obj 1008 1034 bng 15 250 50 0 empty empty empty 17 7 0 10 -262144
-1 -1;
#X obj 1158 1094 phasor~;
#X obj 1190 1128 *~;
#X obj 1176 1033 bng 15 250 50 0 empty empty empty 17 7 0 10 -262144
-1 -1;
#X obj 1306 1095 phasor~;
#X obj 1338 1129 *~;
#X obj 1336 1032 bng 15 250 50 0 empty empty empty 17 7 0 10 -262144
-1 -1;
#X obj 866 1172 throw~ left;
#X obj 996 1166 throw~ right;
#X obj 1177 1163 throw~ left;
#X obj 1311 1161 throw~ right;
#N canvas 294 665 469 494 drunkNote 0;
#X obj 19 19 inlet;
#X obj 248 13 inlet;
#X obj 99 67 drunk 24 4;
#X floatatom 99 103 5 0 0 0 - - -;
#X floatatom 123 173 5 0 0 0 - - -;
#X floatatom 54 206 5 0 0 0 - - -;
#X floatatom 57 259 5 0 0 0 - - -;
#X floatatom 128 256 5 0 0 0 - - -;
#X obj 58 139 / 7;
#X obj 124 139 % 7;
#X obj 56 172 int;
#X obj 58 234 * 12;
#X floatatom 91 325 5 0 0 0 - - -;
#X obj 91 296 +;
#X obj 91 381 mtof;
#X obj 128 214 tabread shitscale;
#X obj 85 425 outlet;
#X obj 91 353 + 24;
#X connect 0 0 2 0;
#X connect 1 0 17 1;
#X connect 2 0 3 0;
#X connect 3 0 8 0;
#X connect 3 0 9 0;
#X connect 4 0 15 0;
#X connect 5 0 11 0;
#X connect 6 0 13 0;
#X connect 7 0 13 1;
#X connect 8 0 10 0;
#X connect 9 0 4 0;
#X connect 10 0 5 0;
#X connect 11 0 6 0;
#X connect 12 0 17 0;
#X connect 13 0 12 0;
#X connect 14 0 16 0;
#X connect 15 0 7 0;
#X connect 17 0 14 0;
#X restore 991 1064 pd drunkNote;
#N canvas 95 663 469 494 drunkNote 0;
#X obj 19 19 inlet;
#X obj 248 13 inlet;
#X obj 99 67 drunk 24 4;
#X floatatom 99 103 5 0 0 0 - - -;
#X floatatom 123 173 5 0 0 0 - - -;
#X floatatom 54 206 5 0 0 0 - - -;
#X floatatom 57 259 5 0 0 0 - - -;
#X floatatom 128 256 5 0 0 0 - - -;
#X obj 58 139 / 7;
#X obj 124 139 % 7;
#X obj 56 172 int;
#X obj 58 234 * 12;
#X floatatom 91 325 5 0 0 0 - - -;
#X obj 91 296 +;
#X obj 91 381 mtof;
#X obj 128 214 tabread shitscale;
#X obj 85 425 outlet;
#X obj 91 353 + 24;
#X connect 0 0 2 0;
#X connect 1 0 17 1;
#X connect 2 0 3 0;
#X connect 3 0 8 0;
#X connect 3 0 9 0;
#X connect 4 0 15 0;
#X connect 5 0 11 0;
#X connect 6 0 13 0;
#X connect 7 0 13 1;
#X connect 8 0 10 0;
#X connect 9 0 4 0;
#X connect 10 0 5 0;
#X connect 11 0 6 0;
#X connect 12 0 17 0;
#X connect 13 0 12 0;
#X connect 14 0 16 0;
#X connect 15 0 7 0;
#X connect 17 0 14 0;
#X restore 845 1061 pd drunkNote;
#N canvas 95 663 469 494 drunkNote 0;
#X obj 19 19 inlet;
#X obj 248 13 inlet;
#X obj 99 67 drunk 24 4;
#X floatatom 99 103 5 0 0 0 - - -;
#X floatatom 123 173 5 0 0 0 - - -;
#X floatatom 54 206 5 0 0 0 - - -;
#X floatatom 57 259 5 0 0 0 - - -;
#X floatatom 128 256 5 0 0 0 - - -;
#X obj 58 139 / 7;
#X obj 124 139 % 7;
#X obj 56 172 int;
#X obj 58 234 * 12;
#X floatatom 91 325 5 0 0 0 - - -;
#X obj 91 296 +;
#X obj 91 381 mtof;
#X obj 128 214 tabread shitscale;
#X obj 91 353 + 36;
#X obj 85 425 outlet;
#X connect 0 0 2 0;
#X connect 1 0 16 1;
#X connect 2 0 3 0;
#X connect 3 0 8 0;
#X connect 3 0 9 0;
#X connect 4 0 15 0;
#X connect 5 0 11 0;
#X connect 6 0 13 0;
#X connect 7 0 13 1;
#X connect 8 0 10 0;
#X connect 9 0 4 0;
#X connect 10 0 5 0;
#X connect 11 0 6 0;
#X connect 12 0 16 0;
#X connect 13 0 12 0;
#X connect 14 0 17 0;
#X connect 15 0 7 0;
#X connect 16 0 14 0;
#X restore 1158 1059 pd drunkNote;
#N canvas 95 663 469 494 drunkNote 0;
#X obj 19 19 inlet;
#X obj 248 13 inlet;
#X obj 99 67 drunk 24 4;
#X floatatom 99 103 5 0 0 0 - - -;
#X floatatom 123 173 5 0 0 0 - - -;
#X floatatom 54 206 5 0 0 0 - - -;
#X floatatom 57 259 5 0 0 0 - - -;
#X floatatom 128 256 5 0 0 0 - - -;
#X obj 58 139 / 7;
#X obj 124 139 % 7;
#X obj 56 172 int;
#X obj 58 234 * 12;
#X floatatom 91 325 5 0 0 0 - - -;
#X obj 91 296 +;
#X obj 91 381 mtof;
#X obj 128 214 tabread shitscale;
#X obj 91 353 + 36;
#X obj 85 425 outlet;
#X connect 0 0 2 0;
#X connect 1 0 16 1;
#X connect 2 0 3 0;
#X connect 3 0 8 0;
#X connect 3 0 9 0;
#X connect 4 0 15 0;
#X connect 5 0 11 0;
#X connect 6 0 13 0;
#X connect 7 0 13 1;
#X connect 8 0 10 0;
#X connect 9 0 4 0;
#X connect 10 0 5 0;
#X connect 11 0 6 0;
#X connect 12 0 16 0;
#X connect 13 0 12 0;
#X connect 14 0 17 0;
#X connect 15 0 7 0;
#X connect 16 0 14 0;
#X restore 1306 1056 pd drunkNote;
#X obj 908 1101 ead~ 50 1000;
#X obj 1054 1100 ead~ 50 1000;
#X obj 1221 1094 ead~ 50 1000;
#X obj 1369 1095 ead~ 50 1000;
#X obj 817 618 tgl 15 0 empty empty empty 17 7 0 10 -262144 -1 -1 0
1;
#X obj 806 903 tgl 15 0 empty empty empty 17 7 0 10 -262144 -1 -1 0
1;
#X msg 843 255 1;
#X msg 813 255 0;
#X floatatom 825 285 5 0 0 0 - - -;
#X msg 909 257 1;
#X msg 879 256 0;
#X floatatom 891 286 5 0 0 0 - - -;
#X msg 979 255 1;
#X msg 949 255 0;
#X floatatom 961 285 5 0 0 0 - - -;
#X obj 812 234 bng 15 250 50 0 empty empty empty 17 7 0 10 -262144
-1 -1;
#X obj 871 236 bng 15 250 50 0 empty empty empty 17 7 0 10 -262144
-1 -1;
#X obj 913 237 bng 15 250 50 0 empty empty empty 17 7 0 10 -262144
-1 -1;
#X obj 998 237 bng 15 250 50 0 empty empty empty 17 7 0 10 -262144
-1 -1;
#X obj 958 235 bng 15 250 50 0 empty empty empty 17 7 0 10 -262144
-1 -1;
#X obj 865 199 random 4;
#X obj 865 216 select 0 1 2 3 4;
#X obj 919 986 metro 500;
#X obj 971 921 bng 15 250 50 0 empty empty empty 17 7 0 10 -262144
-1 -1;
#X obj 1214 990 metro 500;
#X obj 1266 925 bng 15 250 50 0 empty empty empty 17 7 0 10 -262144
-1 -1;
#X obj 461 209 bng 15 250 50 0 empty empty empty 17 7 0 10 -262144
-1 -1;
#X floatatom 423 182 5 0 0 0 - - -;
#X text 192 29 start me up;
#X obj 655 256 bng 15 250 50 0 empty empty empty 17 7 0 10 -262144
-1 -1;
#X msg 655 292 0;
#X text 633 234 all stop;
#X obj 556 34 bng 15 250 50 0 empty empty empty 17 7 0 10 -262144 -1
-1;
#X obj 628 34 bng 15 250 50 0 empty empty empty 17 7 0 10 -262144 -1
-1;
#X obj 645 54 delay 4000;
#X obj 697 35 bng 15 250 50 0 empty empty empty 17 7 0 10 -262144 -1
-1;
#X obj 737 118 delay 4000;
#X obj 739 68 bng 15 250 50 0 empty empty empty 17 7 0 10 -262144 -1
-1;
#X obj 576 53 delay 10000;
#X obj 971 962 + 800;
#X obj 971 939 random 1000;
#X obj 1266 943 random 1000;
#X obj 1266 966 + 800;
#X obj 1488 387 *~;
#X obj 1638 388 *~;
#X obj 1777 388 *~;
#X obj 1919 389 *~;
#X msg 1686 393 0.3;
#X obj 749 89 spigot;
#X obj 772 67 tgl 15 0 empty empty empty 17 7 0 10 -262144 -1 -1 0
1;
#X obj 496 31 bng 15 250 50 0 empty empty empty 17 7 0 10 -262144 -1
-1;
#X obj 414 52 delay 20000;
#X obj 497 51 delay 24000;
#X obj 269 30 bng 15 250 50 0 empty empty empty 17 7 0 10 -262144 -1
-1;
#X obj 495 211 bng 15 250 50 0 empty empty empty 17 7 0 10 -262144
-1 -1;
#X obj 530 211 bng 15 250 50 0 empty empty empty 17 7 0 10 -262144
-1 -1;
#X obj 1263 148 xfm~;
#X obj 1134 99 lop~ 1;
#X floatatom 1134 76 5 0 0 0 - - -;
#X obj 1126 34 random 1000;
#X obj 1130 55 + 1000;
#X obj 1217 101 lop~ 1;
#X floatatom 1217 78 5 0 0 0 - - -;
#X obj 1209 36 random 1000;
#X obj 1213 57 + 1000;
#X obj 1298 100 lop~ 1;
#X floatatom 1298 77 5 0 0 0 - - -;
#X obj 1290 35 random 1000;
#X obj 1294 56 + 1000;
#X obj 1375 101 lop~ 1;
#X floatatom 1375 78 5 0 0 0 - - -;
#X obj 1367 36 random 1000;
#X obj 1371 57 + 1000;
#X obj 1083 109 bng 15 250 50 0 empty empty empty 17 7 0 10 -262144
-1 -1;
#X obj 1257 175 *~;
#X obj 1229 226 throw~ left;
#X obj 1311 226 throw~ right;
#X text 33 206 uses a random walk algorithm from algorithmicmusic.com
;
#X obj 1243 194 freeverb~;
#X obj 1170 148 ead~ 1000 3000;
#X text 1119 177 horsey suprise;
#X text 1492 110 really gotta figure out how to make pentograms with
these;
#X obj 1617 74 bng 15 250 50 0 empty empty empty 17 7 0 10 -262144
-1 -1;
#X obj 1710 75 bng 15 250 50 0 empty empty empty 17 7 0 10 -262144
-1 -1;
#X obj 1802 76 bng 15 250 50 0 empty empty empty 17 7 0 10 -262144
-1 -1;
#X obj 1546 72 delay 3000;
#X obj 1639 73 delay 4000;
#X obj 1895 77 bng 15 250 50 0 empty empty empty 17 7 0 10 -262144
-1 -1;
#X obj 1700 178 bng 15 250 50 0 empty empty empty 17 7 0 10 -262144
-1 -1;
#X obj 527 245 delay 2000;
#X obj 470 90 delay 500;
#X text 1539 37 comment;
#X obj 1507 328 ead~ 4000 5000;
#X obj 1649 327 ead~ 4000 5000;
#X obj 1792 327 ead~ 4000 5000;
#X obj 1930 326 ead~ 4000 5000;
#X obj 1824 75 delay 4000;
#X obj 1731 74 delay 3000;
#X obj 1802 108 bng 15 250 50 0 empty empty empty 17 7 0 10 -262144
-1 -1;
#X obj 1895 109 bng 15 250 50 0 empty empty empty 17 7 0 10 -262144
-1 -1;
#X obj 1824 107 delay 4000;
#X obj 1731 106 delay 3000;
#X obj 1803 141 bng 15 250 50 0 empty empty empty 17 7 0 10 -262144
-1 -1;
#X obj 1732 139 delay 3000;
#X text 483 966 comment;
#X text 1117 280 comment;
#X text 69 10 welcome to the interaction zone!;
#X obj 1686 372 loadbang;
#X obj 461 183 select 6 14 16;
#X text 405 10;
#X connect 0 0 5 0;
#X connect 0 0 11 0;
#X connect 1 0 0 0;
#X connect 1 0 23 0;
#X connect 2 0 3 1;
#X connect 3 0 18 0;
#X connect 5 0 2 0;
#X connect 5 0 66 0;
#X connect 6 0 8 0;
#X connect 9 0 10 1;
#X connect 10 0 19 0;
#X connect 11 0 9 0;
#X connect 11 0 67 0;
#X connect 12 0 13 1;
#X connect 13 0 22 0;
#X connect 14 0 12 0;
#X connect 14 0 68 0;
#X connect 15 0 16 1;
#X connect 16 0 24 0;
#X connect 17 0 15 0;
#X connect 17 0 69 0;
#X connect 20 0 4 0;
#X connect 21 0 4 1;
#X connect 23 0 14 0;
#X connect 23 0 17 0;
#X connect 25 0 28 0;
#X connect 25 0 31 0;
#X connect 26 0 27 0;
#X connect 27 0 38 0;
#X connect 28 0 71 0;
#X connect 28 0 193 0;
#X connect 29 0 30 0;
#X connect 30 0 39 0;
#X connect 31 0 70 0;
#X connect 31 0 194 0;
#X connect 32 0 33 0;
#X connect 33 0 40 0;
#X connect 34 0 72 0;
#X connect 34 0 195 0;
#X connect 35 0 36 0;
#X connect 36 0 41 0;
#X connect 37 0 73 0;
#X connect 37 0 196 0;
#X connect 42 0 3 0;
#X connect 43 0 10 0;
#X connect 44 0 13 0;
#X connect 45 0 16 0;
#X connect 46 0 48 0;
#X connect 46 0 50 0;
#X connect 47 0 288 0;
#X connect 48 0 74 0;
#X connect 48 0 337 0;
#X connect 49 0 289 0;
#X connect 50 0 75 0;
#X connect 50 0 338 0;
#X connect 51 0 290 0;
#X connect 52 0 76 0;
#X connect 52 0 339 0;
#X connect 53 0 291 0;
#X connect 54 0 77 0;
#X connect 54 0 340 0;
#X connect 58 0 52 0;
#X connect 58 0 54 0;
#X connect 60 0 49 0;
#X connect 61 0 47 0;
#X connect 62 0 51 0;
#X connect 63 0 53 0;
#X connect 64 0 25 0;
#X connect 64 0 192 0;
#X connect 65 0 46 0;
#X connect 65 0 58 0;
#X connect 66 0 42 0;
#X connect 67 0 43 0;
#X connect 68 0 44 0;
#X connect 69 0 45 0;
#X connect 70 0 29 0;
#X connect 71 0 26 0;
#X connect 72 0 32 0;
#X connect 73 0 35 0;
#X connect 74 0 61 0;
#X connect 75 0 60 0;
#X connect 76 0 62 0;
#X connect 77 0 63 0;
#X connect 78 0 79 0;
#X connect 78 0 81 0;
#X connect 78 0 84 0;
#X connect 78 0 82 0;
#X connect 79 0 5 0;
#X connect 79 0 11 0;
#X connect 80 0 142 0;
#X connect 81 0 80 0;
#X connect 82 0 14 0;
#X connect 82 0 17 0;
#X connect 83 0 141 0;
#X connect 84 0 83 0;
#X connect 85 0 86 0;
#X connect 86 0 134 0;
#X connect 86 0 197 0;
#X connect 86 0 272 0;
#X connect 87 0 91 0;
#X connect 87 0 94 0;
#X connect 88 0 87 0;
#X connect 88 0 104 0;
#X connect 89 0 90 1;
#X connect 90 0 101 0;
#X connect 91 0 89 0;
#X connect 91 0 110 0;
#X connect 92 0 93 1;
#X connect 93 0 102 0;
#X connect 94 0 92 0;
#X connect 94 0 111 0;
#X connect 95 0 96 1;
#X connect 96 0 103 0;
#X connect 97 0 95 0;
#X connect 97 0 112 0;
#X connect 98 0 99 1;
#X connect 99 0 105 0;
#X connect 100 0 98 0;
#X connect 100 0 113 0;
#X connect 104 0 97 0;
#X connect 104 0 100 0;
#X connect 106 0 90 0;
#X connect 107 0 93 0;
#X connect 108 0 96 0;
#X connect 109 0 99 0;
#X connect 110 0 106 0;
#X connect 111 0 107 0;
#X connect 112 0 108 0;
#X connect 113 0 109 0;
#X connect 114 0 115 0;
#X connect 114 0 117 0;
#X connect 114 0 120 0;
#X connect 114 0 118 0;
#X connect 115 0 91 0;
#X connect 115 0 94 0;
#X connect 116 0 143 0;
#X connect 117 0 116 0;
#X connect 118 0 97 0;
#X connect 118 0 100 0;
#X connect 119 0 144 0;
#X connect 120 0 119 0;
#X connect 121 0 122 0;
#X connect 121 0 123 0;
#X connect 122 0 1 0;
#X connect 123 0 78 0;
#X connect 124 0 125 0;
#X connect 124 0 126 0;
#X connect 125 0 1 0;
#X connect 126 0 78 0;
#X connect 127 0 85 0;
#X connect 128 0 129 0;
#X connect 128 0 130 0;
#X connect 129 0 88 0;
#X connect 130 0 114 0;
#X connect 131 0 132 0;
#X connect 131 0 133 0;
#X connect 132 0 88 0;
#X connect 133 0 114 0;
#X connect 134 0 191 0;
#X connect 135 0 137 0;
#X connect 135 0 136 0;
#X connect 136 0 114 0;
#X connect 137 0 88 0;
#X connect 138 0 140 0;
#X connect 138 0 139 0;
#X connect 139 0 78 0;
#X connect 140 0 1 0;
#X connect 141 0 82 1;
#X connect 142 0 79 1;
#X connect 143 0 115 1;
#X connect 144 0 118 1;
#X connect 145 0 149 0;
#X connect 145 0 152 0;
#X connect 146 0 145 0;
#X connect 146 0 162 0;
#X connect 147 0 148 1;
#X connect 148 0 159 0;
#X connect 149 0 147 0;
#X connect 149 0 168 0;
#X connect 150 0 151 1;
#X connect 151 0 160 0;
#X connect 152 0 150 0;
#X connect 152 0 169 0;
#X connect 153 0 154 1;
#X connect 154 0 161 0;
#X connect 155 0 153 0;
#X connect 155 0 170 0;
#X connect 156 0 157 1;
#X connect 157 0 163 0;
#X connect 158 0 156 0;
#X connect 158 0 171 0;
#X connect 162 0 155 0;
#X connect 162 0 158 0;
#X connect 164 0 148 0;
#X connect 165 0 151 0;
#X connect 166 0 154 0;
#X connect 167 0 157 0;
#X connect 168 0 164 0;
#X connect 169 0 165 0;
#X connect 170 0 166 0;
#X connect 171 0 167 0;
#X connect 172 0 173 0;
#X connect 172 0 175 0;
#X connect 172 0 178 0;
#X connect 172 0 176 0;
#X connect 173 0 149 0;
#X connect 173 0 152 0;
#X connect 174 0 188 0;
#X connect 175 0 174 0;
#X connect 176 0 155 0;
#X connect 176 0 158 0;
#X connect 177 0 189 0;
#X connect 178 0 177 0;
#X connect 179 0 180 0;
#X connect 179 0 181 0;
#X connect 180 0 146 0;
#X connect 181 0 172 0;
#X connect 182 0 183 0;
#X connect 182 0 184 0;
#X connect 183 0 146 0;
#X connect 184 0 172 0;
#X connect 185 0 187 0;
#X connect 185 0 186 0;
#X connect 186 0 172 0;
#X connect 187 0 146 0;
#X connect 188 0 173 1;
#X connect 189 0 176 1;
#X connect 190 0 121 0;
#X connect 190 1 124 0;
#X connect 190 2 128 0;
#X connect 190 3 131 0;
#X connect 190 4 138 0;
#X connect 190 5 135 0;
#X connect 190 6 179 0;
#X connect 190 7 182 0;
#X connect 190 8 185 0;
#X connect 191 0 190 0;
#X connect 192 0 34 0;
#X connect 192 0 37 0;
#X connect 193 0 27 1;
#X connect 194 0 30 1;
#X connect 195 0 33 1;
#X connect 196 0 36 1;
#X connect 197 0 265 0;
#X connect 198 0 65 0;
#X connect 198 0 296 0;
#X connect 198 0 335 0;
#X connect 199 0 202 0;
#X connect 199 0 205 0;
#X connect 200 0 201 0;
#X connect 201 0 212 0;
#X connect 202 0 217 0;
#X connect 202 0 221 0;
#X connect 203 0 204 0;
#X connect 204 0 213 0;
#X connect 205 0 216 0;
#X connect 205 0 222 0;
#X connect 206 0 207 0;
#X connect 207 0 214 0;
#X connect 208 0 218 0;
#X connect 208 0 223 0;
#X connect 209 0 210 0;
#X connect 210 0 215 0;
#X connect 211 0 219 0;
#X connect 211 0 224 0;
#X connect 216 0 203 0;
#X connect 217 0 200 0;
#X connect 218 0 206 0;
#X connect 219 0 209 0;
#X connect 220 0 208 0;
#X connect 220 0 211 0;
#X connect 221 0 201 1;
#X connect 222 0 204 1;
#X connect 223 0 207 1;
#X connect 224 0 210 1;
#X connect 225 0 226 0;
#X connect 226 0 237 0;
#X connect 227 0 242 0;
#X connect 227 0 245 0;
#X connect 228 0 229 0;
#X connect 229 0 238 0;
#X connect 230 0 241 0;
#X connect 230 0 246 0;
#X connect 231 0 232 0;
#X connect 232 0 239 0;
#X connect 233 0 243 0;
#X connect 233 0 247 0;
#X connect 234 0 235 0;
#X connect 235 0 240 0;
#X connect 236 0 244 0;
#X connect 236 0 248 0;
#X connect 241 0 228 0;
#X connect 242 0 225 0;
#X connect 243 0 231 0;
#X connect 244 0 234 0;
#X connect 245 0 226 1;
#X connect 246 0 229 1;
#X connect 247 0 232 1;
#X connect 248 0 235 1;
#X connect 249 0 199 0;
#X connect 249 0 220 0;
#X connect 250 0 268 0;
#X connect 250 0 270 0;
#X connect 250 0 267 0;
#X connect 250 0 269 0;
#X connect 251 0 253 0;
#X connect 252 0 253 0;
#X connect 253 0 64 0;
#X connect 254 0 256 0;
#X connect 255 0 256 0;
#X connect 256 0 249 0;
#X connect 257 0 259 0;
#X connect 258 0 259 0;
#X connect 259 0 250 0;
#X connect 260 0 252 0;
#X connect 260 0 255 0;
#X connect 260 0 257 0;
#X connect 261 0 252 0;
#X connect 261 0 254 0;
#X connect 261 0 257 0;
#X connect 262 0 254 0;
#X connect 262 0 251 0;
#X connect 262 0 257 0;
#X connect 263 0 251 0;
#X connect 263 0 257 0;
#X connect 263 0 255 0;
#X connect 264 0 251 0;
#X connect 264 0 255 0;
#X connect 264 0 257 0;
#X connect 265 0 266 0;
#X connect 266 0 260 0;
#X connect 266 1 261 0;
#X connect 266 2 262 0;
#X connect 266 3 264 0;
#X connect 266 4 263 0;
#X connect 267 0 227 0;
#X connect 267 0 230 0;
#X connect 268 0 285 0;
#X connect 269 0 233 0;
#X connect 269 0 236 0;
#X connect 270 0 286 0;
#X connect 271 0 274 0;
#X connect 271 0 198 0;
#X connect 271 0 294 0;
#X connect 272 0 353 0;
#X connect 274 0 275 0;
#X connect 275 0 250 0;
#X connect 275 0 172 0;
#X connect 275 0 146 0;
#X connect 275 0 114 0;
#X connect 275 0 88 0;
#X connect 275 0 78 0;
#X connect 275 0 1 0;
#X connect 275 0 249 0;
#X connect 275 0 64 0;
#X connect 275 0 127 0;
#X connect 275 0 65 0;
#X connect 275 0 294 0;
#X connect 277 0 179 0;
#X connect 277 0 283 0;
#X connect 278 0 279 0;
#X connect 278 0 131 0;
#X connect 279 0 280 0;
#X connect 280 0 127 0;
#X connect 281 0 282 0;
#X connect 282 0 293 0;
#X connect 283 0 278 0;
#X connect 284 0 267 1;
#X connect 285 0 284 0;
#X connect 286 0 287 0;
#X connect 287 0 269 1;
#X connect 288 0 55 0;
#X connect 289 0 56 0;
#X connect 290 0 57 0;
#X connect 291 0 59 0;
#X connect 292 0 288 1;
#X connect 292 0 289 1;
#X connect 292 0 290 1;
#X connect 292 0 291 1;
#X connect 293 0 281 0;
#X connect 293 0 318 0;
#X connect 294 0 293 1;
#X connect 295 0 260 0;
#X connect 295 0 297 0;
#X connect 296 0 295 0;
#X connect 297 0 277 0;
#X connect 298 0 198 0;
#X connect 298 0 86 2;
#X connect 299 0 274 0;
#X connect 299 0 334 0;
#X connect 300 0 274 0;
#X connect 300 0 330 0;
#X connect 300 0 318 0;
#X connect 300 0 333 0;
#X connect 301 0 319 0;
#X connect 302 0 301 0;
#X connect 303 0 302 0;
#X connect 304 0 305 0;
#X connect 305 0 303 0;
#X connect 306 0 301 1;
#X connect 307 0 306 0;
#X connect 308 0 309 0;
#X connect 309 0 307 0;
#X connect 310 0 301 2;
#X connect 311 0 310 0;
#X connect 312 0 313 0;
#X connect 313 0 311 0;
#X connect 314 0 301 3;
#X connect 315 0 314 0;
#X connect 316 0 317 0;
#X connect 317 0 315 0;
#X connect 318 0 304 0;
#X connect 318 0 308 0;
#X connect 318 0 312 0;
#X connect 318 0 316 0;
#X connect 318 0 324 0;
#X connect 319 0 323 1;
#X connect 319 0 323 0;
#X connect 323 0 320 0;
#X connect 323 1 321 0;
#X connect 324 0 319 1;
#X connect 327 0 331 0;
#X connect 327 0 333 0;
#X connect 327 0 318 0;
#X connect 328 0 333 0;
#X connect 328 0 318 0;
#X connect 328 0 342 0;
#X connect 329 0 333 0;
#X connect 329 0 318 0;
#X connect 329 0 341 0;
#X connect 330 0 327 0;
#X connect 331 0 328 0;
#X connect 332 0 346 0;
#X connect 332 0 52 0;
#X connect 332 0 54 0;
#X connect 333 0 48 0;
#X connect 333 0 50 0;
#X connect 333 0 52 0;
#X connect 333 0 54 0;
#X connect 334 0 198 0;
#X connect 334 0 282 0;
#X connect 334 0 294 0;
#X connect 335 0 282 0;
#X connect 337 0 47 1;
#X connect 338 0 49 1;
#X connect 339 0 51 1;
#X connect 340 0 53 1;
#X connect 341 0 332 0;
#X connect 342 0 329 0;
#X connect 343 0 345 0;
#X connect 343 0 48 0;
#X connect 343 0 50 0;
#X connect 344 0 348 0;
#X connect 344 0 54 0;
#X connect 345 0 344 0;
#X connect 346 0 343 0;
#X connect 347 0 52 0;
#X connect 348 0 347 0;
#X connect 352 0 292 0;
#X connect 353 0 271 0;
#X connect 353 1 299 0;
#X connect 353 2 300 0;
