#N canvas 238 49 1988 1181 10;
#X obj 994 282 metro 666;
#X floatatom 1002 257 5 0 0 0 - - -;
#X floatatom 791 489 5 0 0 0 - - -;
#X floatatom 844 488 5 0 0 0 - - -;
#X floatatom 896 488 5 0 0 0 - - -;
#X floatatom 950 487 5 0 0 0 - - -;
#X obj 822 720 xfm~;
#X msg 953 563 type 0;
#X msg 953 597 type 1;
#X obj 792 519 lop~ 1;
#X obj 845 518 lop~ 1;
#X obj 897 518 lop~ 1;
#X obj 951 517 lop~ 1;
#X msg 954 629 reset;
#X obj 819 366 bng 15 250 50 0 empty empty empty 17 7 0 10 -262144
-1 -1;
#X obj 845 334 select 0 1 2 3;
#X obj 960 195 tgl 15 0 empty empty empty 17 7 0 10 -262144 -1 -1 0
1;
#X obj 861 368 bng 15 250 50 0 empty empty empty 17 7 0 10 -262144
-1 -1;
#X obj 902 368 bng 15 250 50 0 empty empty empty 17 7 0 10 -262144
-1 -1;
#X obj 941 367 bng 15 250 50 0 empty empty empty 17 7 0 10 -262144
-1 -1;
#X obj 846 306 counter 0 3;
#X obj 895 395 random 4000;
#X obj 914 418 random 4000;
#X obj 888 450 + 1000;
#X obj 944 453 + 1000;
#X obj 775 448 + 1000;
#X obj 831 451 + 1000;
#X obj 790 395 random 4000;
#X obj 796 421 random 4000;
#X floatatom 1024 491 5 0 0 0 - - -;
#X floatatom 1077 490 5 0 0 0 - - -;
#X floatatom 1129 490 5 0 0 0 - - -;
#X floatatom 1183 489 5 0 0 0 - - -;
#X obj 1144 701 xfm~;
#X msg 1018 563 type 0;
#X msg 1018 597 type 1;
#X obj 1025 521 lop~ 1;
#X obj 1078 520 lop~ 1;
#X obj 1130 520 lop~ 1;
#X obj 1184 519 lop~ 1;
#X msg 1019 629 reset;
#X obj 1052 368 bng 15 250 50 0 empty empty empty 17 7 0 10 -262144
-1 -1;
#X obj 1078 336 select 0 1 2 3;
#X obj 1094 370 bng 15 250 50 0 empty empty empty 17 7 0 10 -262144
-1 -1;
#X obj 1135 370 bng 15 250 50 0 empty empty empty 17 7 0 10 -262144
-1 -1;
#X obj 1174 369 bng 15 250 50 0 empty empty empty 17 7 0 10 -262144
-1 -1;
#X obj 1079 308 counter 0 3;
#X obj 1128 397 random 4000;
#X obj 1147 420 random 4000;
#X obj 1121 452 + 1000;
#X obj 1177 455 + 1000;
#X obj 1008 450 + 1000;
#X obj 1064 453 + 1000;
#X obj 1023 397 random 4000;
#X obj 1029 423 random 4000;
#X obj 1333 439 loadbang;
#X floatatom 1334 500 5 0 0 0 - - -;
#X obj 1295 573 del 3;
#X obj 1276 525 bng 15 250 50 0 empty empty empty 17 7 0 10 -262144
-1 -1;
#X msg 1294 605 0;
#X obj 953 877 ezoutput~;
#X msg 1276 641 1;
#X obj 1226 664 *~;
#X obj 1405 603 biquad~ 0 0 0 0 1;
#X obj 1356 629 *~ 0.5;
#X obj 1405 628 *~ 0.5;
#X obj 1380 666 +~;
#X obj 1374 713 *~ 0.99;
#X floatatom 1451 677 5 0 0 0 - - -;
#X obj 567 441 loadbang;
#X msg 567 472 14;
#X floatatom 568 502 5 0 0 0 - - -;
#X obj 695 591 del 3;
#X obj 676 543 bng 15 250 50 0 empty empty empty 17 7 0 10 -262144
-1 -1;
#X msg 694 623 0;
#X msg 676 659 1;
#X obj 555 609 biquad~ 0 0 0 0 1;
#X obj 506 635 *~ 0.5;
#X obj 555 634 *~ 0.5;
#X obj 530 672 +~;
#X obj 524 719 *~ 0.99;
#X floatatom 598 719 5 0 0 0 - - -;
#X obj 733 701 *~;
#X obj 691 476 random 3;
#X obj 1436 481 random 3;
#X obj 992 207 loadbang;
#X text 926 732 lay down your false idols;
#X text 951 758 for i am your god;
#X msg 572 691 0.99;
#X obj 1407 460 metro 300;
#X obj 953 103 bng 15 250 50 0 empty empty empty 17 7 0 10 -262144
-1 -1;
#X msg 1002 231 666;
#X text 858 46 fuck it up;
#X obj 662 455 metro 400;
#X obj 299 643 loadbang;
#X floatatom 300 704 5 0 0 0 - - -;
#X obj 427 793 del 3;
#X obj 503 771 bng 15 250 50 0 empty empty empty 17 7 0 10 -262144
-1 -1;
#X msg 426 825 0;
#X msg 408 861 1;
#X obj 287 811 biquad~ 0 0 0 0 1;
#X obj 238 837 *~ 0.5;
#X obj 287 836 *~ 0.5;
#X obj 262 874 +~;
#X obj 256 921 *~ 0.99;
#X floatatom 330 921 5 0 0 0 - - -;
#X obj 524 896 *~;
#X obj 423 678 random 3;
#X msg 304 893 0.99;
#X obj 394 698 counter 1 300;
#X obj 1605 652 loadbang;
#X floatatom 1606 713 5 0 0 0 - - -;
#X obj 1567 786 del 3;
#X obj 1510 800 bng 15 250 50 0 empty empty empty 17 7 0 10 -262144
-1 -1;
#X msg 1566 818 0;
#X msg 1548 854 1;
#X obj 1498 877 *~;
#X obj 1677 816 biquad~ 0 0 0 0 1;
#X obj 1628 842 *~ 0.5;
#X obj 1677 841 *~ 0.5;
#X obj 1652 879 +~;
#X obj 1646 926 *~ 0.99;
#X floatatom 1723 890 5 0 0 0 - - -;
#X obj 1708 694 random 3;
#X obj 884 78 tgl 15 0 empty empty empty 17 7 0 10 -262144 -1 -1 0
1;
#X obj 985 104 bng 15 250 50 0 empty empty empty 17 7 0 10 -262144
-1 -1;
#X obj 968 147 tgl 15 0 empty empty empty 17 7 0 10 -262144 -1 -1 0
1;
#X obj 282 775 vd~ buffer1L 100;
#X obj 340 976 delwrite~ buffer1L 1000;
#X obj 550 573 vd~ buffer2L 100;
#X obj 608 774 delwrite~ buffer2L 1000;
#X obj 1672 780 vd~ buffer3R 100;
#X obj 1606 977 delwrite~ buffer3R 1000;
#X obj 1396 746 delwrite~ buffer4R 1000;
#X obj 1400 567 vd~ buffer4R 100;
#X obj 1080 199 tgl 15 0 empty empty empty 17 7 0 10 -262144 -1 -1
0 1;
#X obj 1076 148 tgl 15 0 empty empty empty 17 7 0 10 -262144 -1 -1
0 1;
#X obj 1019 104 bng 15 250 50 0 empty empty empty 17 7 0 10 -262144
-1 -1;
#X obj 1049 104 bng 15 250 50 0 empty empty empty 17 7 0 10 -262144
-1 -1;
#X obj 1081 105 bng 15 250 50 0 empty empty empty 17 7 0 10 -262144
-1 -1;
#X obj 1112 103 bng 15 250 50 0 empty empty empty 17 7 0 10 -262144
-1 -1;
#X obj 854 138 counter 0 5;
#X obj 972 63 select 0 1 2 3 4 5;
#X obj 394 657 metro 100;
#X obj 1679 713 counter 50 300;
#X obj 662 496 counter 1 20;
#X obj 1407 500 counter 1 40;
#X obj 1679 673 metro 130;
#X obj 1158 79 bng 15 250 50 0 empty empty empty 17 7 0 10 -262144
-1 -1;
#X msg 1159 107 0;
#X floatatom 1159 134 5 0 0 0 - - -;
#X text 1158 47 make it stop;
#X obj 1139 171 bng 15 250 50 0 empty empty empty 17 7 0 10 -262144
-1 -1;
#X text 1157 170 full reset;
#X obj 896 836 foldback~ -0.5 0.5;
#X obj 1021 836 foldback~ -0.5 0.5;
#X obj 855 110 metro 20000;
#X msg 1333 470 6;
#X msg 300 674 70;
#X msg 1605 683 60;
#X connect 0 0 20 0;
#X connect 0 0 46 0;
#X connect 0 0 73 0;
#X connect 0 0 58 0;
#X connect 0 0 97 0;
#X connect 0 0 113 0;
#X connect 1 0 0 0;
#X connect 2 0 9 0;
#X connect 3 0 10 0;
#X connect 4 0 11 0;
#X connect 5 0 12 0;
#X connect 6 0 82 0;
#X connect 6 0 106 0;
#X connect 7 0 6 0;
#X connect 8 0 6 0;
#X connect 9 0 6 0;
#X connect 10 0 6 1;
#X connect 11 0 6 2;
#X connect 12 0 6 3;
#X connect 13 0 6 0;
#X connect 14 0 27 0;
#X connect 15 0 14 0;
#X connect 15 1 17 0;
#X connect 15 2 18 0;
#X connect 15 3 19 0;
#X connect 16 0 93 0;
#X connect 17 0 28 0;
#X connect 18 0 21 0;
#X connect 19 0 22 0;
#X connect 20 0 15 0;
#X connect 21 0 23 0;
#X connect 22 0 24 0;
#X connect 23 0 4 0;
#X connect 24 0 5 0;
#X connect 25 0 2 0;
#X connect 26 0 3 0;
#X connect 27 0 25 0;
#X connect 28 0 26 0;
#X connect 29 0 36 0;
#X connect 30 0 37 0;
#X connect 31 0 38 0;
#X connect 32 0 39 0;
#X connect 33 0 62 0;
#X connect 33 0 116 0;
#X connect 34 0 33 0;
#X connect 35 0 33 0;
#X connect 36 0 33 0;
#X connect 37 0 33 1;
#X connect 38 0 33 2;
#X connect 39 0 33 3;
#X connect 40 0 33 0;
#X connect 41 0 53 0;
#X connect 42 0 41 0;
#X connect 42 1 43 0;
#X connect 42 2 44 0;
#X connect 42 3 45 0;
#X connect 43 0 54 0;
#X connect 44 0 47 0;
#X connect 45 0 48 0;
#X connect 46 0 42 0;
#X connect 47 0 49 0;
#X connect 48 0 50 0;
#X connect 49 0 31 0;
#X connect 50 0 32 0;
#X connect 51 0 29 0;
#X connect 52 0 30 0;
#X connect 53 0 51 0;
#X connect 54 0 52 0;
#X connect 55 0 157 0;
#X connect 56 0 57 1;
#X connect 56 0 58 0;
#X connect 56 0 134 0;
#X connect 57 0 59 0;
#X connect 58 0 57 0;
#X connect 58 0 61 0;
#X connect 59 0 62 1;
#X connect 61 0 62 1;
#X connect 62 0 133 0;
#X connect 63 0 65 0;
#X connect 64 0 66 0;
#X connect 65 0 66 1;
#X connect 66 0 67 0;
#X connect 67 0 133 0;
#X connect 67 0 155 0;
#X connect 68 0 67 1;
#X connect 69 0 70 0;
#X connect 70 0 71 0;
#X connect 71 0 72 1;
#X connect 71 0 73 0;
#X connect 71 0 129 0;
#X connect 72 0 74 0;
#X connect 73 0 72 0;
#X connect 73 0 75 0;
#X connect 74 0 82 1;
#X connect 75 0 82 1;
#X connect 76 0 78 0;
#X connect 77 0 79 0;
#X connect 78 0 79 1;
#X connect 79 0 80 0;
#X connect 80 0 130 0;
#X connect 80 0 154 0;
#X connect 81 0 80 1;
#X connect 82 0 130 0;
#X connect 83 0 145 1;
#X connect 84 0 146 1;
#X connect 85 0 91 0;
#X connect 88 0 81 0;
#X connect 89 0 84 0;
#X connect 89 0 146 0;
#X connect 90 0 16 0;
#X connect 90 0 135 0;
#X connect 91 0 1 0;
#X connect 93 0 83 0;
#X connect 93 0 145 0;
#X connect 94 0 158 0;
#X connect 95 0 96 1;
#X connect 95 0 97 0;
#X connect 95 0 127 0;
#X connect 96 0 98 0;
#X connect 97 0 96 0;
#X connect 97 0 99 0;
#X connect 98 0 106 1;
#X connect 99 0 106 1;
#X connect 100 0 102 0;
#X connect 101 0 103 0;
#X connect 102 0 103 1;
#X connect 103 0 104 0;
#X connect 104 0 128 0;
#X connect 104 0 154 0;
#X connect 105 0 104 1;
#X connect 106 0 128 0;
#X connect 107 0 109 1;
#X connect 108 0 105 0;
#X connect 109 0 95 0;
#X connect 110 0 159 0;
#X connect 111 0 112 1;
#X connect 111 0 113 0;
#X connect 111 0 131 0;
#X connect 112 0 114 0;
#X connect 113 0 112 0;
#X connect 113 0 115 0;
#X connect 114 0 116 1;
#X connect 115 0 116 1;
#X connect 116 0 132 0;
#X connect 117 0 119 0;
#X connect 118 0 120 0;
#X connect 119 0 120 1;
#X connect 120 0 121 0;
#X connect 121 0 132 0;
#X connect 121 0 155 0;
#X connect 122 0 121 1;
#X connect 123 0 144 1;
#X connect 124 0 0 0;
#X connect 124 0 156 0;
#X connect 125 0 126 0;
#X connect 125 0 136 0;
#X connect 126 0 143 0;
#X connect 127 0 100 0;
#X connect 127 0 101 0;
#X connect 129 0 76 0;
#X connect 129 0 77 0;
#X connect 131 0 117 0;
#X connect 131 0 118 0;
#X connect 134 0 63 0;
#X connect 134 0 64 0;
#X connect 135 0 89 0;
#X connect 136 0 147 0;
#X connect 137 0 16 0;
#X connect 138 0 135 0;
#X connect 139 0 126 0;
#X connect 140 0 136 0;
#X connect 141 0 142 0;
#X connect 142 0 90 0;
#X connect 142 1 125 0;
#X connect 142 2 137 0;
#X connect 142 3 138 0;
#X connect 142 4 139 0;
#X connect 142 5 140 0;
#X connect 143 0 107 0;
#X connect 143 0 109 0;
#X connect 144 0 111 0;
#X connect 145 0 71 0;
#X connect 146 0 56 0;
#X connect 147 0 123 0;
#X connect 147 0 144 0;
#X connect 148 0 149 0;
#X connect 149 0 150 0;
#X connect 150 0 124 0;
#X connect 150 0 136 0;
#X connect 150 0 135 0;
#X connect 150 0 16 0;
#X connect 150 0 126 0;
#X connect 152 0 69 0;
#X connect 152 0 94 0;
#X connect 152 0 55 0;
#X connect 152 0 110 0;
#X connect 152 0 148 0;
#X connect 154 0 60 0;
#X connect 155 0 60 1;
#X connect 156 0 141 0;
#X connect 157 0 56 0;
#X connect 158 0 95 0;
#X connect 159 0 111 0;
