#N canvas 258 33 2070 1083 10;
#X obj 841 416 xfm~;
#X obj 712 367 lop~ 1;
#X floatatom 712 344 5 0 0 0 - - -;
#X obj 704 302 random 1000;
#X obj 708 323 + 1000;
#X obj 795 369 lop~ 1;
#X floatatom 795 346 5 0 0 0 - - -;
#X obj 787 304 random 1000;
#X obj 791 325 + 1000;
#X obj 876 368 lop~ 1;
#X floatatom 876 345 5 0 0 0 - - -;
#X obj 868 303 random 1000;
#X obj 872 324 + 1000;
#X obj 953 369 lop~ 1;
#X floatatom 953 346 5 0 0 0 - - -;
#X obj 945 304 random 1000;
#X obj 949 325 + 1000;
#X obj 696 280 bng 15 250 50 0 empty empty empty 17 7 0 10 -262144
-1 -1;
#X obj 705 486 freeverb~;
#X obj 790 278 bng 15 250 50 0 empty empty empty 17 7 0 10 -262144
-1 -1;
#X obj 889 273 bng 15 250 50 0 empty empty empty 17 7 0 10 -262144
-1 -1;
#X obj 986 274 bng 15 250 50 0 empty empty empty 17 7 0 10 -262144
-1 -1;
#X obj 827 201 metro 500;
#X obj 827 222 counter 3;
#X obj 826 243 select 0 1 2 3;
#X obj 707 141 tgl 15 0 empty empty empty 17 7 0 10 -262144 -1 -1 0
1;
#X obj 1181 409 xfm~;
#X obj 1052 360 lop~ 1;
#X floatatom 1052 337 5 0 0 0 - - -;
#X obj 1044 295 random 1000;
#X obj 1135 362 lop~ 1;
#X floatatom 1135 339 5 0 0 0 - - -;
#X obj 1127 297 random 1000;
#X obj 1216 361 lop~ 1;
#X floatatom 1216 338 5 0 0 0 - - -;
#X obj 1208 296 random 1000;
#X obj 1293 362 lop~ 1;
#X floatatom 1293 339 5 0 0 0 - - -;
#X obj 1285 297 random 1000;
#X obj 1036 273 bng 15 250 50 0 empty empty empty 17 7 0 10 -262144
-1 -1;
#X obj 1130 271 bng 15 250 50 0 empty empty empty 17 7 0 10 -262144
-1 -1;
#X obj 1229 266 bng 15 250 50 0 empty empty empty 17 7 0 10 -262144
-1 -1;
#X obj 1326 267 bng 15 250 50 0 empty empty empty 17 7 0 10 -262144
-1 -1;
#X obj 1167 215 counter 3;
#X obj 1166 236 select 0 1 2 3;
#X obj 1048 316 + 500;
#X obj 1131 318 + 500;
#X obj 1212 317 + 500;
#X obj 1289 318 + 500;
#X obj 1222 469 freeverb~;
#X obj 1167 194 metro 300;
#X obj 1212 522 throw~ right;
#X obj 785 527 throw~ left;
#X obj 141 436 catch~ left;
#X obj 241 441 catch~ right;
#X obj 1520 406 xfm~;
#X obj 1391 357 lop~ 1;
#X floatatom 1391 334 5 0 0 0 - - -;
#X obj 1383 292 random 1000;
#X obj 1474 359 lop~ 1;
#X floatatom 1474 336 5 0 0 0 - - -;
#X obj 1466 294 random 1000;
#X obj 1555 358 lop~ 1;
#X floatatom 1555 335 5 0 0 0 - - -;
#X obj 1547 293 random 1000;
#X obj 1632 359 lop~ 1;
#X floatatom 1632 336 5 0 0 0 - - -;
#X obj 1624 294 random 1000;
#X obj 1375 270 bng 15 250 50 0 empty empty empty 17 7 0 10 -262144
-1 -1;
#X obj 1384 476 freeverb~;
#X obj 1469 268 bng 15 250 50 0 empty empty empty 17 7 0 10 -262144
-1 -1;
#X obj 1568 263 bng 15 250 50 0 empty empty empty 17 7 0 10 -262144
-1 -1;
#X obj 1665 264 bng 15 250 50 0 empty empty empty 17 7 0 10 -262144
-1 -1;
#X obj 1506 212 counter 3;
#X obj 1505 233 select 0 1 2 3;
#X obj 1860 399 xfm~;
#X obj 1731 350 lop~ 1;
#X floatatom 1731 327 5 0 0 0 - - -;
#X obj 1723 285 random 1000;
#X obj 1814 352 lop~ 1;
#X floatatom 1814 329 5 0 0 0 - - -;
#X obj 1806 287 random 1000;
#X obj 1895 351 lop~ 1;
#X floatatom 1895 328 5 0 0 0 - - -;
#X obj 1887 286 random 1000;
#X obj 1972 352 lop~ 1;
#X floatatom 1972 329 5 0 0 0 - - -;
#X obj 1964 287 random 1000;
#X obj 1715 263 bng 15 250 50 0 empty empty empty 17 7 0 10 -262144
-1 -1;
#X obj 1809 261 bng 15 250 50 0 empty empty empty 17 7 0 10 -262144
-1 -1;
#X obj 1908 256 bng 15 250 50 0 empty empty empty 17 7 0 10 -262144
-1 -1;
#X obj 2005 257 bng 15 250 50 0 empty empty empty 17 7 0 10 -262144
-1 -1;
#X obj 1846 205 counter 3;
#X obj 1845 226 select 0 1 2 3;
#X obj 1901 459 freeverb~;
#X obj 1791 510 throw~ left;
#X obj 1891 512 throw~ right;
#X obj 1464 517 throw~ left;
#X obj 1564 519 throw~ right;
#X obj 1387 313 + 0;
#X obj 1470 315 + 0;
#X obj 1551 314 + 0;
#X obj 1628 315 + 0;
#X obj 1727 306 + 2000;
#X obj 1810 308 + 2000;
#X obj 1891 307 + 2000;
#X obj 1968 308 + 2000;
#X obj 1506 191 metro 150;
#X obj 1846 184 metro 750;
#X obj 132 465 pan~ 0;
#X obj 228 480 pan~ 0;
#X floatatom 65 442 5 0 0 0 - - -;
#X floatatom 332 443 5 0 0 0 - - -;
#X obj 65 352 transient~ 1 0.1;
#X obj 65 380 snaps~;
#X floatatom 65 300 5 0 0 0 - - -;
#X obj 65 326 osc~;
#X obj 272 353 transient~ 1 0.1;
#X obj 272 381 snaps~;
#X floatatom 272 300 5 0 0 0 - - -;
#X obj 272 326 osc~;
#X obj 272 406 autoscale -30 30;
#X obj 65 413 autoscale -30 30;
#X obj 505 338 delay;
#X obj 504 255 random 4000;
#X floatatom 504 311 5 0 0 0 - - -;
#X obj 505 393 counter 1;
#X obj 505 420 select 0 1;
#X obj 451 317 bng 15 250 50 0 empty empty empty 17 7 0 10 -262144
-1 -1;
#X obj 463 366 t b b;
#X msg 506 456 0;
#X msg 547 454 1;
#X obj 504 283 + 500;
#X obj 250 511 foldback~ -0.5 0.5;
#X obj 89 511 foldback~ -0.5 0.5;
#X msg 272 276 0.6;
#X msg 65 276 1.3;
#X obj 1175 436 *~ 0.9;
#X obj 835 443 *~ 0.9;
#X obj 1514 433 *~ 0.9;
#X obj 1854 426 *~ 0.9;
#X obj 454 339 spigot;
#X obj 479 259 tgl 15 0 empty empty empty 17 7 0 10 -262144 -1 -1 0
1;
#X obj 450 149 bng 30 250 50 0 empty empty empty 17 7 0 10 -257985
-1 -1;
#X msg 450 191 0;
#X obj 404 149 bng 30 250 50 0 empty empty empty 17 7 0 10 -4034 -1
-1;
#X msg 449 218 1;
#X obj 404 206 t b b;
#X obj 161 221 loadbang;
#X obj 191 245 delay 300;
#X obj 151 625 ezoutput~;
#X obj 495 148 bng 30 250 50 0 empty empty empty 17 7 0 10 -258113
-1 -1;
#X msg 494 191 0;
#X obj 495 218 s reset;
#X obj 712 196 r reset;
#X obj 1052 193 r reset;
#X obj 1391 193 r reset;
#X obj 1731 194 r reset;
#X obj 707 111 r reset;
#X obj 141 582 *~;
#X obj 187 582 *~;
#X msg 471 577 0;
#X obj 367 606 line~;
#X obj 471 554 loadbang;
#X msg 420 576 0 5000;
#X msg 368 576 1 5000;
#X connect 0 0 138 0;
#X connect 1 0 0 0;
#X connect 2 0 1 0;
#X connect 3 0 4 0;
#X connect 4 0 2 0;
#X connect 5 0 0 1;
#X connect 6 0 5 0;
#X connect 7 0 8 0;
#X connect 8 0 6 0;
#X connect 9 0 0 2;
#X connect 10 0 9 0;
#X connect 11 0 12 0;
#X connect 12 0 10 0;
#X connect 13 0 0 3;
#X connect 14 0 13 0;
#X connect 15 0 16 0;
#X connect 16 0 14 0;
#X connect 17 0 3 0;
#X connect 18 0 52 0;
#X connect 18 1 52 0;
#X connect 19 0 7 0;
#X connect 20 0 11 0;
#X connect 21 0 15 0;
#X connect 22 0 23 0;
#X connect 23 0 24 0;
#X connect 24 0 17 0;
#X connect 24 1 19 0;
#X connect 24 2 20 0;
#X connect 24 3 21 0;
#X connect 25 0 22 0;
#X connect 25 0 50 0;
#X connect 25 0 107 0;
#X connect 25 0 108 0;
#X connect 26 0 137 0;
#X connect 27 0 26 0;
#X connect 28 0 27 0;
#X connect 29 0 45 0;
#X connect 30 0 26 1;
#X connect 31 0 30 0;
#X connect 32 0 46 0;
#X connect 33 0 26 2;
#X connect 34 0 33 0;
#X connect 35 0 47 0;
#X connect 36 0 26 3;
#X connect 37 0 36 0;
#X connect 38 0 48 0;
#X connect 39 0 29 0;
#X connect 40 0 32 0;
#X connect 41 0 35 0;
#X connect 42 0 38 0;
#X connect 43 0 44 0;
#X connect 44 0 39 0;
#X connect 44 1 40 0;
#X connect 44 2 41 0;
#X connect 44 3 42 0;
#X connect 45 0 28 0;
#X connect 46 0 31 0;
#X connect 47 0 34 0;
#X connect 48 0 37 0;
#X connect 49 0 51 0;
#X connect 49 1 51 0;
#X connect 50 0 43 0;
#X connect 53 0 109 0;
#X connect 54 0 110 0;
#X connect 55 0 139 0;
#X connect 56 0 55 0;
#X connect 57 0 56 0;
#X connect 58 0 99 0;
#X connect 59 0 55 1;
#X connect 60 0 59 0;
#X connect 61 0 100 0;
#X connect 62 0 55 2;
#X connect 63 0 62 0;
#X connect 64 0 101 0;
#X connect 65 0 55 3;
#X connect 66 0 65 0;
#X connect 67 0 102 0;
#X connect 68 0 58 0;
#X connect 69 0 97 0;
#X connect 69 1 98 0;
#X connect 70 0 61 0;
#X connect 71 0 64 0;
#X connect 72 0 67 0;
#X connect 73 0 74 0;
#X connect 74 0 68 0;
#X connect 74 1 70 0;
#X connect 74 2 71 0;
#X connect 74 3 72 0;
#X connect 75 0 140 0;
#X connect 76 0 75 0;
#X connect 77 0 76 0;
#X connect 78 0 103 0;
#X connect 79 0 75 1;
#X connect 80 0 79 0;
#X connect 81 0 104 0;
#X connect 82 0 75 2;
#X connect 83 0 82 0;
#X connect 84 0 105 0;
#X connect 85 0 75 3;
#X connect 86 0 85 0;
#X connect 87 0 106 0;
#X connect 88 0 78 0;
#X connect 89 0 81 0;
#X connect 90 0 84 0;
#X connect 91 0 87 0;
#X connect 92 0 93 0;
#X connect 93 0 88 0;
#X connect 93 1 89 0;
#X connect 93 2 90 0;
#X connect 93 3 91 0;
#X connect 94 0 95 0;
#X connect 94 1 96 0;
#X connect 99 0 57 0;
#X connect 100 0 60 0;
#X connect 101 0 63 0;
#X connect 102 0 66 0;
#X connect 103 0 77 0;
#X connect 104 0 80 0;
#X connect 105 0 83 0;
#X connect 106 0 86 0;
#X connect 107 0 73 0;
#X connect 108 0 92 0;
#X connect 109 0 159 0;
#X connect 109 1 134 0;
#X connect 110 0 160 0;
#X connect 110 1 133 0;
#X connect 111 0 109 1;
#X connect 112 0 110 1;
#X connect 113 0 114 0;
#X connect 114 0 122 0;
#X connect 115 0 116 0;
#X connect 116 0 113 0;
#X connect 117 0 118 0;
#X connect 118 0 121 0;
#X connect 119 0 120 0;
#X connect 120 0 117 0;
#X connect 121 0 112 0;
#X connect 122 0 111 0;
#X connect 123 0 128 0;
#X connect 124 0 132 0;
#X connect 125 0 123 1;
#X connect 126 0 127 0;
#X connect 127 0 130 0;
#X connect 127 1 131 0;
#X connect 128 0 141 0;
#X connect 129 0 123 0;
#X connect 129 1 124 0;
#X connect 129 1 126 0;
#X connect 130 0 25 0;
#X connect 131 0 25 0;
#X connect 132 0 125 0;
#X connect 133 0 160 0;
#X connect 134 0 159 0;
#X connect 135 0 119 0;
#X connect 136 0 115 0;
#X connect 137 0 49 0;
#X connect 137 0 49 1;
#X connect 137 0 51 0;
#X connect 138 0 18 1;
#X connect 138 0 18 0;
#X connect 138 0 52 0;
#X connect 139 0 69 1;
#X connect 139 0 69 0;
#X connect 139 0 97 0;
#X connect 139 0 98 0;
#X connect 140 0 94 0;
#X connect 140 0 94 1;
#X connect 140 0 95 0;
#X connect 140 0 96 0;
#X connect 141 0 129 0;
#X connect 142 0 141 1;
#X connect 143 0 144 0;
#X connect 143 0 164 0;
#X connect 144 0 142 0;
#X connect 145 0 147 0;
#X connect 145 0 165 0;
#X connect 146 0 142 0;
#X connect 147 0 128 0;
#X connect 147 1 146 0;
#X connect 148 0 149 0;
#X connect 148 0 136 0;
#X connect 149 0 135 0;
#X connect 151 0 152 0;
#X connect 151 0 161 0;
#X connect 152 0 153 0;
#X connect 152 0 142 0;
#X connect 154 0 2 0;
#X connect 154 0 6 0;
#X connect 154 0 10 0;
#X connect 154 0 14 0;
#X connect 155 0 28 0;
#X connect 155 0 31 0;
#X connect 155 0 34 0;
#X connect 155 0 37 0;
#X connect 156 0 57 0;
#X connect 156 0 60 0;
#X connect 156 0 63 0;
#X connect 156 0 66 0;
#X connect 157 0 77 0;
#X connect 157 0 80 0;
#X connect 157 0 83 0;
#X connect 157 0 86 0;
#X connect 158 0 25 0;
#X connect 159 0 150 0;
#X connect 160 0 150 1;
#X connect 161 0 162 0;
#X connect 162 0 160 1;
#X connect 162 0 159 1;
#X connect 163 0 161 0;
#X connect 164 0 162 0;
#X connect 165 0 162 0;
