#N canvas 150 461 983 436 10;
#X obj 249 54 tgl 15 0 empty empty empty 17 7 0 10 -262144 -1 -1 0
1;
#X obj 406 310 table rotationState;
#X floatatom 80 366 5 0 0 0 - - -, f 5;
#X msg 80 344 5;
#X obj 193 81 metro 50, f 9;
#X obj 80 295 loadbang;
#X obj 266 82 s updateOn, f 11;
#X floatatom 253 371 5 0 0 0 - - -, f 5;
#X obj 253 300 loadbang;
#X obj 80 317 t b b;
#X obj 253 322 t b b;
#X obj 193 103 t b b, f 6;
#X text 206 249 movement input manager;
#X text 18 252 rotation input manager;
#X obj 220 127 s inputFrame;
#X obj 193 148 s updateFrame;
#N canvas 216 559 412 529 rotUpdate 0;
#X obj 54 57 r updateFrame;
#X msg 199 127 1;
#X obj 199 149 tabread rotationState;
#X msg 54 177 3;
#X obj 54 199 tabread rotationState;
#X obj 54 79 t b b;
#X obj 54 264 +;
#X obj 54 358 t f b;
#X obj 54 421 tabwrite rotationState;
#X msg 81 378 3;
#X floatatom 54 401 5 0 0 0 - - -, f 5;
#X obj 54 241 % 360;
#X obj 54 154 spigot;
#X obj 199 222 tgl 15 0 empty empty empty 17 7 0 10 -262144 -1 -1 0
1;
#X obj 199 175 select 0;
#X msg 199 197 0;
#X msg 244 199 1;
#X obj 54 220 + 360;
#X obj 196 358 t f b;
#X obj 196 421 tabwrite rotationState;
#X floatatom 196 401 5 0 0 0 - - -, f 5;
#X msg 223 378 4;
#X obj 196 293 / 360;
#X obj 196 315 * 6.28319;
#X text 196 446 rotation in rads;
#X text 51 448 rotation in degrees;
#X obj 196 337 - 3.14159;
#X connect 0 0 5 0;
#X connect 1 0 2 0;
#X connect 2 0 6 1;
#X connect 2 0 14 0;
#X connect 3 0 4 0;
#X connect 4 0 17 0;
#X connect 5 0 12 0;
#X connect 5 1 1 0;
#X connect 6 0 7 0;
#X connect 6 0 22 0;
#X connect 7 0 10 0;
#X connect 7 1 9 0;
#X connect 9 0 8 1;
#X connect 10 0 8 0;
#X connect 11 0 6 0;
#X connect 12 0 3 0;
#X connect 13 0 12 1;
#X connect 14 0 15 0;
#X connect 14 1 16 0;
#X connect 15 0 13 0;
#X connect 16 0 13 0;
#X connect 17 0 11 0;
#X connect 18 0 20 0;
#X connect 18 1 21 0;
#X connect 20 0 19 0;
#X connect 21 0 19 1;
#X connect 22 0 23 0;
#X connect 23 0 26 0;
#X connect 26 0 18 0;
#X restore 406 363 pd rotUpdate;
#N canvas 1159 557 872 559 rotAccel 0;
#X obj 366 127 spigot;
#X obj 222 125 spigot;
#X text 224 58 a: rotate left;
#X text 363 59 d: rotate right;
#X obj 366 149 tgl 15 0 empty empty empty 17 7 0 10 -262144 -1 -1 0
1;
#X obj 222 147 tgl 15 0 empty empty empty 17 7 0 10 -262144 -1 -1 0
1;
#X obj 366 329 moses;
#X obj 366 191 spigot;
#X obj 366 356 + 1;
#X obj 366 444 tabwrite rotationState;
#X obj 366 379 t f b;
#X floatatom 366 425 5 0 0 0 - - -, f 5;
#X obj 220 192 spigot;
#X msg 393 401 1;
#X obj 220 330 moses;
#X obj 220 445 tabwrite rotationState;
#X obj 220 380 t f b;
#X floatatom 220 426 5 0 0 0 - - -, f 5;
#X msg 247 402 1;
#X obj 247 286 -;
#X msg 247 264 0;
#X obj 220 357 - 1;
#X obj 366 238 tabread rotationState;
#X obj 220 239 tabread rotationState;
#X msg 366 214 1;
#X msg 220 214 1;
#X obj 247 308 + 1;
#X obj 533 92 ||;
#X obj 533 70 t b f;
#X obj 522 236 spigot;
#X text 532 50 resets to 0;
#X obj 522 279 tabread rotationState;
#X msg 522 258 1;
#X obj 522 300 moses 0;
#X obj 522 444 tabwrite rotationState;
#X obj 522 379 t f b;
#X floatatom 522 425 5 0 0 0 - - -, f 5;
#X msg 549 401 1;
#X obj 558 356 - 1;
#X obj 522 356 + 1;
#X obj 533 112 - 1;
#X obj 533 132 abs;
#X obj 533 153 tgl 15 0 empty empty empty 17 7 0 10 -262144 -1 -1 0
1;
#X obj 561 321 moses 1;
#X obj 598 68 t b f;
#X obj 598 112 abs;
#X obj 598 90 &&;
#X obj 598 134 tgl 15 0 empty empty empty 17 7 0 10 -262144 -1 -1 0
1;
#X obj 555 153 t b f;
#X obj 555 175 ||;
#X obj 555 196 tgl 15 0 empty empty empty 17 7 0 10 -262144 -1 -1 0
1;
#X obj 399 104 r updateOn;
#X obj 255 104 r updateOn;
#X obj 101 264 loadbang;
#X obj 101 286 \$1;
#X floatatom 101 308 5 0 0 0 - - -, f 5;
#X obj 78 224 inlet;
#X obj 522 214 r inputFrame;
#X obj 366 169 r inputFrame;
#X obj 220 169 r inputFrame;
#X obj 222 81 keypress 100;
#X obj 366 83 keypress 97;
#X text 220 16 because of flipping x and y in movUpdate to make 0 vector
horizontal \, these keys inverted. Functions are counterintuitive but
work as intended;
#X connect 0 0 4 0;
#X connect 1 0 5 0;
#X connect 4 0 7 1;
#X connect 4 0 27 0;
#X connect 4 0 44 0;
#X connect 5 0 12 1;
#X connect 5 0 28 0;
#X connect 5 0 46 0;
#X connect 6 0 8 0;
#X connect 7 0 24 0;
#X connect 8 0 10 0;
#X connect 10 0 11 0;
#X connect 10 1 13 0;
#X connect 11 0 9 0;
#X connect 12 0 25 0;
#X connect 13 0 9 1;
#X connect 14 1 21 0;
#X connect 16 0 17 0;
#X connect 16 1 18 0;
#X connect 17 0 15 0;
#X connect 18 0 15 1;
#X connect 19 0 26 0;
#X connect 20 0 19 0;
#X connect 21 0 16 0;
#X connect 22 0 6 0;
#X connect 23 0 14 0;
#X connect 24 0 22 0;
#X connect 25 0 23 0;
#X connect 26 0 14 1;
#X connect 27 0 40 0;
#X connect 28 0 27 0;
#X connect 28 1 27 1;
#X connect 29 0 32 0;
#X connect 31 0 33 0;
#X connect 32 0 31 0;
#X connect 33 0 39 0;
#X connect 33 1 43 0;
#X connect 35 0 36 0;
#X connect 35 1 37 0;
#X connect 36 0 34 0;
#X connect 37 0 34 1;
#X connect 38 0 35 0;
#X connect 39 0 35 0;
#X connect 40 0 41 0;
#X connect 41 0 42 0;
#X connect 42 0 49 0;
#X connect 43 1 38 0;
#X connect 44 0 46 0;
#X connect 44 1 46 1;
#X connect 45 0 47 0;
#X connect 46 0 45 0;
#X connect 47 0 48 0;
#X connect 48 0 49 0;
#X connect 48 1 49 1;
#X connect 49 0 50 0;
#X connect 50 0 29 1;
#X connect 51 0 0 1;
#X connect 52 0 1 1;
#X connect 53 0 54 0;
#X connect 54 0 55 0;
#X connect 55 0 20 0;
#X connect 55 0 19 1;
#X connect 55 0 6 1;
#X connect 56 0 55 0;
#X connect 57 0 29 0;
#X connect 58 0 7 0;
#X connect 59 0 12 0;
#X connect 60 0 1 0;
#X connect 61 0 0 0;
#X restore 81 388 pd rotAccel 5;
#N canvas 324 591 809 574 movAccel 0;
#X obj 62 130 inlet;
#X floatatom 62 155 5 0 0 0 - - -, f 5;
#X obj 107 93 loadbang;
#X obj 107 115 \$1;
#X obj 180 110 spigot;
#X obj 350 108 spigot;
#X obj 180 131 tgl 15 0 empty empty empty 17 7 0 10 -262144 -1 -1 0
1;
#X obj 350 130 tgl 15 0 empty empty empty 17 7 0 10 -262144 -1 -1 0
1;
#X obj 180 313 moses;
#X obj 180 175 spigot;
#X obj 180 428 tabwrite rotationState;
#X obj 180 363 t f b;
#X floatatom 180 409 5 0 0 0 - - -, f 5;
#X obj 349 176 spigot;
#X obj 349 314 moses;
#X obj 349 429 tabwrite rotationState;
#X obj 349 364 t f b;
#X floatatom 349 410 5 0 0 0 - - -, f 5;
#X obj 376 270 -;
#X msg 376 248 0;
#X obj 180 222 tabread rotationState;
#X obj 349 223 tabread rotationState;
#X obj 376 292 + 1;
#X obj 533 78 ||;
#X obj 533 56 t b f;
#X obj 522 223 spigot;
#X text 537 30 resets to 0;
#X obj 522 266 tabread rotationState;
#X obj 522 287 moses 0;
#X obj 522 431 tabwrite rotationState;
#X obj 522 366 t f b;
#X floatatom 522 412 5 0 0 0 - - -, f 5;
#X obj 533 98 - 1;
#X obj 533 118 abs;
#X obj 533 139 tgl 15 0 empty empty empty 17 7 0 10 -262144 -1 -1 0
1;
#X obj 561 308 moses 1;
#X obj 598 54 t b f;
#X obj 598 98 abs;
#X obj 598 76 &&;
#X obj 598 120 tgl 15 0 empty empty empty 17 7 0 10 -262144 -1 -1 0
1;
#X obj 555 139 t b f;
#X obj 555 161 ||;
#X obj 555 182 tgl 15 0 empty empty empty 17 7 0 10 -262144 -1 -1 0
1;
#X msg 180 198 2;
#X msg 349 198 2;
#X msg 207 385 2;
#X msg 376 386 2;
#X msg 549 388 2;
#X msg 522 245 2;
#X obj 213 89 r updateOn;
#X obj 383 86 r updateOn;
#X obj 522 202 r inputFrame;
#X obj 349 156 r inputFrame;
#X obj 180 153 r inputFrame;
#X text 350 41 s: move back;
#X text 179 39 w: move foreward;
#X obj 180 61 keypress 119;
#X obj 350 61 keypress 115;
#X text 178 -1 comment;
#X obj 180 340 + 1;
#X obj 349 341 - 1;
#X obj 522 343 + 1;
#X obj 558 343 - 1;
#X connect 0 0 1 0;
#X connect 1 0 8 1;
#X connect 1 0 19 0;
#X connect 1 0 18 1;
#X connect 2 0 3 0;
#X connect 3 0 1 0;
#X connect 4 0 6 0;
#X connect 5 0 7 0;
#X connect 6 0 9 1;
#X connect 6 0 23 0;
#X connect 6 0 36 0;
#X connect 7 0 13 1;
#X connect 7 0 24 0;
#X connect 7 0 38 0;
#X connect 8 0 59 0;
#X connect 9 0 43 0;
#X connect 11 0 12 0;
#X connect 11 1 45 0;
#X connect 12 0 10 0;
#X connect 13 0 44 0;
#X connect 14 1 60 0;
#X connect 16 0 17 0;
#X connect 16 1 46 0;
#X connect 17 0 15 0;
#X connect 18 0 22 0;
#X connect 19 0 18 0;
#X connect 20 0 8 0;
#X connect 21 0 14 0;
#X connect 22 0 14 1;
#X connect 23 0 32 0;
#X connect 24 0 23 0;
#X connect 24 1 23 1;
#X connect 25 0 48 0;
#X connect 27 0 28 0;
#X connect 28 0 61 0;
#X connect 28 1 35 0;
#X connect 30 0 31 0;
#X connect 30 1 47 0;
#X connect 31 0 29 0;
#X connect 32 0 33 0;
#X connect 33 0 34 0;
#X connect 34 0 41 0;
#X connect 35 1 62 0;
#X connect 36 0 38 0;
#X connect 36 1 38 1;
#X connect 37 0 39 0;
#X connect 38 0 37 0;
#X connect 39 0 40 0;
#X connect 40 0 41 0;
#X connect 40 1 41 1;
#X connect 41 0 42 0;
#X connect 42 0 25 1;
#X connect 43 0 20 0;
#X connect 44 0 21 0;
#X connect 45 0 10 1;
#X connect 46 0 15 1;
#X connect 47 0 29 1;
#X connect 48 0 27 0;
#X connect 49 0 4 1;
#X connect 50 0 5 1;
#X connect 51 0 25 0;
#X connect 52 0 13 0;
#X connect 53 0 9 0;
#X connect 56 0 4 0;
#X connect 57 0 5 0;
#X connect 59 0 11 0;
#X connect 60 0 16 0;
#X connect 61 0 30 0;
#X connect 62 0 30 0;
#X restore 253 394 pd movAccel 5;
#N canvas 1582 604 854 664 movUpdate 0;
#X obj 56 55 r updateFrame;
#X msg 130 94 2;
#X obj 130 117 tabread rotationState;
#X obj 130 139 select 0;
#X msg 130 181 0;
#X obj 103 388 tgl 15 0 empty empty empty 17 7 0 10 -262144 -1 -1 0
1;
#X msg 175 180 1;
#X obj 75 219 tabread rotationState;
#X msg 75 196 4;
#X obj 75 259 sin;
#X obj 212 260 cos;
#X obj 75 282 *;
#X obj 212 282 *;
#X floatatom 75 360 5 0 0 0 - - -, f 5;
#X floatatom 212 360 5 0 0 0 - - -, f 5;
#X obj 56 77 t b b b;
#X obj 56 387 spigot;
#X obj 56 429 tabread rotationState;
#X msg 56 408 5;
#X obj 197 429 tabread rotationState;
#X obj 56 467 +;
#X obj 197 467 +;
#X msg 197 408 6;
#X obj 56 617 tabwrite rotationState;
#X obj 197 617 tabwrite rotationState;
#X floatatom 56 489 5 0 0 0 - - -, f 5;
#X floatatom 197 489 5 0 0 0 - - -, f 5;
#X text 271 359 delta x and delta y;
#X text 53 642 x position;
#X text 197 644 y position;
#X obj 56 575 moses;
#X msg 83 532 50;
#X floatatom 83 554 5 0 0 0 - - -, f 5;
#X obj 83 509 loadbang;
#X obj 83 596 f;
#X connect 0 0 15 0;
#X connect 1 0 2 0;
#X connect 2 0 3 0;
#X connect 2 0 11 1;
#X connect 2 0 12 1;
#X connect 3 0 4 0;
#X connect 3 1 6 0;
#X connect 4 0 5 0;
#X connect 5 0 16 1;
#X connect 6 0 5 0;
#X connect 7 0 9 0;
#X connect 7 0 10 0;
#X connect 8 0 7 0;
#X connect 9 0 11 0;
#X connect 10 0 12 0;
#X connect 11 0 14 0;
#X connect 12 0 13 0;
#X connect 13 0 20 1;
#X connect 14 0 21 1;
#X connect 15 0 16 0;
#X connect 15 1 8 0;
#X connect 15 2 1 0;
#X connect 16 0 18 0;
#X connect 16 0 22 0;
#X connect 17 0 20 0;
#X connect 18 0 17 0;
#X connect 18 0 23 1;
#X connect 19 0 21 0;
#X connect 20 0 25 0;
#X connect 21 0 26 0;
#X connect 22 0 19 0;
#X connect 22 0 24 1;
#X connect 25 0 30 0;
#X connect 26 0 24 0;
#X connect 30 0 23 0;
#X connect 30 1 34 0;
#X connect 31 0 32 0;
#X connect 32 0 30 1;
#X connect 32 0 34 1;
#X connect 33 0 31 0;
#X connect 34 0 23 0;
#X restore 406 391 pd movUpdate;
#X text 520 366 rotationState legend [1] rotation accelleration [2]
movement accelleration [3] rotation in degrees [4] rotation in radians
[5] listener x value [6] listener y value;
#N canvas 561 798 1101 252 viewall 0;
#X obj 20 64 r updateFrame;
#X obj 20 115 tabread rotationState;
#X floatatom 20 139 5 0 0 0 - - -, f 5;
#X obj 189 63 r updateFrame;
#X obj 189 114 tabread rotationState;
#X floatatom 189 138 5 0 0 0 - - -, f 5;
#X obj 358 63 r updateFrame;
#X obj 358 114 tabread rotationState;
#X floatatom 358 138 5 0 0 0 - - -, f 5;
#X obj 510 63 r updateFrame;
#X obj 510 114 tabread rotationState;
#X floatatom 510 138 5 0 0 0 - - -, f 5;
#X obj 663 62 r updateFrame;
#X obj 663 113 tabread rotationState;
#X floatatom 663 138 5 0 0 0 - - -, f 5;
#X obj 812 62 r updateFrame;
#X obj 812 113 tabread rotationState;
#X floatatom 812 137 5 0 0 0 - - -, f 5;
#X msg 20 91 1;
#X msg 189 90 2;
#X msg 357 90 3;
#X msg 510 90 4;
#X msg 663 89 5;
#X msg 812 89 6;
#X text 183 164 mov acc;
#X text 19 164 rot acc;
#X text 350 163 rot in deg 0 to 360 0 is x axis;
#X text 505 166 mov in deg -pi to pi 0 is y axis;
#X msg 22 17 \; rotationState 0 0 0 0 180 0 0 0 0 0 0;
#X connect 0 0 18 0;
#X connect 1 0 2 0;
#X connect 3 0 19 0;
#X connect 4 0 5 0;
#X connect 6 0 20 0;
#X connect 7 0 8 0;
#X connect 9 0 21 0;
#X connect 10 0 11 0;
#X connect 12 0 22 0;
#X connect 13 0 14 0;
#X connect 15 0 23 0;
#X connect 16 0 17 0;
#X connect 18 0 1 0;
#X connect 19 0 4 0;
#X connect 20 0 7 0;
#X connect 21 0 10 0;
#X connect 22 0 13 0;
#X connect 23 0 16 0;
#X restore 406 287 pd viewall;
#X msg 253 349 5;
#X msg 369 142 \; rotationState 0 0 0 0 180 0 0 0 0 0 0;
#N canvas 642 577 1483 657 audioSources 0;
#N canvas 1426 624 190 170 audiohelper 0;
#X obj 19 31 inlet~;
#X obj 19 53 spatializer;
#X obj 19 112 throw~ left;
#X obj 82 89 throw~ right;
#X obj 69 29 inlet;
#X obj 114 29 inlet;
#X connect 0 0 1 0;
#X connect 1 0 2 0;
#X connect 1 1 3 0;
#X connect 4 0 1 1;
#X connect 5 0 1 2;
#X restore 48 373 pd audiohelper 60 0;
#X obj 15 33 loadbang;
#X obj 80 67 delay 1;
#X obj 90 93 f;
#X obj 118 93 + 1;
#X obj 80 117 moses 50;
#X obj 91 14 bng 15 250 50 0 empty empty empty 17 7 0 10 -262144 -1
-1;
#X msg 90 33 0;
#X obj 133 150 pack f f f;
#X obj 161 94 f;
#X obj 161 71 * -25;
#X obj 189 95 +;
#X obj 226 72 random 20;
#X obj 226 94 + 50;
#X obj 102 351 unpack f f;
#X obj 34 188 route 0 1 2 3 4 5 6 7 8 9 10 11 12 13 14 15 16 17 18
19 20 21 22 23 24 25 26 27 28 29 30 31 32 33 34 35 36 37 38 39 40 41
42 43 44 45 46 47 48 49, f 225;
#X msg 161 50 10;
#N canvas 1426 624 190 170 audiohelper 0;
#X obj 19 31 inlet~;
#X obj 19 53 spatializer;
#X obj 19 112 throw~ left;
#X obj 82 89 throw~ right;
#X obj 69 29 inlet;
#X obj 114 29 inlet;
#X connect 0 0 1 0;
#X connect 1 0 2 0;
#X connect 1 1 3 0;
#X connect 4 0 1 1;
#X connect 5 0 1 2;
#X restore 46 420 pd audiohelper 60 0;
#X obj 100 398 unpack f f;
#N canvas 1426 624 190 170 audiohelper 0;
#X obj 19 31 inlet~;
#X obj 19 53 spatializer;
#X obj 19 112 throw~ left;
#X obj 82 89 throw~ right;
#X obj 69 29 inlet;
#X obj 114 29 inlet;
#X connect 0 0 1 0;
#X connect 1 0 2 0;
#X connect 1 1 3 0;
#X connect 4 0 1 1;
#X connect 5 0 1 2;
#X restore 45 466 pd audiohelper 60 0;
#X obj 99 444 unpack f f;
#N canvas 1426 624 190 170 audiohelper 0;
#X obj 19 31 inlet~;
#X obj 19 53 spatializer;
#X obj 19 112 throw~ left;
#X obj 82 89 throw~ right;
#X obj 69 29 inlet;
#X obj 114 29 inlet;
#X connect 0 0 1 0;
#X connect 1 0 2 0;
#X connect 1 1 3 0;
#X connect 4 0 1 1;
#X connect 5 0 1 2;
#X restore 44 513 pd audiohelper 60 0;
#X obj 98 491 unpack f f;
#N canvas 1426 624 190 170 audiohelper 0;
#X obj 19 31 inlet~;
#X obj 19 53 spatializer;
#X obj 19 112 throw~ left;
#X obj 82 89 throw~ right;
#X obj 69 29 inlet;
#X obj 114 29 inlet;
#X connect 0 0 1 0;
#X connect 1 0 2 0;
#X connect 1 1 3 0;
#X connect 4 0 1 1;
#X connect 5 0 1 2;
#X restore 42 558 pd audiohelper 60 0;
#X obj 96 536 unpack f f;
#N canvas 1426 624 190 170 audiohelper 0;
#X obj 19 31 inlet~;
#X obj 19 53 spatializer;
#X obj 19 112 throw~ left;
#X obj 82 89 throw~ right;
#X obj 69 29 inlet;
#X obj 114 29 inlet;
#X connect 0 0 1 0;
#X connect 1 0 2 0;
#X connect 1 1 3 0;
#X connect 4 0 1 1;
#X connect 5 0 1 2;
#X restore 190 372 pd audiohelper 60 0;
#X obj 244 350 unpack f f;
#N canvas 1426 624 190 170 audiohelper 0;
#X obj 19 31 inlet~;
#X obj 19 53 spatializer;
#X obj 19 112 throw~ left;
#X obj 82 89 throw~ right;
#X obj 69 29 inlet;
#X obj 114 29 inlet;
#X connect 0 0 1 0;
#X connect 1 0 2 0;
#X connect 1 1 3 0;
#X connect 4 0 1 1;
#X connect 5 0 1 2;
#X restore 188 419 pd audiohelper 60 0;
#X obj 242 397 unpack f f;
#N canvas 1426 624 190 170 audiohelper 0;
#X obj 19 31 inlet~;
#X obj 19 53 spatializer;
#X obj 19 112 throw~ left;
#X obj 82 89 throw~ right;
#X obj 69 29 inlet;
#X obj 114 29 inlet;
#X connect 0 0 1 0;
#X connect 1 0 2 0;
#X connect 1 1 3 0;
#X connect 4 0 1 1;
#X connect 5 0 1 2;
#X restore 187 465 pd audiohelper 60 0;
#X obj 241 443 unpack f f;
#N canvas 1426 624 190 170 audiohelper 0;
#X obj 19 31 inlet~;
#X obj 19 53 spatializer;
#X obj 19 112 throw~ left;
#X obj 82 89 throw~ right;
#X obj 69 29 inlet;
#X obj 114 29 inlet;
#X connect 0 0 1 0;
#X connect 1 0 2 0;
#X connect 1 1 3 0;
#X connect 4 0 1 1;
#X connect 5 0 1 2;
#X restore 186 512 pd audiohelper 60 0;
#X obj 241 488 unpack f f;
#N canvas 1426 624 190 170 audiohelper 0;
#X obj 19 31 inlet~;
#X obj 19 53 spatializer;
#X obj 19 112 throw~ left;
#X obj 82 89 throw~ right;
#X obj 69 29 inlet;
#X obj 114 29 inlet;
#X connect 0 0 1 0;
#X connect 1 0 2 0;
#X connect 1 1 3 0;
#X connect 4 0 1 1;
#X connect 5 0 1 2;
#X restore 184 557 pd audiohelper 60 0;
#X obj 238 535 unpack f f;
#N canvas 1426 624 190 170 audiohelper 0;
#X obj 19 31 inlet~;
#X obj 19 53 spatializer;
#X obj 19 112 throw~ left;
#X obj 82 89 throw~ right;
#X obj 69 29 inlet;
#X obj 114 29 inlet;
#X connect 0 0 1 0;
#X connect 1 0 2 0;
#X connect 1 1 3 0;
#X connect 4 0 1 1;
#X connect 5 0 1 2;
#X restore 331 373 pd audiohelper 60 0;
#X obj 385 351 unpack f f;
#N canvas 1426 624 190 170 audiohelper 0;
#X obj 19 31 inlet~;
#X obj 19 53 spatializer;
#X obj 19 112 throw~ left;
#X obj 82 89 throw~ right;
#X obj 69 29 inlet;
#X obj 114 29 inlet;
#X connect 0 0 1 0;
#X connect 1 0 2 0;
#X connect 1 1 3 0;
#X connect 4 0 1 1;
#X connect 5 0 1 2;
#X restore 329 420 pd audiohelper 60 0;
#X obj 383 398 unpack f f;
#N canvas 1426 624 190 170 audiohelper 0;
#X obj 19 31 inlet~;
#X obj 19 53 spatializer;
#X obj 19 112 throw~ left;
#X obj 82 89 throw~ right;
#X obj 69 29 inlet;
#X obj 114 29 inlet;
#X connect 0 0 1 0;
#X connect 1 0 2 0;
#X connect 1 1 3 0;
#X connect 4 0 1 1;
#X connect 5 0 1 2;
#X restore 328 466 pd audiohelper 60 0;
#X obj 382 444 unpack f f;
#N canvas 1426 624 190 170 audiohelper 0;
#X obj 19 31 inlet~;
#X obj 19 53 spatializer;
#X obj 19 112 throw~ left;
#X obj 82 89 throw~ right;
#X obj 69 29 inlet;
#X obj 114 29 inlet;
#X connect 0 0 1 0;
#X connect 1 0 2 0;
#X connect 1 1 3 0;
#X connect 4 0 1 1;
#X connect 5 0 1 2;
#X restore 327 513 pd audiohelper 60 0;
#X obj 381 491 unpack f f;
#N canvas 1426 624 190 170 audiohelper 0;
#X obj 19 31 inlet~;
#X obj 19 53 spatializer;
#X obj 19 112 throw~ left;
#X obj 82 89 throw~ right;
#X obj 69 29 inlet;
#X obj 114 29 inlet;
#X connect 0 0 1 0;
#X connect 1 0 2 0;
#X connect 1 1 3 0;
#X connect 4 0 1 1;
#X connect 5 0 1 2;
#X restore 325 558 pd audiohelper 60 0;
#X obj 379 536 unpack f f;
#N canvas 1426 624 190 170 audiohelper 0;
#X obj 19 31 inlet~;
#X obj 19 53 spatializer;
#X obj 19 112 throw~ left;
#X obj 82 89 throw~ right;
#X obj 69 29 inlet;
#X obj 114 29 inlet;
#X connect 0 0 1 0;
#X connect 1 0 2 0;
#X connect 1 1 3 0;
#X connect 4 0 1 1;
#X connect 5 0 1 2;
#X restore 471 373 pd audiohelper 60 0;
#X obj 525 351 unpack f f;
#N canvas 1426 624 190 170 audiohelper 0;
#X obj 19 31 inlet~;
#X obj 19 53 spatializer;
#X obj 19 112 throw~ left;
#X obj 82 89 throw~ right;
#X obj 69 29 inlet;
#X obj 114 29 inlet;
#X connect 0 0 1 0;
#X connect 1 0 2 0;
#X connect 1 1 3 0;
#X connect 4 0 1 1;
#X connect 5 0 1 2;
#X restore 469 420 pd audiohelper 60 0;
#X obj 523 398 unpack f f;
#N canvas 1426 624 190 170 audiohelper 0;
#X obj 19 31 inlet~;
#X obj 19 53 spatializer;
#X obj 19 112 throw~ left;
#X obj 82 89 throw~ right;
#X obj 69 29 inlet;
#X obj 114 29 inlet;
#X connect 0 0 1 0;
#X connect 1 0 2 0;
#X connect 1 1 3 0;
#X connect 4 0 1 1;
#X connect 5 0 1 2;
#X restore 468 466 pd audiohelper 60 0;
#X obj 522 444 unpack f f;
#N canvas 1426 624 190 170 audiohelper 0;
#X obj 19 31 inlet~;
#X obj 19 53 spatializer;
#X obj 19 112 throw~ left;
#X obj 82 89 throw~ right;
#X obj 69 29 inlet;
#X obj 114 29 inlet;
#X connect 0 0 1 0;
#X connect 1 0 2 0;
#X connect 1 1 3 0;
#X connect 4 0 1 1;
#X connect 5 0 1 2;
#X restore 467 513 pd audiohelper 60 0;
#X obj 521 491 unpack f f;
#N canvas 1426 624 190 170 audiohelper 0;
#X obj 19 31 inlet~;
#X obj 19 53 spatializer;
#X obj 19 112 throw~ left;
#X obj 82 89 throw~ right;
#X obj 69 29 inlet;
#X obj 114 29 inlet;
#X connect 0 0 1 0;
#X connect 1 0 2 0;
#X connect 1 1 3 0;
#X connect 4 0 1 1;
#X connect 5 0 1 2;
#X restore 465 558 pd audiohelper 60 0;
#X obj 519 536 unpack f f;
#N canvas 1426 624 190 170 audiohelper 0;
#X obj 19 31 inlet~;
#X obj 19 53 spatializer;
#X obj 19 112 throw~ left;
#X obj 82 89 throw~ right;
#X obj 69 29 inlet;
#X obj 114 29 inlet;
#X connect 0 0 1 0;
#X connect 1 0 2 0;
#X connect 1 1 3 0;
#X connect 4 0 1 1;
#X connect 5 0 1 2;
#X restore 605 373 pd audiohelper 60 0;
#X obj 659 351 unpack f f;
#N canvas 1426 624 190 170 audiohelper 0;
#X obj 19 31 inlet~;
#X obj 19 53 spatializer;
#X obj 19 112 throw~ left;
#X obj 82 89 throw~ right;
#X obj 69 29 inlet;
#X obj 114 29 inlet;
#X connect 0 0 1 0;
#X connect 1 0 2 0;
#X connect 1 1 3 0;
#X connect 4 0 1 1;
#X connect 5 0 1 2;
#X restore 603 420 pd audiohelper 60 0;
#X obj 657 398 unpack f f;
#N canvas 1426 624 190 170 audiohelper 0;
#X obj 19 31 inlet~;
#X obj 19 53 spatializer;
#X obj 19 112 throw~ left;
#X obj 82 89 throw~ right;
#X obj 69 29 inlet;
#X obj 114 29 inlet;
#X connect 0 0 1 0;
#X connect 1 0 2 0;
#X connect 1 1 3 0;
#X connect 4 0 1 1;
#X connect 5 0 1 2;
#X restore 602 466 pd audiohelper 60 0;
#X obj 656 444 unpack f f;
#N canvas 1426 624 190 170 audiohelper 0;
#X obj 19 31 inlet~;
#X obj 19 53 spatializer;
#X obj 19 112 throw~ left;
#X obj 82 89 throw~ right;
#X obj 69 29 inlet;
#X obj 114 29 inlet;
#X connect 0 0 1 0;
#X connect 1 0 2 0;
#X connect 1 1 3 0;
#X connect 4 0 1 1;
#X connect 5 0 1 2;
#X restore 601 513 pd audiohelper 60 0;
#X obj 655 491 unpack f f;
#N canvas 1426 624 190 170 audiohelper 0;
#X obj 19 31 inlet~;
#X obj 19 53 spatializer;
#X obj 19 112 throw~ left;
#X obj 82 89 throw~ right;
#X obj 69 29 inlet;
#X obj 114 29 inlet;
#X connect 0 0 1 0;
#X connect 1 0 2 0;
#X connect 1 1 3 0;
#X connect 4 0 1 1;
#X connect 5 0 1 2;
#X restore 599 558 pd audiohelper 60 0;
#X obj 653 536 unpack f f;
#N canvas 1426 624 190 170 audiohelper 0;
#X obj 19 31 inlet~;
#X obj 19 53 spatializer;
#X obj 19 112 throw~ left;
#X obj 82 89 throw~ right;
#X obj 69 29 inlet;
#X obj 114 29 inlet;
#X connect 0 0 1 0;
#X connect 1 0 2 0;
#X connect 1 1 3 0;
#X connect 4 0 1 1;
#X connect 5 0 1 2;
#X restore 743 373 pd audiohelper 60 0;
#X obj 797 351 unpack f f;
#N canvas 1426 624 190 170 audiohelper 0;
#X obj 19 31 inlet~;
#X obj 19 53 spatializer;
#X obj 19 112 throw~ left;
#X obj 82 89 throw~ right;
#X obj 69 29 inlet;
#X obj 114 29 inlet;
#X connect 0 0 1 0;
#X connect 1 0 2 0;
#X connect 1 1 3 0;
#X connect 4 0 1 1;
#X connect 5 0 1 2;
#X restore 741 420 pd audiohelper 60 0;
#X obj 795 398 unpack f f;
#N canvas 1426 624 190 170 audiohelper 0;
#X obj 19 31 inlet~;
#X obj 19 53 spatializer;
#X obj 19 112 throw~ left;
#X obj 82 89 throw~ right;
#X obj 69 29 inlet;
#X obj 114 29 inlet;
#X connect 0 0 1 0;
#X connect 1 0 2 0;
#X connect 1 1 3 0;
#X connect 4 0 1 1;
#X connect 5 0 1 2;
#X restore 740 466 pd audiohelper 60 0;
#X obj 794 444 unpack f f;
#N canvas 1426 624 190 170 audiohelper 0;
#X obj 19 31 inlet~;
#X obj 19 53 spatializer;
#X obj 19 112 throw~ left;
#X obj 82 89 throw~ right;
#X obj 69 29 inlet;
#X obj 114 29 inlet;
#X connect 0 0 1 0;
#X connect 1 0 2 0;
#X connect 1 1 3 0;
#X connect 4 0 1 1;
#X connect 5 0 1 2;
#X restore 739 513 pd audiohelper 60 0;
#X obj 793 491 unpack f f;
#N canvas 1426 624 190 170 audiohelper 0;
#X obj 19 31 inlet~;
#X obj 19 53 spatializer;
#X obj 19 112 throw~ left;
#X obj 82 89 throw~ right;
#X obj 69 29 inlet;
#X obj 114 29 inlet;
#X connect 0 0 1 0;
#X connect 1 0 2 0;
#X connect 1 1 3 0;
#X connect 4 0 1 1;
#X connect 5 0 1 2;
#X restore 737 558 pd audiohelper 60 0;
#X obj 791 536 unpack f f;
#N canvas 1426 624 190 170 audiohelper 0;
#X obj 19 31 inlet~;
#X obj 19 53 spatializer;
#X obj 19 112 throw~ left;
#X obj 82 89 throw~ right;
#X obj 69 29 inlet;
#X obj 114 29 inlet;
#X connect 0 0 1 0;
#X connect 1 0 2 0;
#X connect 1 1 3 0;
#X connect 4 0 1 1;
#X connect 5 0 1 2;
#X restore 879 373 pd audiohelper 60 0;
#X obj 933 351 unpack f f;
#X obj 879 351 tone;
#N canvas 1426 624 190 170 audiohelper 0;
#X obj 19 31 inlet~;
#X obj 19 53 spatializer;
#X obj 19 112 throw~ left;
#X obj 82 89 throw~ right;
#X obj 69 29 inlet;
#X obj 114 29 inlet;
#X connect 0 0 1 0;
#X connect 1 0 2 0;
#X connect 1 1 3 0;
#X connect 4 0 1 1;
#X connect 5 0 1 2;
#X restore 877 420 pd audiohelper 60 0;
#X obj 931 398 unpack f f;
#N canvas 1426 624 190 170 audiohelper 0;
#X obj 19 31 inlet~;
#X obj 19 53 spatializer;
#X obj 19 112 throw~ left;
#X obj 82 89 throw~ right;
#X obj 69 29 inlet;
#X obj 114 29 inlet;
#X connect 0 0 1 0;
#X connect 1 0 2 0;
#X connect 1 1 3 0;
#X connect 4 0 1 1;
#X connect 5 0 1 2;
#X restore 876 466 pd audiohelper 60 0;
#X obj 930 444 unpack f f;
#N canvas 1426 624 190 170 audiohelper 0;
#X obj 19 31 inlet~;
#X obj 19 53 spatializer;
#X obj 19 112 throw~ left;
#X obj 82 89 throw~ right;
#X obj 69 29 inlet;
#X obj 114 29 inlet;
#X connect 0 0 1 0;
#X connect 1 0 2 0;
#X connect 1 1 3 0;
#X connect 4 0 1 1;
#X connect 5 0 1 2;
#X restore 875 513 pd audiohelper 60 0;
#X obj 929 491 unpack f f;
#N canvas 1426 624 190 170 audiohelper 0;
#X obj 19 31 inlet~;
#X obj 19 53 spatializer;
#X obj 19 112 throw~ left;
#X obj 82 89 throw~ right;
#X obj 69 29 inlet;
#X obj 114 29 inlet;
#X connect 0 0 1 0;
#X connect 1 0 2 0;
#X connect 1 1 3 0;
#X connect 4 0 1 1;
#X connect 5 0 1 2;
#X restore 873 558 pd audiohelper 60 0;
#X obj 927 536 unpack f f;
#N canvas 1426 624 190 170 audiohelper 0;
#X obj 19 31 inlet~;
#X obj 19 53 spatializer;
#X obj 19 112 throw~ left;
#X obj 82 89 throw~ right;
#X obj 69 29 inlet;
#X obj 114 29 inlet;
#X connect 0 0 1 0;
#X connect 1 0 2 0;
#X connect 1 1 3 0;
#X connect 4 0 1 1;
#X connect 5 0 1 2;
#X restore 1013 372 pd audiohelper 60 0;
#X obj 1067 350 unpack f f;
#N canvas 1426 624 190 170 audiohelper 0;
#X obj 19 31 inlet~;
#X obj 19 53 spatializer;
#X obj 19 112 throw~ left;
#X obj 82 89 throw~ right;
#X obj 69 29 inlet;
#X obj 114 29 inlet;
#X connect 0 0 1 0;
#X connect 1 0 2 0;
#X connect 1 1 3 0;
#X connect 4 0 1 1;
#X connect 5 0 1 2;
#X restore 1011 419 pd audiohelper 60 0;
#X obj 1065 397 unpack f f;
#N canvas 1426 624 190 170 audiohelper 0;
#X obj 19 31 inlet~;
#X obj 19 53 spatializer;
#X obj 19 112 throw~ left;
#X obj 82 89 throw~ right;
#X obj 69 29 inlet;
#X obj 114 29 inlet;
#X connect 0 0 1 0;
#X connect 1 0 2 0;
#X connect 1 1 3 0;
#X connect 4 0 1 1;
#X connect 5 0 1 2;
#X restore 1010 465 pd audiohelper 60 0;
#X obj 1064 443 unpack f f;
#N canvas 1426 624 190 170 audiohelper 0;
#X obj 19 31 inlet~;
#X obj 19 53 spatializer;
#X obj 19 112 throw~ left;
#X obj 82 89 throw~ right;
#X obj 69 29 inlet;
#X obj 114 29 inlet;
#X connect 0 0 1 0;
#X connect 1 0 2 0;
#X connect 1 1 3 0;
#X connect 4 0 1 1;
#X connect 5 0 1 2;
#X restore 1009 512 pd audiohelper 60 0;
#X obj 1063 490 unpack f f;
#N canvas 1426 624 190 170 audiohelper 0;
#X obj 19 31 inlet~;
#X obj 19 53 spatializer;
#X obj 19 112 throw~ left;
#X obj 82 89 throw~ right;
#X obj 69 29 inlet;
#X obj 114 29 inlet;
#X connect 0 0 1 0;
#X connect 1 0 2 0;
#X connect 1 1 3 0;
#X connect 4 0 1 1;
#X connect 5 0 1 2;
#X restore 1007 557 pd audiohelper 60 0;
#X obj 1061 535 unpack f f;
#N canvas 1426 624 190 170 audiohelper 0;
#X obj 19 31 inlet~;
#X obj 19 53 spatializer;
#X obj 19 112 throw~ left;
#X obj 82 89 throw~ right;
#X obj 69 29 inlet;
#X obj 114 29 inlet;
#X connect 0 0 1 0;
#X connect 1 0 2 0;
#X connect 1 1 3 0;
#X connect 4 0 1 1;
#X connect 5 0 1 2;
#X restore 1145 373 pd audiohelper 60 0;
#X obj 1199 351 unpack f f;
#N canvas 1426 624 190 170 audiohelper 0;
#X obj 19 31 inlet~;
#X obj 19 53 spatializer;
#X obj 19 112 throw~ left;
#X obj 82 89 throw~ right;
#X obj 69 29 inlet;
#X obj 114 29 inlet;
#X connect 0 0 1 0;
#X connect 1 0 2 0;
#X connect 1 1 3 0;
#X connect 4 0 1 1;
#X connect 5 0 1 2;
#X restore 1143 420 pd audiohelper 60 0;
#X obj 1197 398 unpack f f;
#N canvas 1426 624 190 170 audiohelper 0;
#X obj 19 31 inlet~;
#X obj 19 53 spatializer;
#X obj 19 112 throw~ left;
#X obj 82 89 throw~ right;
#X obj 69 29 inlet;
#X obj 114 29 inlet;
#X connect 0 0 1 0;
#X connect 1 0 2 0;
#X connect 1 1 3 0;
#X connect 4 0 1 1;
#X connect 5 0 1 2;
#X restore 1142 466 pd audiohelper 60 0;
#X obj 1196 444 unpack f f;
#N canvas 1426 624 190 170 audiohelper 0;
#X obj 19 31 inlet~;
#X obj 19 53 spatializer;
#X obj 19 112 throw~ left;
#X obj 82 89 throw~ right;
#X obj 69 29 inlet;
#X obj 114 29 inlet;
#X connect 0 0 1 0;
#X connect 1 0 2 0;
#X connect 1 1 3 0;
#X connect 4 0 1 1;
#X connect 5 0 1 2;
#X restore 1141 513 pd audiohelper 60 0;
#X obj 1195 491 unpack f f;
#N canvas 1426 624 190 170 audiohelper 0;
#X obj 19 31 inlet~;
#X obj 19 53 spatializer;
#X obj 19 112 throw~ left;
#X obj 82 89 throw~ right;
#X obj 69 29 inlet;
#X obj 114 29 inlet;
#X connect 0 0 1 0;
#X connect 1 0 2 0;
#X connect 1 1 3 0;
#X connect 4 0 1 1;
#X connect 5 0 1 2;
#X restore 1139 558 pd audiohelper 60 0;
#X obj 1193 536 unpack f f;
#N canvas 1426 624 190 170 audiohelper 0;
#X obj 19 31 inlet~;
#X obj 19 53 spatializer;
#X obj 19 112 throw~ left;
#X obj 82 89 throw~ right;
#X obj 69 29 inlet;
#X obj 114 29 inlet;
#X connect 0 0 1 0;
#X connect 1 0 2 0;
#X connect 1 1 3 0;
#X connect 4 0 1 1;
#X connect 5 0 1 2;
#X restore 1276 373 pd audiohelper 60 0;
#X obj 1330 351 unpack f f;
#N canvas 1426 624 190 170 audiohelper 0;
#X obj 19 31 inlet~;
#X obj 19 53 spatializer;
#X obj 19 112 throw~ left;
#X obj 82 89 throw~ right;
#X obj 69 29 inlet;
#X obj 114 29 inlet;
#X connect 0 0 1 0;
#X connect 1 0 2 0;
#X connect 1 1 3 0;
#X connect 4 0 1 1;
#X connect 5 0 1 2;
#X restore 1274 420 pd audiohelper 60 0;
#X obj 1328 398 unpack f f;
#N canvas 1426 624 190 170 audiohelper 0;
#X obj 19 31 inlet~;
#X obj 19 53 spatializer;
#X obj 19 112 throw~ left;
#X obj 82 89 throw~ right;
#X obj 69 29 inlet;
#X obj 114 29 inlet;
#X connect 0 0 1 0;
#X connect 1 0 2 0;
#X connect 1 1 3 0;
#X connect 4 0 1 1;
#X connect 5 0 1 2;
#X restore 1273 466 pd audiohelper 60 0;
#X obj 1327 444 unpack f f;
#N canvas 1426 624 190 170 audiohelper 0;
#X obj 19 31 inlet~;
#X obj 19 53 spatializer;
#X obj 19 112 throw~ left;
#X obj 82 89 throw~ right;
#X obj 69 29 inlet;
#X obj 114 29 inlet;
#X connect 0 0 1 0;
#X connect 1 0 2 0;
#X connect 1 1 3 0;
#X connect 4 0 1 1;
#X connect 5 0 1 2;
#X restore 1272 513 pd audiohelper 60 0;
#X obj 1326 491 unpack f f;
#N canvas 1426 624 190 170 audiohelper 0;
#X obj 19 31 inlet~;
#X obj 19 53 spatializer;
#X obj 19 112 throw~ left;
#X obj 82 89 throw~ right;
#X obj 69 29 inlet;
#X obj 114 29 inlet;
#X connect 0 0 1 0;
#X connect 1 0 2 0;
#X connect 1 1 3 0;
#X connect 4 0 1 1;
#X connect 5 0 1 2;
#X restore 1270 558 pd audiohelper 60 0;
#X obj 1324 536 unpack f f;
#X obj 1394 189 f;
#X obj 1430 189 + 1;
#X floatatom 1394 212 5 0 0 0 - - -, f 5;
#X obj 48 351 tone;
#X obj 46 398 tone;
#X obj 45 444 tone;
#X obj 44 491 tone;
#X obj 42 536 tone;
#X obj 190 350 tone;
#X obj 188 397 tone;
#X obj 187 443 tone;
#X obj 186 490 tone;
#X obj 184 535 tone;
#X obj 331 351 tone;
#X obj 329 398 tone;
#X obj 328 444 tone;
#X obj 327 491 tone;
#X obj 325 536 tone;
#X obj 471 351 tone;
#X obj 469 398 tone;
#X obj 468 444 tone;
#X obj 467 491 tone;
#X obj 465 536 tone;
#X obj 605 351 tone;
#X obj 603 398 tone;
#X obj 602 444 tone;
#X obj 601 491 tone;
#X obj 599 536 tone;
#X obj 743 351 tone;
#X obj 741 398 tone;
#X obj 740 444 tone;
#X obj 739 491 tone;
#X obj 737 536 tone;
#X obj 877 398 tone;
#X obj 876 444 tone;
#X obj 875 491 tone;
#X obj 873 536 tone;
#X obj 1013 350 tone;
#X obj 1011 397 tone;
#X obj 1010 443 tone;
#X obj 1009 490 tone;
#X obj 1007 535 tone;
#X obj 1145 351 tone;
#X obj 1143 398 tone;
#X obj 1142 444 tone;
#X obj 1141 491 tone;
#X obj 1139 536 tone;
#X obj 1276 351 tone;
#X obj 1274 398 tone;
#X obj 1273 444 tone;
#X obj 1272 491 tone;
#X obj 1270 536 tone;
#X obj 15 55 delay 1;
#X obj 15 77 t b b;
#X connect 1 0 7 0;
#X connect 1 0 168 0;
#X connect 2 0 3 0;
#X connect 2 0 9 0;
#X connect 2 0 12 0;
#X connect 3 0 4 0;
#X connect 3 0 5 0;
#X connect 4 0 3 1;
#X connect 5 0 2 0;
#X connect 5 0 8 0;
#X connect 6 0 7 0;
#X connect 7 0 3 0;
#X connect 7 0 16 0;
#X connect 7 0 116 1;
#X connect 8 0 15 0;
#X connect 9 0 11 0;
#X connect 9 0 8 1;
#X connect 10 0 9 1;
#X connect 11 0 9 1;
#X connect 12 0 13 0;
#X connect 13 0 8 2;
#X connect 14 0 0 1;
#X connect 14 0 119 0;
#X connect 14 1 0 2;
#X connect 14 1 119 1;
#X connect 15 0 14 0;
#X connect 15 1 18 0;
#X connect 15 2 20 0;
#X connect 15 3 22 0;
#X connect 15 4 24 0;
#X connect 15 5 26 0;
#X connect 15 6 28 0;
#X connect 15 7 30 0;
#X connect 15 8 32 0;
#X connect 15 9 34 0;
#X connect 15 10 36 0;
#X connect 15 11 38 0;
#X connect 15 12 40 0;
#X connect 15 13 42 0;
#X connect 15 14 44 0;
#X connect 15 15 46 0;
#X connect 15 16 48 0;
#X connect 15 17 50 0;
#X connect 15 18 52 0;
#X connect 15 19 54 0;
#X connect 15 20 56 0;
#X connect 15 21 58 0;
#X connect 15 22 60 0;
#X connect 15 23 62 0;
#X connect 15 24 64 0;
#X connect 15 25 66 0;
#X connect 15 26 68 0;
#X connect 15 27 70 0;
#X connect 15 28 72 0;
#X connect 15 29 74 0;
#X connect 15 30 76 0;
#X connect 15 31 79 0;
#X connect 15 32 81 0;
#X connect 15 33 83 0;
#X connect 15 34 85 0;
#X connect 15 35 87 0;
#X connect 15 36 89 0;
#X connect 15 37 91 0;
#X connect 15 38 93 0;
#X connect 15 39 95 0;
#X connect 15 40 97 0;
#X connect 15 41 99 0;
#X connect 15 42 101 0;
#X connect 15 43 103 0;
#X connect 15 44 105 0;
#X connect 15 45 107 0;
#X connect 15 46 109 0;
#X connect 15 47 111 0;
#X connect 15 48 113 0;
#X connect 15 49 115 0;
#X connect 15 50 116 0;
#X connect 16 0 10 0;
#X connect 16 0 11 1;
#X connect 18 0 17 1;
#X connect 18 0 120 0;
#X connect 18 1 17 2;
#X connect 18 1 120 1;
#X connect 20 0 19 1;
#X connect 20 0 121 0;
#X connect 20 1 19 2;
#X connect 20 1 121 1;
#X connect 22 0 21 1;
#X connect 22 0 122 0;
#X connect 22 1 21 2;
#X connect 22 1 122 1;
#X connect 24 0 23 1;
#X connect 24 0 123 0;
#X connect 24 1 23 2;
#X connect 24 1 123 1;
#X connect 26 0 25 1;
#X connect 26 0 124 0;
#X connect 26 1 25 2;
#X connect 26 1 124 1;
#X connect 28 0 27 1;
#X connect 28 0 125 0;
#X connect 28 1 27 2;
#X connect 28 1 125 1;
#X connect 30 0 29 1;
#X connect 30 0 126 0;
#X connect 30 1 29 2;
#X connect 30 1 126 1;
#X connect 32 0 31 1;
#X connect 32 0 127 0;
#X connect 32 1 31 2;
#X connect 32 1 127 1;
#X connect 34 0 33 1;
#X connect 34 0 128 0;
#X connect 34 1 33 2;
#X connect 34 1 128 1;
#X connect 36 0 35 1;
#X connect 36 0 129 0;
#X connect 36 1 35 2;
#X connect 36 1 129 1;
#X connect 38 0 37 1;
#X connect 38 0 130 0;
#X connect 38 1 37 2;
#X connect 38 1 130 1;
#X connect 40 0 39 1;
#X connect 40 0 131 0;
#X connect 40 1 39 2;
#X connect 40 1 131 1;
#X connect 42 0 41 1;
#X connect 42 0 132 0;
#X connect 42 1 41 2;
#X connect 42 1 132 1;
#X connect 44 0 43 1;
#X connect 44 0 133 0;
#X connect 44 1 43 2;
#X connect 44 1 133 1;
#X connect 46 0 45 1;
#X connect 46 0 134 0;
#X connect 46 1 45 2;
#X connect 46 1 134 1;
#X connect 48 0 47 1;
#X connect 48 0 135 0;
#X connect 48 1 47 2;
#X connect 48 1 135 1;
#X connect 50 0 49 1;
#X connect 50 0 136 0;
#X connect 50 1 49 2;
#X connect 50 1 136 1;
#X connect 52 0 51 1;
#X connect 52 0 137 0;
#X connect 52 1 51 2;
#X connect 52 1 137 1;
#X connect 54 0 53 1;
#X connect 54 0 138 0;
#X connect 54 1 53 2;
#X connect 54 1 138 1;
#X connect 56 0 55 1;
#X connect 56 0 139 0;
#X connect 56 1 55 2;
#X connect 56 1 139 1;
#X connect 58 0 57 1;
#X connect 58 0 140 0;
#X connect 58 1 57 2;
#X connect 58 1 140 1;
#X connect 60 0 59 1;
#X connect 60 0 141 0;
#X connect 60 1 59 2;
#X connect 60 1 141 1;
#X connect 62 0 61 1;
#X connect 62 0 142 0;
#X connect 62 1 61 2;
#X connect 62 1 142 1;
#X connect 64 0 63 1;
#X connect 64 0 143 0;
#X connect 64 1 63 2;
#X connect 64 1 143 1;
#X connect 66 0 65 1;
#X connect 66 0 144 0;
#X connect 66 1 65 2;
#X connect 66 1 144 1;
#X connect 68 0 67 1;
#X connect 68 0 145 0;
#X connect 68 1 67 2;
#X connect 68 1 145 1;
#X connect 70 0 69 1;
#X connect 70 0 146 0;
#X connect 70 1 69 2;
#X connect 70 1 146 1;
#X connect 72 0 71 1;
#X connect 72 0 147 0;
#X connect 72 1 71 2;
#X connect 72 1 147 1;
#X connect 74 0 73 1;
#X connect 74 0 148 0;
#X connect 74 1 73 2;
#X connect 74 1 148 1;
#X connect 76 0 75 1;
#X connect 76 0 77 0;
#X connect 76 1 75 2;
#X connect 76 1 77 1;
#X connect 77 0 75 0;
#X connect 79 0 78 1;
#X connect 79 0 149 0;
#X connect 79 1 78 2;
#X connect 79 1 149 1;
#X connect 81 0 80 1;
#X connect 81 0 150 0;
#X connect 81 1 80 2;
#X connect 81 1 150 1;
#X connect 83 0 82 1;
#X connect 83 0 151 0;
#X connect 83 1 82 2;
#X connect 83 1 151 1;
#X connect 85 0 84 1;
#X connect 85 0 152 0;
#X connect 85 1 84 2;
#X connect 85 1 152 1;
#X connect 87 0 86 1;
#X connect 87 0 153 0;
#X connect 87 1 86 2;
#X connect 87 1 153 1;
#X connect 89 0 88 1;
#X connect 89 0 154 0;
#X connect 89 1 88 2;
#X connect 89 1 154 1;
#X connect 91 0 90 1;
#X connect 91 0 155 0;
#X connect 91 1 90 2;
#X connect 91 1 155 1;
#X connect 93 0 92 1;
#X connect 93 0 156 0;
#X connect 93 1 92 2;
#X connect 93 1 156 1;
#X connect 95 0 94 1;
#X connect 95 0 157 0;
#X connect 95 1 94 2;
#X connect 95 1 157 1;
#X connect 97 0 96 1;
#X connect 97 0 158 0;
#X connect 97 1 96 2;
#X connect 97 1 158 1;
#X connect 99 0 98 1;
#X connect 99 0 159 0;
#X connect 99 1 98 2;
#X connect 99 1 159 1;
#X connect 101 0 100 1;
#X connect 101 0 160 0;
#X connect 101 1 100 2;
#X connect 101 1 160 1;
#X connect 103 0 102 1;
#X connect 103 0 161 0;
#X connect 103 1 102 2;
#X connect 103 1 161 1;
#X connect 105 0 104 1;
#X connect 105 0 162 0;
#X connect 105 1 104 2;
#X connect 105 1 162 1;
#X connect 107 0 106 1;
#X connect 107 0 163 0;
#X connect 107 1 106 2;
#X connect 107 1 163 1;
#X connect 109 0 108 1;
#X connect 109 0 164 0;
#X connect 109 1 108 2;
#X connect 109 1 164 1;
#X connect 111 0 110 1;
#X connect 111 0 165 0;
#X connect 111 1 110 2;
#X connect 111 1 165 1;
#X connect 113 0 112 1;
#X connect 113 0 166 0;
#X connect 113 1 112 2;
#X connect 113 1 166 1;
#X connect 115 0 114 1;
#X connect 115 0 167 0;
#X connect 115 1 114 2;
#X connect 115 1 167 1;
#X connect 116 0 117 0;
#X connect 116 0 118 0;
#X connect 117 0 116 1;
#X connect 119 0 0 0;
#X connect 120 0 17 0;
#X connect 121 0 19 0;
#X connect 122 0 21 0;
#X connect 123 0 23 0;
#X connect 124 0 25 0;
#X connect 125 0 27 0;
#X connect 126 0 29 0;
#X connect 127 0 31 0;
#X connect 128 0 33 0;
#X connect 129 0 35 0;
#X connect 130 0 37 0;
#X connect 131 0 39 0;
#X connect 132 0 41 0;
#X connect 133 0 43 0;
#X connect 134 0 45 0;
#X connect 135 0 47 0;
#X connect 136 0 49 0;
#X connect 137 0 51 0;
#X connect 138 0 53 0;
#X connect 139 0 55 0;
#X connect 140 0 57 0;
#X connect 141 0 59 0;
#X connect 142 0 61 0;
#X connect 143 0 63 0;
#X connect 144 0 65 0;
#X connect 145 0 67 0;
#X connect 146 0 69 0;
#X connect 147 0 71 0;
#X connect 148 0 73 0;
#X connect 149 0 78 0;
#X connect 150 0 80 0;
#X connect 151 0 82 0;
#X connect 152 0 84 0;
#X connect 153 0 86 0;
#X connect 154 0 88 0;
#X connect 155 0 90 0;
#X connect 156 0 92 0;
#X connect 157 0 94 0;
#X connect 158 0 96 0;
#X connect 159 0 98 0;
#X connect 160 0 100 0;
#X connect 161 0 102 0;
#X connect 162 0 104 0;
#X connect 163 0 106 0;
#X connect 164 0 108 0;
#X connect 165 0 110 0;
#X connect 166 0 112 0;
#X connect 167 0 114 0;
#X connect 168 0 169 0;
#X connect 169 0 7 0;
#X connect 169 1 7 0;
#X restore 405 337 pd audioSources;
#X obj 369 121 loadbang;
#X obj 21 96 catch~ left;
#X obj 92 96 catch~ right;
#X obj 21 221 dac~;
#X obj 22 62 hsl 128 15 0 2 0 0 empty empty empty -2 -8 0 10 -262144
-1 -1 0 1;
#X obj 21 188 *~;
#X obj 92 188 *~;
#X obj 48 143 rev1~ 60;
#N canvas 1141 516 467 370 coolplayer 0;
#X obj 39 132 spigot;
#X obj 72 66 tgl 15 0 empty empty empty 17 7 0 10 -262144 -1 -1 0 1
;
#X obj 72 17 inlet;
#X msg 118 70 \; rotationState 0 0 0 0 180 0 0 60 0 0 0;
#X obj 172 15 inlet;
#X msg 72 39 1;
#X msg 172 38 0;
#X obj 72 226 *~ 250;
#X obj 39 109 r updateFrame;
#X obj 39 278 tabwrite rotationState;
#X msg 168 253 5;
#X obj 39 154 t b b;
#X obj 72 251 snapshot~;
#X obj 39 251 f;
#X floatatom 177 216 5 0 0 0 - - -, f 5;
#X obj 72 204 osc~ 0.05;
#X connect 0 0 11 0;
#X connect 1 0 0 1;
#X connect 2 0 5 0;
#X connect 4 0 6 0;
#X connect 5 0 1 0;
#X connect 5 0 3 0;
#X connect 6 0 1 0;
#X connect 7 0 12 0;
#X connect 8 0 0 0;
#X connect 10 0 9 1;
#X connect 11 0 13 0;
#X connect 11 1 10 0;
#X connect 11 1 12 0;
#X connect 12 0 13 1;
#X connect 12 0 14 0;
#X connect 13 0 9 0;
#X connect 15 0 7 0;
#X restore 528 81 pd coolplayer;
#X obj 528 63 bng 15 250 50 0 empty empty empty 17 7 0 10 -262144 -1
-1;
#X obj 603 64 bng 15 250 50 0 empty empty empty 17 7 0 10 -262144 -1
-1;
#X obj 643 64 bng 15 250 50 0 empty empty empty 17 7 0 10 -262144 -1
-1;
#X obj 724 65 bng 15 250 50 0 empty empty empty 17 7 0 10 -262144 -1
-1;
#N canvas 1141 516 467 370 coolplayer2 0;
#X obj 72 66 tgl 15 0 empty empty empty 17 7 0 10 -262144 -1 -1 0 1
;
#X obj 72 17 inlet;
#X msg 118 70 \; rotationState 0 0 0 0 180 0 0 60 0 0 0;
#X obj 172 15 inlet;
#X msg 72 39 1;
#X msg 172 38 0;
#X msg 54 222 \; rotationState 6 \$1;
#X obj 54 197 random 100;
#X obj 196 197 random 100;
#X msg 196 222 \; rotationState 5 \$1;
#X obj 54 175 metro 1000;
#X obj 196 175 metro 500;
#X obj 283 150 delay;
#X obj 283 172 random 500;
#X obj 283 194 + 300;
#X obj 129 152 delay;
#X obj 129 174 random 500;
#X obj 129 196 + 800;
#X connect 0 0 10 0;
#X connect 0 0 11 0;
#X connect 1 0 4 0;
#X connect 3 0 5 0;
#X connect 4 0 0 0;
#X connect 4 0 2 0;
#X connect 5 0 0 0;
#X connect 7 0 6 0;
#X connect 8 0 9 0;
#X connect 10 0 7 0;
#X connect 10 0 15 0;
#X connect 11 0 8 0;
#X connect 11 0 12 0;
#X connect 12 0 13 0;
#X connect 13 0 14 0;
#X connect 14 0 11 1;
#X connect 15 0 16 0;
#X connect 16 0 17 0;
#X connect 17 0 10 1;
#X restore 642 82 pd coolplayer2;
#X obj 755 62 bng 15 250 50 0 empty empty empty 17 7 0 10 -262144 -1
-1;
#X obj 836 63 bng 15 250 50 0 empty empty empty 17 7 0 10 -262144 -1
-1;
#N canvas 1350 599 467 370 coolplayer3 0;
#X obj 72 66 tgl 15 0 empty empty empty 17 7 0 10 -262144 -1 -1 0 1
;
#X obj 72 17 inlet;
#X msg 118 70 \; rotationState 0 0 0 0 180 0 0 60 0 0 0;
#X obj 172 15 inlet;
#X msg 72 39 1;
#X msg 172 38 0;
#X msg 54 281 \; rotationState 6 \$1;
#X obj 54 197 random 100;
#X obj 196 197 random 100;
#X msg 196 281 \; rotationState 5 \$1;
#X obj 54 175 metro 1000;
#X obj 196 175 metro 500;
#X obj 283 150 delay;
#X obj 283 172 random 500;
#X obj 283 194 + 300;
#X obj 129 152 delay;
#X obj 129 174 random 500;
#X obj 129 196 + 800;
#X connect 0 0 10 0;
#X connect 0 0 11 0;
#X connect 1 0 4 0;
#X connect 3 0 5 0;
#X connect 4 0 0 0;
#X connect 4 0 2 0;
#X connect 5 0 0 0;
#X connect 7 0 6 0;
#X connect 8 0 9 0;
#X connect 10 0 7 0;
#X connect 10 0 15 0;
#X connect 11 0 8 0;
#X connect 11 0 12 0;
#X connect 12 0 13 0;
#X connect 13 0 14 0;
#X connect 14 0 11 1;
#X connect 15 0 16 0;
#X connect 16 0 17 0;
#X connect 17 0 10 1;
#X restore 754 80 pd coolplayer3;
#X text 18 32 main volume;
#X text 173 38 enable keyboard movement;
#X text 526 34 automated movement scripts (start/stop);
#X obj 369 58 bng 15 250 50 0 empty empty empty 17 7 0 10 -262144 -1
-1;
#X text 365 35 reset position;
#X connect 0 0 4 0;
#X connect 0 0 6 0;
#X connect 2 0 17 0;
#X connect 3 0 2 0;
#X connect 4 0 11 0;
#X connect 5 0 9 0;
#X connect 7 0 18 0;
#X connect 8 0 10 0;
#X connect 9 0 3 0;
#X connect 9 1 3 0;
#X connect 10 0 22 0;
#X connect 10 1 22 0;
#X connect 11 0 15 0;
#X connect 11 1 14 0;
#X connect 22 0 7 0;
#X connect 25 0 23 0;
#X connect 26 0 30 0;
#X connect 26 0 32 0;
#X connect 27 0 31 0;
#X connect 27 0 32 0;
#X connect 29 0 31 1;
#X connect 29 0 30 1;
#X connect 30 0 28 0;
#X connect 31 0 28 1;
#X connect 32 0 30 0;
#X connect 32 0 31 0;
#X connect 34 0 33 0;
#X connect 34 0 38 1;
#X connect 34 0 41 1;
#X connect 35 0 33 1;
#X connect 36 0 38 0;
#X connect 36 0 33 1;
#X connect 36 0 41 1;
#X connect 37 0 38 1;
#X connect 39 0 41 0;
#X connect 39 0 38 1;
#X connect 39 0 33 1;
#X connect 40 0 41 1;
#X connect 45 0 23 0;
