#N canvas 1043 591 598 421 10;
#X obj 97 112 phasor~;
#X obj 18 148 min~ 0.1714;
#X obj 18 170 *~ 5.84;
#X obj 18 214 -~ 0.5;
#X obj 18 236 *~;
#X obj 18 258 *~ -4;
#X obj 18 280 +~ 1;
#X obj 18 302 *~;
#X obj 18 346 outlet~;
#X obj 97 148 *~ 40.6;
#X obj 97 170 cos~;
#X obj 97 192 *~;
#X obj 97 259 *~;
#X obj 18 192 wrap~;
#X obj 166 148 *~ 3147;
#X obj 166 175 cos~;
#X obj 209 175 *~ 2;
#X obj 209 197 cos~;
#X obj 209 219 *~ 0.3;
#X obj 97 90 sig~ 1.42;
#X obj 323 56 loadbang;
#X obj 323 109 random 100;
#X obj 409 154 delay;
#X obj 409 94 t b b;
#X obj 323 79 t b b;
#X obj 323 183 pack f f;
#X obj 323 131 / 300;
#X obj 323 205 vline~;
#X obj 413 70 bng 15 250 50 0 empty empty empty 17 7 0 10 -262144 -1
-1;
#X floatatom 281 110 5 0 0 0 - - -, f 5;
#X floatatom 426 208 5 0 0 0 - - -, f 5;
#X obj 436 133 + 300;
#X obj 323 155 + 1;
#X msg 275 145 1.42;
#X obj 436 114 random 1e+07;
#X obj 18 324 *~ 0.5;
#X connect 0 0 1 0;
#X connect 0 0 9 0;
#X connect 0 0 14 0;
#X connect 1 0 2 0;
#X connect 2 0 13 0;
#X connect 3 0 4 0;
#X connect 3 0 4 1;
#X connect 4 0 5 0;
#X connect 5 0 6 0;
#X connect 6 0 7 0;
#X connect 7 0 35 0;
#X connect 9 0 10 0;
#X connect 10 0 11 0;
#X connect 10 0 11 1;
#X connect 11 0 12 0;
#X connect 12 0 7 1;
#X connect 13 0 3 0;
#X connect 14 0 15 0;
#X connect 14 0 16 0;
#X connect 15 0 12 1;
#X connect 16 0 17 0;
#X connect 17 0 18 0;
#X connect 18 0 12 1;
#X connect 19 0 0 0;
#X connect 20 0 24 0;
#X connect 20 0 33 0;
#X connect 21 0 26 0;
#X connect 22 0 21 0;
#X connect 23 0 22 0;
#X connect 23 1 34 0;
#X connect 24 0 21 0;
#X connect 24 1 23 0;
#X connect 25 0 27 0;
#X connect 26 0 32 0;
#X connect 27 0 0 0;
#X connect 28 0 24 0;
#X connect 31 0 22 1;
#X connect 31 0 30 0;
#X connect 31 0 25 1;
#X connect 32 0 25 0;
#X connect 32 0 23 0;
#X connect 32 0 29 0;
#X connect 33 0 25 0;
#X connect 34 0 31 0;
#X connect 35 0 8 0;
