#N canvas 1482 701 528 348 10;
#X obj 42 47 key;
#X obj 42 82 select \$1;
#X obj 42 104 t b b;
#X obj 115 47 keyup;
#X obj 115 82 select \$1;
#X msg 69 129 stop;
#X msg 42 179 1;
#X obj 115 160 delay 50;
#X msg 115 180 0;
#X obj 42 212 change;
#X obj 42 242 outlet;
#X connect 0 0 1 0;
#X connect 1 0 2 0;
#X connect 2 0 6 0;
#X connect 2 1 5 0;
#X connect 3 0 4 0;
#X connect 4 0 7 0;
#X connect 5 0 7 0;
#X connect 6 0 9 0;
#X connect 7 0 8 0;
#X connect 8 0 9 0;
#X connect 9 0 10 0;
