#N canvas 253 547 793 512 10;
#X obj 63 102 noise~;
#X obj 118 77 inlet;
#X obj 63 143 bp~ 500 20, f 16;
#X obj 63 189 outlet~;
#X obj 165 65 inlet;
#X obj 165 87 - 40;
#X obj 165 109 * 20;
#X obj 63 165 *~ 20;
#X obj 118 121 + 100;
#X obj 118 99 * 100;
#X connect 0 0 2 0;
#X connect 1 0 9 0;
#X connect 2 0 7 0;
#X connect 4 0 5 0;
#X connect 5 0 6 0;
#X connect 6 0 2 2;
#X connect 7 0 3 0;
#X connect 8 0 2 1;
#X connect 9 0 8 0;
