#N canvas 1706 492 732 552 10;
#X obj 31 171 hsl 128 15 0 1 0 0 empty empty empty -2 -8 0 10 -262144
-1 -1 0 1;
#X obj 182 506 dac~;
#N canvas 1420 574 727 423 formant 0;
#X obj 202 14 inlet~;
#X obj 203 316 outlet~;
#X obj 105 248 bp~ 199 5;
#X obj 183 248 bp~ 300 2;
#X obj 258 248 bp~ 400 2;
#X obj 341 248 bp~ 1597 3;
#X msg 533 62 3454 5645 6433 6999 600;
#X obj 533 156 unpack 1 2 3 4 5;
#X msg 508 105 527 781 972 1184 70;
#X obj 490 249 *~ 0.8;
#X obj 282 21 inlet~;
#X obj 217 208 *~ 1.482;
#X connect 0 0 2 0;
#X connect 0 0 3 0;
#X connect 0 0 4 0;
#X connect 0 0 5 0;
#X connect 0 0 9 0;
#X connect 2 0 1 0;
#X connect 3 0 1 0;
#X connect 5 0 1 0;
#X connect 6 0 7 0;
#X connect 7 0 2 1;
#X connect 7 1 3 1;
#X connect 7 2 4 1;
#X connect 7 3 5 1;
#X connect 7 4 2 2;
#X connect 7 4 3 2;
#X connect 7 4 4 2;
#X connect 7 4 5 2;
#X connect 8 0 7 0;
#X connect 9 0 1 0;
#X connect 10 0 11 0;
#X restore 81 388 pd formant;
#N canvas 1468 530 531 443 resonator 0;
#X obj 51 38 inlet~;
#X obj 48 330 outlet~;
#X obj 248 81 dfbef 10.12 0.05;
#X obj 48 308 hip~ 200;
#X obj 248 132 dfbef 8.4 0.7;
#X obj 248 108 dfbef 14 0.9;
#X obj 248 159 dfbef 0.844 0.74;
#X obj 118 81 dfbef 1.897 0.05;
#X obj 119 107 dfbef 1.28 0.05;
#X obj 119 133 dfbef 1.02 0.05;
#X obj 119 159 dfbef 0.844 0.05;
#X obj 99 184 *~ 0.5;
#X obj 37 167 *~ 3;
#X connect 0 0 7 0;
#X connect 0 0 8 0;
#X connect 0 0 9 0;
#X connect 0 0 10 0;
#X connect 0 0 2 0;
#X connect 0 0 5 0;
#X connect 0 0 4 0;
#X connect 0 0 6 0;
#X connect 0 0 12 0;
#X connect 3 0 1 0;
#X connect 7 0 11 0;
#X connect 8 0 11 0;
#X connect 9 0 11 0;
#X connect 10 0 11 0;
#X connect 11 0 3 0;
#X connect 12 0 3 0;
#X restore 182 460 pd resonator;
#N canvas 322 108 677 732 stickslip 0;
#X obj 37 28 inlet force;
#X msg 37 50 \$1 100;
#X obj 37 72 line;
#X obj 37 94 t f f;
#X obj 37 138 change;
#X obj 161 118 swap 1;
#X obj 161 140 -;
#X obj 161 162 t f f;
#X obj 143 233 random 1000;
#X obj 143 303 *;
#X obj 37 330 metro;
#X obj 143 325 +;
#X obj 37 352 t b b;
#X obj 37 374 t b b;
#X obj 37 396 timer;
#X obj 37 440 / 100;
#X obj 37 462 sqrt;
#X obj 37 484 t f f;
#X obj 37 506 + 0.1;
#X obj 37 528 sqrt;
#X obj 37 550 pack f f;
#X msg 37 572 \$1 \, 0 \$2;
#X obj 37 594 hv.vline;
#X obj 37 616 *~;
#X obj 37 673 outlet~ pulse;
#X obj 37 418 min 100;
#X obj 37 116 > 0.1;
#N canvas 1080 474 450 300 click 0;
#X msg 51 63 1 1 0 \, 0 20 2;
#X obj 51 85 hv.vline;
#X obj 51 107 *~;
#X obj 51 179 *~;
#X obj 174 61 noise~;
#X obj 51 36 inlet;
#X obj 51 201 outlet~;
#X obj 259 32 inlet;
#X obj 275 106 * 1.71;
#X obj 178 127 sig~;
#X obj 275 128 sig~;
#X obj 259 70 + 1000;
#X obj 138 149 vcf~ 3500 2;
#X obj 238 150 vcf~ 6000 1;
#X obj 138 177 *~ 3;
#X connect 0 0 1 0;
#X connect 1 0 2 0;
#X connect 1 0 2 1;
#X connect 2 0 3 0;
#X connect 3 0 6 0;
#X connect 4 0 12 0;
#X connect 4 0 13 0;
#X connect 5 0 0 0;
#X connect 7 0 11 0;
#X connect 8 0 10 0;
#X connect 9 0 12 1;
#X connect 10 0 13 1;
#X connect 11 0 8 0;
#X connect 11 0 9 0;
#X connect 12 0 14 0;
#X connect 13 0 14 0;
#X connect 14 0 3 1;
#X restore 178 456 pd click;
#X obj 161 280 * 15;
#X obj 198 280 * 150;
#X obj 198 301 + 15;
#X obj 257 670 outlet gate;
#X obj 143 255 / 200;
#X connect 0 0 1 0;
#X connect 0 0 27 1;
#X connect 1 0 2 0;
#X connect 2 0 3 0;
#X connect 3 0 26 0;
#X connect 3 1 5 0;
#X connect 4 0 10 0;
#X connect 5 0 6 0;
#X connect 5 1 6 1;
#X connect 6 0 7 0;
#X connect 7 0 28 0;
#X connect 7 1 29 0;
#X connect 8 0 32 0;
#X connect 9 0 11 0;
#X connect 10 0 12 0;
#X connect 11 0 10 1;
#X connect 12 0 13 0;
#X connect 12 0 27 0;
#X connect 12 0 31 0;
#X connect 12 1 8 0;
#X connect 13 0 14 0;
#X connect 13 1 14 1;
#X connect 14 0 25 0;
#X connect 15 0 16 0;
#X connect 16 0 17 0;
#X connect 17 0 18 0;
#X connect 17 1 20 1;
#X connect 18 0 19 0;
#X connect 19 0 20 0;
#X connect 20 0 21 0;
#X connect 21 0 22 0;
#X connect 22 0 23 0;
#X connect 22 0 23 1;
#X connect 23 0 24 0;
#X connect 25 0 15 0;
#X connect 26 0 4 0;
#X connect 27 0 24 0;
#X connect 28 0 9 1;
#X connect 29 0 30 0;
#X connect 30 0 11 1;
#X connect 32 0 9 0;
#X restore 28 204 pd stickslip;
#N canvas 1107 197 677 732 stickslip1 0;
#X obj 37 28 inlet force;
#X msg 37 50 \$1 100;
#X obj 37 72 line;
#X obj 37 94 t f f;
#X obj 37 138 change;
#X obj 161 118 swap 1;
#X obj 161 140 -;
#X obj 161 162 t f f;
#X obj 143 303 *;
#X obj 37 330 metro;
#X obj 143 325 +;
#X obj 37 352 t b b;
#X obj 37 374 t b b;
#X obj 37 396 timer;
#X obj 37 440 / 100;
#X obj 37 462 sqrt;
#X obj 37 484 t f f;
#X obj 37 506 + 0.1;
#X obj 37 528 sqrt;
#X obj 37 550 pack f f;
#X msg 37 572 \$1 \, 0 \$2;
#X obj 37 594 hv.vline;
#X obj 37 616 *~;
#X obj 37 673 outlet~ pulse;
#X obj 37 418 min 100;
#X obj 37 116 > 0.1;
#X obj 198 301 + 15;
#X obj 257 670 outlet gate;
#X obj 162 280 * 10;
#X obj 198 280 * 100;
#X obj 143 233 random 1000;
#N canvas 1246 524 450 300 click 0;
#X msg 51 63 1 1 0 \, 0 20 2;
#X obj 51 85 hv.vline;
#X obj 51 107 *~;
#X obj 51 179 *~;
#X obj 174 61 noise~;
#X obj 51 36 inlet;
#X obj 51 201 outlet~;
#X obj 259 32 inlet;
#X obj 275 106 * 1.71;
#X obj 178 127 sig~;
#X obj 275 128 sig~;
#X obj 259 70 + 400;
#X obj 138 149 vcf~ 3500 2;
#X obj 238 150 vcf~ 6000 1;
#X obj 138 177 *~ 4;
#X connect 0 0 1 0;
#X connect 1 0 2 0;
#X connect 1 0 2 1;
#X connect 2 0 3 0;
#X connect 3 0 6 0;
#X connect 4 0 12 0;
#X connect 4 0 13 0;
#X connect 5 0 0 0;
#X connect 7 0 11 0;
#X connect 8 0 10 0;
#X connect 9 0 12 1;
#X connect 10 0 13 1;
#X connect 11 0 8 0;
#X connect 11 0 9 0;
#X connect 12 0 14 0;
#X connect 13 0 14 0;
#X connect 14 0 3 1;
#X restore 139 475 pd click;
#X obj 143 255 / 200;
#X connect 0 0 1 0;
#X connect 0 0 31 1;
#X connect 1 0 2 0;
#X connect 2 0 3 0;
#X connect 3 0 25 0;
#X connect 3 1 5 0;
#X connect 4 0 9 0;
#X connect 5 0 6 0;
#X connect 5 1 6 1;
#X connect 6 0 7 0;
#X connect 7 0 28 0;
#X connect 7 1 29 0;
#X connect 8 0 10 0;
#X connect 9 0 11 0;
#X connect 10 0 9 1;
#X connect 11 0 12 0;
#X connect 11 0 27 0;
#X connect 11 0 31 0;
#X connect 11 1 30 0;
#X connect 12 0 13 0;
#X connect 12 1 13 1;
#X connect 13 0 24 0;
#X connect 14 0 15 0;
#X connect 15 0 16 0;
#X connect 16 0 17 0;
#X connect 16 1 19 1;
#X connect 17 0 18 0;
#X connect 18 0 19 0;
#X connect 19 0 20 0;
#X connect 20 0 21 0;
#X connect 21 0 22 0;
#X connect 21 0 22 1;
#X connect 22 0 23 0;
#X connect 24 0 14 0;
#X connect 25 0 4 0;
#X connect 26 0 10 1;
#X connect 28 0 8 1;
#X connect 29 0 26 0;
#X connect 30 0 32 0;
#X connect 31 0 23 0;
#X connect 32 0 8 0;
#X restore 132 203 pd stickslip1;
#X obj 275 170 hsl 128 15 0 0.5 0 0 empty empty empty -2 -8 0 10 -262144
-1 -1 0 1;
#X obj 272 190 sig~;
#X obj 272 212 lop~ 0.2;
#N canvas 0 23 450 300 turbine 0;
#X obj 68 40 loadbang;
#X msg 68 62 3097 4495 5588 7471 11000;
#X obj 68 84 unpack f f f f f;
#X obj 30 120 sig~;
#X obj 30 142 *~;
#X obj 30 164 osc~;
#X obj 54 201 *~ 0.25;
#X obj 120 245 clip~ -0.9 0.9;
#X obj 120 267 outlet~;
#X obj 71 119 sig~;
#X obj 71 141 *~;
#X obj 71 163 osc~;
#X obj 114 118 sig~;
#X obj 114 140 *~;
#X obj 114 162 osc~;
#X obj 158 120 sig~;
#X obj 158 142 *~;
#X obj 158 164 osc~;
#X obj 182 201 *~ 0.25;
#X obj 199 119 sig~;
#X obj 199 141 *~;
#X obj 199 163 osc~;
#X obj 153 37 inlet~ engine_speed;
#X connect 0 0 1 0;
#X connect 1 0 2 0;
#X connect 2 0 3 0;
#X connect 2 1 9 0;
#X connect 2 2 12 0;
#X connect 2 3 15 0;
#X connect 2 4 19 0;
#X connect 3 0 4 0;
#X connect 4 0 5 0;
#X connect 5 0 6 0;
#X connect 6 0 7 0;
#X connect 7 0 8 0;
#X connect 9 0 10 0;
#X connect 10 0 11 0;
#X connect 11 0 6 0;
#X connect 12 0 13 0;
#X connect 13 0 14 0;
#X connect 14 0 7 0;
#X connect 15 0 16 0;
#X connect 16 0 17 0;
#X connect 17 0 18 0;
#X connect 18 0 7 0;
#X connect 19 0 20 0;
#X connect 20 0 21 0;
#X connect 21 0 18 0;
#X connect 22 0 4 1;
#X connect 22 0 10 1;
#X connect 22 0 13 1;
#X connect 22 0 16 1;
#X connect 22 0 20 1;
#X restore 272 245 pd turbine;
#X obj 272 267 *~ 0.5;
#X obj 272 289 +~;
#X obj 272 311 lop~ 11000;
#N canvas 629 309 457 425 burn 0;
#X obj 46 39 inlet~;
#X obj 39 73 *~;
#X obj 39 95 *~ 150;
#X obj 13 132 noise~;
#X obj 13 154 bp~ 8000 0.5;
#X obj 13 176 vcf~ 0 1;
#X obj 13 198 hip~ 120;
#X obj 13 220 *~ 120;
#X obj 13 290 vcf~ 0 0.6;
#X obj 13 312 outlet~;
#X obj 13 242 clip~ -1 1;
#X obj 46 266 *~ 12000;
#X obj 140 62 loadbang;
#X msg 140 88 1;
#X msg 175 90 6;
#X connect 0 0 1 0;
#X connect 0 0 1 1;
#X connect 0 0 11 0;
#X connect 1 0 2 0;
#X connect 2 0 5 1;
#X connect 3 0 4 0;
#X connect 4 0 5 0;
#X connect 5 0 6 0;
#X connect 6 0 7 0;
#X connect 7 0 10 0;
#X connect 8 0 9 0;
#X connect 10 0 8 0;
#X connect 11 0 8 1;
#X connect 12 0 13 0;
#X connect 12 0 14 0;
#X connect 13 0 5 2;
#X connect 14 0 8 2;
#X restore 361 245 pd burn;
#X obj 81 247 *~ 0.3;
#X obj 272 334 *~ 0.7;
#N canvas 1669 458 735 360 formantvcf 0;
#X obj 20 27 inlet~;
#X obj 27 200 vcf~ 527 70;
#X obj 119 201 vcf~ 781 70;
#X obj 210 201 vcf~ 972 70;
#X obj 301 201 vcf~ 1184 70;
#X obj 233 8 inlet~;
#X obj 156 177 *~ 1.482;
#X obj 247 178 *~ 1.844;
#X obj 341 177 *~ 2.247;
#X obj 141 315 outlet~;
#X obj 231 33 *~;
#X obj 361 30 loadbang;
#X msg 361 52 70;
#X obj 435 204 *~ 0.2;
#X obj 231 77 +~ 50;
#X obj 231 55 *~ 10000;
#X obj 141 267 *~ 1.4;
#X connect 0 0 1 0;
#X connect 0 0 2 0;
#X connect 0 0 3 0;
#X connect 0 0 4 0;
#X connect 0 0 13 0;
#X connect 1 0 16 0;
#X connect 2 0 16 0;
#X connect 3 0 16 0;
#X connect 4 0 16 0;
#X connect 5 0 10 0;
#X connect 5 0 10 1;
#X connect 6 0 2 1;
#X connect 7 0 3 1;
#X connect 8 0 4 1;
#X connect 10 0 15 0;
#X connect 11 0 12 0;
#X connect 12 0 1 2;
#X connect 12 0 2 2;
#X connect 12 0 3 2;
#X connect 12 0 4 2;
#X connect 13 0 9 0;
#X connect 14 0 1 1;
#X connect 14 0 6 0;
#X connect 14 0 7 0;
#X connect 14 0 8 0;
#X connect 15 0 14 0;
#X connect 16 0 9 0;
#X restore 272 386 pd formantvcf;
#X obj 422 168 hsl 128 15 0 0.5 0 0 empty empty empty -2 -8 0 10 -262144
-1 -1 0 1;
#X obj 419 188 sig~;
#X obj 419 210 lop~ 0.2;
#X obj 182 484 *~ 0.5;
#X obj 274 90 hsl 128 15 0 1 0 0 empty empty empty -2 -8 0 10 -262144
-1 -1 0 1;
#X obj 271 130 * 0.25;
#X obj 271 51 r charge @hv_param 0 1 0;
#X text 22 14 using Creaking and Jet Engine examples from "Designing
Sound" by Andy Farnell;
#X connect 0 0 4 0;
#X connect 0 0 5 0;
#X connect 3 0 20 0;
#X connect 4 0 14 0;
#X connect 5 0 14 0;
#X connect 6 0 7 0;
#X connect 7 0 8 0;
#X connect 8 0 9 0;
#X connect 8 0 13 0;
#X connect 9 0 10 0;
#X connect 10 0 11 0;
#X connect 11 0 12 0;
#X connect 12 0 15 0;
#X connect 13 0 11 1;
#X connect 14 0 2 0;
#X connect 14 0 16 0;
#X connect 15 0 2 0;
#X connect 15 0 16 0;
#X connect 16 0 3 0;
#X connect 17 0 18 0;
#X connect 18 0 19 0;
#X connect 19 0 16 1;
#X connect 20 0 1 0;
#X connect 20 0 1 1;
#X connect 21 0 0 0;
#X connect 21 0 22 0;
#X connect 22 0 6 0;
#X connect 22 0 17 0;
#X connect 23 0 21 0;
