#N canvas 897 475 242 254 10;
#X obj 33 18 inlet~;
#X obj 33 103 +~;
#X obj 33 125 delwrite~ \$0-a 100;
#X obj 51 58 r~ \$0-fba;
#X obj 51 80 *~ \$2;
#X obj 32 149 delread~ \$0-a \$1;
#X obj 42 172 s~ \$0-fba;
#X obj 32 194 outlet~;
#X connect 0 0 1 0;
#X connect 1 0 2 0;
#X connect 3 0 4 0;
#X connect 4 0 1 1;
#X connect 5 0 6 0;
#X connect 5 0 7 0;
